/* XPM */
static char *_cd2c7f697fb473591c356391b72ef586QdzirZzEYeSVUOm[] = {
/* columns rows colors chars-per-pixel */
"64 64 36 1 ",
"  c #BFC5DD",
". c #C0C6DF",
"X c white",
"o c #C2C8E0",
"O c #A6ABC0",
"+ c #8A8E9F",
"@ c #878B9C",
"# c #B1B6CC",
"$ c #B6BBD2",
"% c #BCC2DA",
"& c #9FA4B8",
"* c #989CAF",
"= c #9196A8",
"- c #B9BFD7",
"; c #858999",
": c #8D91A3",
"> c #ABB0C7",
", c #B8BED6",
"< c #43425E",
"1 c #262547",
"2 c #151338",
"3 c #818496",
"4 c #F6F6F7",
"5 c #6D6F80",
"6 c #5A5972",
"7 c #323252",
"8 c #E6E5E8",
"9 c #7C8090",
"0 c #717586",
"q c #777B8B",
"w c #FDFDFD",
"e c #65647B",
"r c #060610",
"t c #D7D5D9",
"y c #C8C6C9",
"u c #D0CFD4",
/* pixels */
"=OOOOO:@OOOOO=;OOOOO*3OOOOO*9OOOOO&9OOOOO&9&OOOOO9&OOOOO9*OOOOO9",
"O....o&*o...oO=o...o>:.....#+ ....$@%....-@-....%@$.... +#.....:",
"O.   .&*.   .O=.   .>:    .#+    .$@%    -;,    %@$.    +#.    +",
"O.   .&*.   .O=.   .>:    .#+    .$@%    -;,    %@$.    +#.    +",
"O.   .&*.   .O=.   .>:    .#+    .$@%    -;,    %@$.    +#.    +",
"Oo...o&*o...oO=o...o>:....o#+....o$@%....-@-.... @$o....+#o....:",
":&&&&&@;&&&&&:3&&&&&=9&&&&&=q&&&&&*q&&&&&&q&&&&&&q*&&&&&q=&&&&&9",
"@*****;9*****@9***=;qe333:*:q*****=0**:339e93=***0=*****q:*****q",
"Oo...o&*o...oO=o.o>1222220o#+....o$@ o3222221*o. @$o....+#o....:",
"O.   .&*.   .O=. =0eeeeee59&+    .$@#35eeeeee0+%%@$.    +#.    +",
"O.   .&*.   .O=.%<18XXXXX92@+    .$@O2eXXXXX4<7,%@$.    +#.    +",
"O.   .&*.   .O=.%<18XXXXXt&66%   .$6<*uXXXXX4<7,%@$.    +#.    +",
"Oo...o&*o...oO=o <18XXXXXX477%....,728XXXXXX4<7- @$.....+#o....:",
"=OOOOO:;OOOOO=3OO718XXXXXw477&OOOO&718XXXXXX4<1&&q&OOOOO9*OOOOO9",
"3=====9q=====3q=:718XXXXXX471:====:118XXXXXX4<1+:0+=====0@=====0",
"Oo...o&*o...oO=o <18XXXXXw4<7$---%#718XXXXXX4<7- @$.... +#o....:",
"O.   .&*.   .O=.%<18XXXXXXwu=7777773y4XXXXXX4<7,%@$.    +#.    +",
"O.   .&*.   .O=.%<18XXXXXXXwu<<<<<<$XXXXXXXX4<7,%@$.    +#.    +",
"O.   .&*.   .O=.%<18XXXXXXXXw444444wXXXXXXXX4<7,%@$.    +#.    +",
"O....o&*o...oO=o <18XXXXXXXXXXXwwwwwXXXXXXXX4<7-%@$.... +#.....:",
"*>>>>>=+>>>>>*;>>718XXXw484wXXXXXXXXw4884XXX4<1O>9O>>>>>3&>>>>>3",
"3:::::9q:::::30::718XXXt717uXXXXXXXX8<17yXXX4<1@:5@:::::0;:::::0",
"O.   o&*o   .O=. <18XXXyrrryXXXXXXXX82rrOXXX4<7,%@$.  . +#.   .:",
"O.   .&*.   .O=.%<18XXXurrryXXXXXXXw82rrOXXX4<7,%@$.    +#.    +",
"O.   .&*.   .O=. :0eOXX8*=*8XXXXXXXX4&:=8XX#e0@%%@$.    +#.    +",
"O.   .&*.   .O=. oO25XXXXXXXXXXXXXXXwXXXwXX;r=o %@$.    +#.    +",
"O....o&*o...oO=o.oO25XXXXXXXXXXXXXXXXXXXXXX;r=o.%@$.... +#.....:",
"*#####=:#####*+###&<e&8XXXXXXXXXXXXXXXXXw4O5<=##>3O#####3O#####;",
"9@@@@+q0+@@@+90+@@@+62#XwwwwXXXXXXXXXwwwXu2<+@@@@5;@@@@@53@@@@@5",
"O    .&*.    O=     *ee666etXXXXXXXX8566666*    %@$    %@#     +",
"O.   .&*.   .O=.   .>+61111Otttttttt$711179%    %@$.    +#.    +",
"O.   .&*.   .O=.   .>:$###>7222222221&###>;,    %@$.    +#.    +",
"O.   .&*.   .O=.   .>:....$1255555512>...-;,    %@$.    +#.    +",
"O....o&*o....O=.....>:....,1<4XwwXX62>...-;-....%@$.... +#.....:",
"&$$$$,*=,$$$$&:$$$$$O@$$$$>1<4t#$tw62&,$$#3#$$$$#3>$$$$$;O$$$$$@",
"9@@@@@q0@@@@@90@@@@@95@@@@32<4y**yw62q@@@;5;@@@@;53@@@@@53@@@@@5",
"O%%%%%&=%%%%%O:%%%%%>+%%%%#1<4y**yw62O%%%$;$%%%%-;#%%%%%@>%%%%%+",
"O.   .&*.   .O=.   .>:.  .$1<48uu8w62>.  -;,    %@$.    +#.    +",
"O.   .&*.   .O=.   .>:   .$1<4ww4ww62>.  -;,    %@$.    +#.    +",
"O.   .&*.   .O=.   .>:   .$1<4t>>uw62>.  -;,    %@$.    +#.    +",
"O.   .&*.   .O=.   .>:.  .$1<4y**yw62>. .-;-.   %@$.    +#.    :",
"&-----*=-----&:-----O+----#1<4y**yw62O---$;#----$;#----,;>-----@",
"q;;;;;q0;;;;;q0;;;;;95;;;;32<48tt8w62q;;;353;;;;;53;;;;;59;;;;;5",
"&-,,,-*=-,,,-&:-,,,-O+,,,-#1<4XXXXw62O-,,#3#,,,,$;#-,,,,;>-,,,,@",
"O.   .&*.   .O=.   .>:.  .$1<4XXXXw62>. .-;-.   %@$.    +#.   .:",
"O.   .&*.   .O=.   .>:   .$1<4XXXXw62>.  -;,    %@$.    +#.    +",
"O.   .&*.   .O=.   .>:   .$1<4XXXXw62>.  -;,    %@$.    +#.    +",
"O.   .&*.   .O=.   .>:.  .$1<4XXXXw62>.  -;,    %@$.    +#.    :",
"O%%%%%&=%%%%%O:%%%%%O+%%%%#1<4XXXXw62O%%%$;$%%%%,;#%%%%%@>%%%%%+",
"9;;;;@q0@;;;@q0@;;;@95;;;;32<4XXXXw62q@;;;53;;;;;53;;;;;59;;;;;5",
"&$$$$$*=$$$$$&+$$$$$O@$$$$>1<4XXXXw62&$$$#3#$$$$#3>$$$$$;O$$$$$;",
"O....o&*o....O=.....>:....$1<4XXXXw62>...-;-....%@$.... +#.....:",
"O.   .&*.   .O=.   .>:   .$1<4XXXXw62>.  -;,    %@$.    +#.    +",
"O.   .&*.   .O=.   .>:   .$1<4XXXXw62>.  -;,    %@$.    +#.    +",
"O.   .&*.   .O=.   .>:   .$1<wXXXXX62>.  -;,    %@$.    +#.    +",
"O    .&*.   .O=     >:    -5<3;;;;;6e#   ,;,    %@$    %+#     +",
"9+++++qq+++++90+++++30+++++;6222222<:++++@5@++++@5;+++++53+++++0",
"*####$=:#####*+#####&;#####O9*****=q>####>3>####>3O#####3O#####;",
"O....o&*o...oO=.....>:.....#+.o.oo,@%....-@-....%@$.... +#.....:",
"O.   .&*.   .O=.   .>:    .#+    .$@%    -;,    %@$.    +#.    +",
"O.   .&*.   .O=.   .>:    .#+    .$@%    -;,    %@$.    +#.    +",
"O.   .&*.   .O=.   .>:    .#+    .$@%    -;,    %@$.    +#.    +",
"O.   .&*.   .O=.   .>:.   .#+    .$@%    -;,    %@$.    +#.    +",
"9+++++qq+++++90+++++30+++++;5+++++;5@++++@5@+++++5;+++++53+++++0"
};
