/* XPM */
static char *_d4dd0d391e14b8ab657984c14ddfce60YlJxHuakxRgO7uV[] = {
/* columns rows colors chars-per-pixel */
"64 64 256 2 ",
"   c #BFC5DD",
".  c #C0C6DE",
"X  c #C1C7DF",
"o  c white",
"O  c #020001",
"+  c #8B8FA1",
"@  c #9FA4B8",
"#  c #8A8E9F",
"$  c #B1B6CD",
"%  c #8A2264",
"&  c #A7ACC1",
"*  c #BEC4DC",
"=  c #85899A",
"-  c #878B9C",
";  c #989DB0",
":  c #FEFEFD",
">  c #C2C8E1",
",  c #FFFFFE",
"<  c #BCC2DA",
"1  c #040407",
"2  c #898D9E",
"3  c #B9BFD6",
"4  c #080809",
"5  c #A6ABC0",
"6  c #B0B5CB",
"7  c #31A66A",
"8  c #8D91A3",
"9  c #0E0205",
"0  c #0A0E0D",
"q  c #ACB1C7",
"w  c #FC9047",
"e  c #F9B358",
"r  c #4E458A",
"t  c #9296A8",
"y  c #969BAE",
"u  c #B5BAD1",
"i  c #95CE68",
"p  c #A4A9BE",
"a  c #27A9A4",
"s  c #DC5B94",
"d  c #38A0D8",
"f  c #A5AABF",
"g  c #387BB6",
"h  c #FCFCFB",
"j  c #6D717D",
"k  c #070712",
"l  c #9095A7",
"z  c #616470",
"x  c #767A88",
"c  c #F9584A",
"v  c #FBF95F",
"b  c #A1A7BB",
"n  c #7E8292",
"m  c #828696",
"M  c #B5BBD2",
"N  c #39383A",
"B  c #585B65",
"V  c #727584",
"C  c #9BA1B4",
"Z  c #C1C7E0",
"A  c #6A6D7B",
"S  c #C1C0C0",
"D  c #1E222A",
"F  c #2F0D20",
"G  c #797D8C",
"H  c #403E43",
"J  c #FBF75E",
"K  c #959696",
"L  c #F5F5F4",
"P  c #542429",
"I  c #111818",
"U  c #141114",
"Y  c #81265E",
"T  c #C0C7DF",
"R  c #2B5B49",
"E  c #ABABAC",
"W  c #F99350",
"Q  c #535661",
"!  c #B7BCD3",
"~  c #D5D5D6",
"^  c #70737D",
"/  c #9498AB",
"(  c #181B22",
")  c #681E4C",
"_  c #7C808E",
"`  c #3A462E",
"'  c #EBEAE9",
"]  c #F0F1EF",
"[  c #352D2F",
"{  c #CCCBCA",
"}  c #3E3968",
"|  c #3BA56E",
" . c #F9F975",
".. c #BAC0D8",
"X. c #494348",
"o. c #6B6C6B",
"O. c #131226",
"+. c #253D2E",
"@. c #9BCF6E",
"#. c #2D5038",
"$. c #592B3D",
"%. c #E4E4E4",
"&. c #7D7B43",
"*. c #F9F8F9",
"=. c #40A4D9",
"-. c #92583B",
";. c #AF6541",
":. c #3B865C",
">. c #69693D",
",. c #8D6945",
"<. c #3774A7",
"1. c #15060A",
"2. c #73585A",
"3. c #3D212C",
"4. c #232835",
"5. c #484D55",
"6. c #5F3B29",
"7. c #7E205B",
"8. c #303655",
"9. c #888787",
"0. c #97C96D",
"q. c #717761",
"w. c #EC5E50",
"e. c #D0D1D0",
"r. c #A1A19F",
"t. c #3A131F",
"y. c #666A75",
"u. c #5A5757",
"i. c #8D8E8C",
"p. c #2E1822",
"a. c #636462",
"s. c #E4759E",
"d. c #7C5A3C",
"f. c #8A2866",
"g. c #4F332C",
"h. c #4C447C",
"j. c #7A9B59",
"k. c #D66194",
"l. c #244A47",
"z. c #339591",
"x. c #944767",
"c. c #C5CBE4",
"v. c #ADAEAE",
"b. c #CC9451",
"n. c #2F7B77",
"m. c #1A2F1F",
"M. c #B4B4B4",
"N. c #7D7C7D",
"B. c #37ABA6",
"V. c #A34F7E",
"C. c #DDDEDA",
"Z. c #346F99",
"A. c #C35887",
"S. c #535254",
"D. c #2C3041",
"F. c #339F67",
"G. c #536842",
"H. c #581C42",
"J. c #F37666",
"K. c #CBC859",
"L. c #325479",
"P. c #AE423C",
"I. c #27405E",
"U. c #BABBB1",
"Y. c #35A5A3",
"T. c #F9F86C",
"R. c #35698E",
"E. c #3A94C4",
"W. c #554D89",
"Q. c #877375",
"!. c #6E4A2F",
"~. c #9ACA76",
"^. c #766B44",
"/. c #F4B765",
"(. c #47986B",
"). c #2B744B",
"_. c #AFD98C",
"`. c #336A69",
"'. c #813430",
"]. c #F9F663",
"[. c #F3574B",
"{. c #2A9F9B",
"}. c #26506D",
"|. c #3C739A",
" X c #E6A6B2",
".X c #4481B9",
"XX c #816468",
"oX c #D1799B",
"OX c #6FAFD8",
"+X c #D5773E",
"@X c #814C2E",
"#X c #D44D45",
"$X c #DE6049",
"%X c #8BB963",
"&X c #ABAA5B",
"*X c #913D3B",
"=X c #EDB669",
"-X c #FAB760",
";X c #4A1538",
":X c #2E5B82",
">X c #3586B9",
",X c #A7A55B",
"<X c #5D5539",
"1X c #683347",
"2X c #803B59",
"3X c #A16184",
"4X c #7A4962",
"5X c #91BEBB",
"6X c #A77489",
"7X c #334451",
"8X c #F285AD",
"9X c #9089B1",
"0X c #9792B0",
"qX c #87CBED",
"wX c #67B88F",
"eX c #DFA24C",
"rX c #E68544",
"tX c #DBD854",
"yX c #92CAAD",
"uX c #B88651",
"iX c #A67B4A",
"pX c #24908B",
"aX c #395E8D",
"sX c #661649",
"dX c #D0EAB9",
"fX c #C6E4AE",
"gX c #743027",
"hX c #698751",
"jX c #809B8D",
"kX c #F5BB65",
"lX c #9E9597",
"zX c #B64D7A",
"xX c #F9948A",
"cX c #87D0CE",
"vX c #F39CC6",
"bX c #F5C783",
"nX c #F9FB88",
"mX c #8A84B7",
"MX c #F49BBB",
"NX c #779FBE",
"BX c #8EA3B9",
"VX c #93BFD6",
"CX c #FCDFAE",
"ZX c #99924B",
"AX c #84AE5F",
"SX c #F1B25C",
"DX c #77A159",
"FX c #FEFFAE",
"GX c #6E9053",
"HX c #7ED0CF",
"JX c #578382",
"KX c #E699B5",
"LX c #8CACD0",
"PX c #874358",
"IX c #8CB1D2",
"UX c #97BBD5",
/* pixels */
"/ & & & & & 8 - & & & & & t m & & & & & y n & & & & & C _ 5 & & & & @ _ p & & & & b G b & & & & p _ @ & & & & 5 _ C & & & & & n ",
"& X . . . > @ y > . . . > 5 t Z . . . Z q 8 . . . . X $ 2   . . . X ! - < . . . . ..= 3 . . . . < - M X . . .   2 $ X . . . . + ",
"5 .       X @ y X       T f l .       . q +         . $ 2 *       . M = <         3 = 3         < - u .       * 2 6 .         + ",
"5 .       X @ y X       T f l .       . q +         . $ 2 *       . M = <         3 = 3         < - u .       * 2 6 .         + ",
"5 .       X @ y X       T f l .       . q +         . $ + X > > > > ! - <         3 = 3         < - u .       * 2 6 .         + ",
"& > X X X > @ y > X X X > 5 t > X X X > q 8 X X X X > q y.= 8 l l 8 2 G < X X X X ..= ..X X X X * - ! Z X X X . # $ > X X X X + ",
"8 @ @ @ @ @ - m @ @ @ @ @ 8 n @ @ @ @ @ / n b b b b p x 0 1 4 0 4 4 4 N C b b b b C G C @ @ @ @ C x y @ @ @ @ @ G / @ @ @ @ @ G ",
"- ; y y y ; m n ; y y y ; - G ; y y ; / z 5.Q B z z z H p.p.F F F F p.[ z j j j j A B m ; y y ; y V t ; y y ; y x 8 ; y y y ; x ",
"& > X X X > @ y > X X X > & t > X Z   x 0 O 1 1 4 4 4 3.3XV.Y Y Y 2X3X4XU 0 0 0 0 0 4 X.< > X X * - ! Z X X X . # $ > X X X X + ",
"5 .       X @ y X       T f l .   3 y.( D D O.O.O.O.1 3.V.V.f.% % f.V.4X1.U p.t.p.p.3.[ - 3     < - u .       * 2 6 .         + ",
"5 .       X @ y X       T f l X c.y 0 D 0X9Xh.h.h.} k t.f.f.% % % f.f.) 9 $.A.A.A.oX XQ.U z . . < - u .       * 2 6 .         + ",
"5 .       X @ y X       T f t < @ B D H 9XmXW.r r } k F Y % % % % % % ) 9 $.k.s s s.vX6X3.X.t M < - u .       * 2 6 .         + ",
"& > X X X > @ y > X X X > 5 / ; ( 4.0X9XW.W.r r r } k F Y % % % % % % ) 9 $.k.s s s k.oX XQ.U x . - ! X X X X . # $ Z X X X X + ",
"t f p p p 5 + = 5 p p p f l = x 4 4.0XmXr r r r r } k F Y % % % % % % ) 9 $.k.s s s s s.vX6X9 B p G C f p p p p _ ; f p p p p n ",
"m l l l l t n G t l l l t m G ^ 4 O.W.W.r r r r r } k F Y % % % % % % ) 9 $.k.s s s s k.k.x.9 Q / V + l l l l l V - l l l l l V ",
"& Z . . . > @ y > . . . > 5 x z 1 O.h.r r r r r r } k F Y % % % % % 7.H.9 $.A.A.s s s s s x.9 5.+ x ! X . . .   # $ Z . . . X + ",
"5 .       X @ y X   Z > c.b ( O O O.h.r r r r r r } k F Y % % % % 7.sX;X9 3.x.zXs s s s k.x.9 1 4 X.3 > > .   * 2 6 .         + ",
"5 .       X @ y X ..; t l A 4.4.4.D.8.} r h.} 8.} D.k F Y % % % % % ) ;X9 p.1X2Xx.V.A.zXx.2XP P P X.8 y / q   * 2 6 .         + ",
"5 .       X @ y > f D 4 4 O.R.<.<.L.k O.h.} k 1 O 1 1 F Y % % % % % % ) 9 1 9 9 9 3.x.1X1.P $Xw.w.'.1.0 0 z T * 2 6 .         + ",
"& X . . . > @ y c.f I 4 D.7X<.g g aXD D 8.8.N N N [ 4 F 7.7.% % % % % ) 9 ( N N N H 1X$.t.gXw.c c P.g.p.O B Z   # $ X . . . . + ",
"y q q q q q l + $ / U ( BXIX.Xg g <.L.I.k 4.M.S S r.U F H.) % % % % % ) 9 S.S S S N.1.t.*XP.[.c c J. XXXO 5.6 q n @ q q q q q m ",
"n 8 8 8 8 8 _ x j 5.D.7XNXOX.Xg g Z.I.8.N u.{ ~ ~ U.S.N 3.H.% % % 7.) $.X.N.~ ~ ~ K N g.'.P.[.c c J.xX;.g.X.z G V = 8 8 8 8 8 V ",
"& T       Z b _ D 4.BXLX.Xg g g g aXk D.M.{ L h *.*.L r.1.t.Y % % ) 1.H %.L *.h *.%.S _ 1.P w.c c c w.J. XXX0 z + $ .       . + ",
"5 .       X b V U ( NXOX.Xg g g <.L.k N { C.h : : : o E 1 F Y % 7.H.9 H ] : : : : ] ~ i.1 P #X[.c c [.J.xX-.O Q # 6 .         + ",
"5 .       X b V U O.|.g g g g <.:XI.1 N ' h : o o o o E O F Y 7.sX;XO N ] o o o : h : r.O t.P.#Xc c c w.w.*X9 Q # 6 .         + ",
"5 .       X b x U 0 I.L.<.g g R.8.8.S.N.L : , o o o : { o.u.H.;Xt.[ a.i.L o o o o : o S u.X.P P.c c [.#X*XP O Q # 6 .         + ",
"& X . . . > p x U O O O.Z.g g :Xk N S ~ h , , o o o o : o v.1 O O X.L : o o , , o o : ' { 9.1.'.w.c c '.9 O O B + $ X . . . . + ",
"C $ 6 6 $ q x z Q 5.I.}.>X>Xg L.1 [ S ~ h , : h L %.r.U.h { o.a.a.i.*.%.r.S ] L h o : ' { 9.1 gX$X$XJ.;.6.6.6.2.B y $ 6 6 6 $ m ",
"_ - - - 2 V 0 4.UXqX=.d d E.<.}.1 [ S ~ h o : *.' S U S.*.h : : h h o S 0 a.C.' h o o ' { 9.1 6.;.+Xw w W W W -.9 X.2 - - - - j ",
"f   * * . ; 0 4.VXqX=.d d d >X:X1 N e.%.h o : %.lXQ.4 S.*.o o o o : o S 0 H i.U.h o : ] C.lX9 6.+XrXw w w w W -.O Q   * * * * + ",
"5 .     Z C 0 D VXqX=.d d d =.|.k H ] h : o : { U O O S.h o o o o o o S 0 O O a.: o : h o E 4 @XW w w w w w W -.O Q .         + ",
"5 .     X C U D OXOX=.d d d d |.k H ] , o o : C.a.u.u.i.h o o o o o : ~ a.u.u.K : o o : o v.4 @XW w w w w w W -.O B .         + ",
"5 .     X C U ( E.d =.d d d =.|.k H ] , o o h *.*.h : : o o o o o o o o o : *.*.: o o o o v.4 @XW w w w w w W -.O B .         + ",
"& T . . > C U ( E.d d d d d E.R.1 H ] , , o : : : ] M.E E E E E E E E E E { : : : o o o o v.4 !.rXrXw w w w W -.O B X . . . . + ",
"@ ! M M ! y 0 ( E.=.=.=.=.d <.}.1 H L , , o o o : e.( 1 1 1 1 1 1 1 1 1 1 o.: : o o o o o v.4 6.;.+XW w w w W -.O Q ! M M M M = ",
"_ - - - - n H D.R.Z.Z.Z.Z.R.}.8.1 H %.] h : o o o e.( U P P P P P P P 3.O o.: : o o : *.] r.4 3.!.-.;.;.;.;.;.d.[ z - - - - - j ",
"p < < < < * @ x ( 1 k k k k k 1 O N S ~ h : o o o e.I $.oXs.s.s.s.s.s.3X1.o.: : o o : ' { 9.4 9 9 9 9 9 9 9 1.B - q < < < < < # ",
"& .       X @ l m B 0 0 l.R R l.+.l.a.9.C.' h : : %.9.XX4XV.8X8X8XoXPX2.N.M.: o : L %.M.o.u.6.!.d.d.d.g.O N G & # 6 .         + ",
"5 .       X @ y c.q ( I z.B.Y.z.n.R 4 [ S ~ h o h h o E 9 $.KXMXMX6X1.H ] : h : o ' { 9.1 [ iXb./.-XkX,.O z c.X 2 6 .         + ",
"5 .       X @ 8 m y.B `.{.a a {.pXn.+.7Xo.9.C.' h h : e.N.Q.2.2.2.XX^ K L h h L %.M.o.2.6.d.b.eXe e e uXd.2.y.y # 6 .         + ",
"& .       X b G I D 5XcXB.a a a a {.n.R 4 [ U.~ h o h h o v.9 O O X.L : h : , ' { N.1 [ iXb.e e e e e e /.,.O B + $ .         + ",
"b ..3 3 3 ..C V U D 5XHXB.a a a a {.pX`.4 D jXjXi.r.] : : e.^ j o.K L : : e.i.r.U.q.1 g.b.eXe e e e e e -X,.O Q - q ..3 3 3 3 - ",
"G = = = = = x z 0 D 5XcXB.a a a a Y.B.n.0 I R R 4 [ ' o , , o o o o o o o K O ` &X^.O 6.=X/.e SXe e e e -X,.O H j n = = = = = j ",
"b 3 3 3 3 ..C - A Q j JXY.a a a a z.`.R #.R :.).+.` i.K K K K K K K K K K N.` &.K.,X>.^.,.uXSXe e e e b.,.2.B t - q 3 3 3 3 3 - ",
"& .       X @ y c.b I I z.a a a B.n.0 m.(.| 7 F.).R 0 O O O O O O O O O O ` &XK.].]. .,X9 6.=Xe e e /.,.O z > . 2 $ .       . + ",
"5 .       X @ y > p I I z.a a z.`.R +.R F.7 7 F.:.).0 I +.` #.#.#.` +.m.1 <XK.tX].].v K.>.^.,.b.e kXbX,.O z Z * 2 6 .         + ",
"5 .       X @ y > & ( I z.Y.Y.n.0 m.(.| 7 7 7 7 7 :.0 m.hXDX~.~.~.%XGXG.4 >. .J ].J J ]. .&X1.d.=XbXCXQ.O z X * 2 6 .         + ",
"& .       X @ y Z 3 = A l.l.l.l.R ).F.7 7 7 7 7 7 :.0 +.AX%Xi i i 0.%XhX4 >. .v ].J J J ].tXZX^.!.<X2.o._ f . * 2 6 .         + ",
"p < < < < < C / < < . & ( O O m.(.| 7 7 7 7 7 7 7 :.0 ` 0.@.i i i i @.j.4 >. .v v J J J J v  .&.O O O z X < < ..- q < < < < < # ",
"G = = = = = x V = = = m B H 4 +.wXwX| 7 7 7 7 7 7 :.0 ` 0.i i i i 0.@.j.4 >. .J ].J J J ].T.nX&.O D 5.V = = = = j n = = = = = j ",
"@ M u u u ! y l ! u u M 3 C I +.yXyX| | 7 7 7 7 7 :.0 ` 0.i i i i i @.j.4 >. .J J J J ].T.nXFXq.O X.$ ! u u u u = & M u u u u = ",
"& X . . . Z @ y Z . . . X f y.y.B R #.R F.7 7 7 7 :.0 ` 0.i i i i i @.j.0 >.T.J J J v K.&.&.q.o.V V ! . . . .   2 $ . . . . . + ",
"5 .       X @ y X       T f y ; 0 O O m.(.| | | | :.0 ` 0.i i 0.i i @.j.0 >. . .T.T. .,X4 O O V > - u .       * 2 6 .         + ",
"5 .       X @ y X       T f t 3 = Q 4 I #.#.#.#.#.+.4 ` _._._._.@.i @.j.0 N &.&.&.&.&.<X1 4.x & < - u .       * 2 6 .         + ",
"5 .       X @ y X       X f l X c.; 0 O O O O O O O O 5.fXdXdXfX~.@.@.j.0 O O O O O O O O 5.X . < - u .       * 2 6 .         + ",
"5   * * * . @ y . * * * . p l     $ x A z Q ^ j j A A ^ q.q.q.q.G.G.G.G.z A A A A y.5.A j t * * ..= u   * * * < 2 6   * * * * + ",
"_ # # # # + G x + # # # # _ V # # # 8 8 m V 8 8 8 8 8 A 4 O O O O O O 4.= 8 8 8 8 2 j 2 8 + # # - j = # # # # 2 j m # # # # # ^ ",
"C $ $ $ $ $ / 8 $ $ $ $ $ C 2 $ $ $ $ $ @ = $ $ $ $ $ @ B A A A j j A y.q $ $ $ $ q n q $ $ $ $ q n & $ $ $ $ 6 m p $ $ $ $ $ = ",
"& X . . . > @ y > . . . Z 5 t X . . . X q 8 . . . . X $ + X > > > > 3 - < . . . . ..= 3 . . . . < - M . . . .   2 $ X . . . . + ",
"5 .       X @ y X       T f l .       . q +         . $ 2 *       . M = <         3 = 3         < - u .       * 2 6 .         + ",
"5 .       X @ y X       T f l .       . q +         . $ 2 *       . M = <         3 = 3         < - u .       * 2 6 .         + ",
"5 .       X @ y X       T f l .       . q +         . $ 2 *       . M = <         3 = 3         < - u .       * 2 6 .         + ",
"5 .       X @ y X       X f l .       . q 8 .       . $ 2 *       . M = <         3 = 3         < - u .       * 2 6 .         + ",
"n + # # # + G x + # # # + _ V + # # # + n V # # # # + m j # # # # + = j - # # # # - j - # # # # 2 j = + # # # # j m + # # # # ^ "
};
