/* XPM */
static char *_2d7fd576c274004a25339417653efa2pvPut9VH0Y4Ugylu[] = {
/* columns rows colors chars-per-pixel */
"64 64 13 1 ",
"  c #C1C7E0",
". c #BFC5DE",
"X c #868A9B",
"o c #8B8FA0",
"O c #A7ADC2",
"+ c #B0B6CC",
"@ c #BAC0D8",
"# c #9499AB",
"$ c #B5BBD2",
"% c #9FA4B8",
"& c #7F8393",
"* c #6E717F",
"= c #767A89",
/* pixels */
"#OOOOOoXOOOOO#XOOOOO#&OOOOO%&OOOOO%&OOOOO%=%OOOOO&%OOOOO&%OOOOO&",
"O ... %# ... O# ... Oo.... +o.... $X@....@X@.....X$ ....o+ ....o",
"O.... %# ... O#.....+o.....+o.....$X@....@X@....@X$.....o+.....o",
"O.... %# ....O#.....Oo.....+o.....$X@....@X@....@X$.....o+.....o",
"O.... %# ... O#.....Oo.....+o.....$X@....@X@....@X$.....o+.....o",
"O     %#     O#     +o     +o.    $X.    @X@    .X$    .o+     o",
"o%%%%%XX%%%%%o&%%%%%#&%%%%%#=%%%%%#=%%%%%%=%%%%%%=#%%%%%=#%%%%%=",
"X#####X&#####X=#####o=#####o=######=######=######=######=o#####=",
"O     %#     O#     +o     $o.    $X.    @X@    .X$    .o+     o",
"O.... %# ... O#.....Oo.....+o.....$X@....@X@....@X$.....o+.....o",
"O.... %# ... O#.....Oo.....+o.....$X@....@X@....@X$.....o+.....o",
"O.... %# ....O#.....+o.....+o.....$X@....@X@....@X$.....o+.....o",
"O     %#     O#     +o     +o.    $X.    @X@    .X$    .o+     o",
"#OOOOOoXOOOOO#&OOOOO#&OOOOO#&%OOOO%=%OOOO%=%OOOO%=%OOOOO&#OOOOO&",
"&#o#o#&=#o#o#&=#o#o#X=#o#o#X*#o#o#o*o#o#oo*o#o#oo*o#o#o#*X#o#o#*",
"O ... %# ... O# ... Oo ... +o.... $X.... @X@ ....X$ ....o+ ... o",
"O.... %# ... O#.....Oo.....+o.....$X@....@X@....@X$.....o+.....o",
"O.... %# ....O#.....+o.....+o.....$X@....@X@....@X$.....o+.....o",
"O.... %# ... O#.....Oo.....+o.....$X@....@X@....@X$.....o+.....o",
"O ... %# ... O# ... Oo ... +o.... $X.....@X@ ....X$ ....o+ ....o",
"#OOOO+#o+OOO+#X+OOO+%&OO+OO%&OO+OO%&OO+O+O&OOO+OO&%OO+OO&%OO+O+&",
"&ooooo&=ooooo&=ooooo&=oooooX*oooooX*oooooo*oooooo*Xooooo*Xooooo*",
"O . . %# ..  O# . . Oo. ...+o.. . $X@. ..@X@. ..@X$. . .o+.....o",
"O.... %# ....O#.....+o.....+o.....$X@....@X@....@X$.....o+.....o",
"O.... %# ... O#.....Oo.....+o.....$X@....@X@....@X$.....o+.....o",
"O.... %# ....O#.....+o.....+o.....$X@....@X@....@X$.....o+.....o",
"O ... %# ... O# ... Oo.... +o.....$X@....@X@.....X$.....o+ ....o",
"%+++++#o+++++#o+++++%X+++++%&+++++O&+++++O&O+++++&O+++++&%+++++X",
"&XXXXo==oXXXo&*oXXXX&*XXXXX&*XXXXXX*XXXXXX*XXXXXX*XXXXXX*&XXXXX*",
"O.....%#.....%#.....Oo.....+X.....$X@....@X$....@X$.....X+.....o",
"O.... %# ... O#.....Oo.....+o.....$X@....@X@....@X$.....o+.....o",
"O.... %# ....O#.....+o.....+o.....$X@....@X@....@X$.....o+.....o",
"O.... %# ... O#.....Oo.....+o.....$X@....@X@....@X$.....o+.....o",
"O ... %# ... O# ... Oo.....+o.....$X@....@X@....@X$.....o+.....o",
"%$$$$$##$$$$$%o$$$$$%X$$$$$OX$$$$$+&+$$$$+&+$$$$+&O$$$$$XO$$$$$X",
"&XXXXX==XXXXX&*XXXXX&*XXXXX&*XXXXX&*XXXXXX*XXXXXX*&XXXXX*&XXXXX*",
"O.@@@.%#.@@@.%o.@@@.Oo@@@@@+X@@@@@+X@@@@@$X$@@@@@X+@@@@@X+@@@@@o",
"O.... %# ... O#.....Oo.....+o.....$X@....@X@....@X$.....o+.....o",
"O.... %# ... O#.....Oo.....+o.....$X@....@X@....@X$.....o+.....o",
"O.... %# ....O#.....+o.....+o.....$X@....@X@....@X$.....o+.....o",
"O.... %# ... O# ... Oo.....+o.....$X@....@X@....@X$.....o+.....o",
"%@@@@@%#@@@@@%o@@@@@Oo@@@@@OX@@@@@+X$@@@@$X+@@@@$X+@@@@@XO@@@@@X",
"=XXXXX==XXXXX=*XXXXX&*XXXXX&*XXXXX&*XXXXX&*&XXXXX*&XXXXX*&XXXXX*",
"%@@@@@##@@@@@%o@@@@@Oo@@@@@OX$@@@@+X$@@@@+&+@@@@$X+@@@@$XO@@@@@X",
"O.... %# ... O# ... Oo.....+o.....$X@....@X@....@X$.....o+.....o",
"O.... %# ....O#.....+o.....+o.....$X@....@X@....@X$.....o+.....o",
"O.... %# ... O#.....Oo.....+o.....$X@....@X@....@X$.....o+.....o",
"O.... %# ....O#.... Oo.....+o.....$X@....@X@....@X$.....o+.....o",
"O@@@@.%#.@@@.%o.@@@.Oo@@@@@+X@@@@@+X@@@@@$X$@@@@@X+@@@@@X+@@@@@o",
"=XXXXX==XXXXX=*XXXXX&*XXXXX&*XXXXX&*XXXXXX*&XXXXX*&XXXXX*&XXXXX*",
"%$$$$$##$$$$$%o$$$$$%X$$$$$OX$$$$$O&+$$$$+&+$$$$+&O$$$$$XO$$$$$X",
"O ... %# ... O# ... Oo.....+o.....$X@....@X@....@X$.....o+.....o",
"O.... %# ... O#.....+o.....+o.....$X@....@X@....@X$.....o+.....o",
"O.... %# ....O#.....Oo.....+o.....$X@....@X@....@X$.....o+.....o",
"O.... %# ... O#.....Oo.....+o.....$X@....@X@....@X$.....o+.....o",
"O.....%#.....%#.... Oo.....+X.....$X@....@X$....@X$.....o+.....o",
"&ooooo==ooooo&=ooooo&*ooooo&*oooooX*XooooX*XooooX*Xooooo*&ooooo*",
"%+++++#o+++++#o+++++%X+++++O&+++++O&+++++O&O+++++&O+++++X%+++++X",
"O ... %# ... O# ... Oo.... +o.....$X@....@X@.....X$.....o+ ....o",
"O.... %# ....O#.....+o.....+o.....$X@....@X@....@X$.....o+.....o",
"O.... %# ... O#.....Oo.....+o.....$X@....@X@....@X$.....o+.....o",
"O.... %# ....O#.... Oo.....+o.....$X@....@X@....@X$.....o+.....o",
"O.... %# ... O#.....Oo.....+o.....$X@....@X@....@X$.....o+.....o",
"&ooooo==ooooo&=ooooo&*oooooX*oooooX*XooooX*Xooooo*Xooooo*&ooooo*"
};
