/* XPM */
static char *_d0f38802f954677d9c49e7227e2ac7b3rUmV8EBMQzKiW9o[] = {
/* columns rows colors chars-per-pixel */
"64 64 256 2 ",
"   c #47704C",
".  c #36292C",
"X  c #332A2E",
"o  c #111017",
"O  c #28100B",
"+  c #210C08",
"@  c #2E1A22",
"#  c #16081B",
"$  c #140C09",
"%  c None",
"&  c #271008",
"*  c #5E3C4F",
"=  c #251007",
"-  c #0D0B0C",
";  c #080D19",
":  c #16151C",
">  c #281920",
",  c #241C23",
"<  c #362027",
"1  c #110D15",
"2  c #030C18",
"3  c #020E1B",
"4  c #090B03",
"5  c #1D060D",
"6  c #653D53",
"7  c #63374F",
"8  c #2E130A",
"9  c #151114",
"0  c #29191B",
"q  c #5F394E",
"w  c #9F8694",
"e  c #1C0109",
"r  c #21110F",
"t  c #020E1C",
"y  c #08101E",
"u  c #7C5A6E",
"i  c #6F435B",
"p  c #181114",
"a  c #29130B",
"s  c #29140D",
"d  c #381A0F",
"f  c #2A1816",
"g  c #050B13",
"h  c #63384F",
"j  c #724E62",
"k  c #1B0415",
"l  c #361C0F",
"z  c #291108",
"x  c #6E3422",
"c  c #3E292A",
"v  c #0B111F",
"b  c #170E15",
"n  c #2C1309",
"m  c #0A0F17",
"M  c #673852",
"N  c #633B51",
"B  c #6A475A",
"V  c #E4DDE1",
"C  c #5E2E1D",
"Z  c #472211",
"A  c #AA95A1",
"S  c #5B2D1A",
"D  c #6E3F34",
"F  c #61384F",
"G  c #653750",
"H  c #907785",
"J  c #696B74",
"K  c #D8CDD2",
"L  c #4F2F46",
"P  c #8D697B",
"I  c #7E6071",
"U  c #846274",
"Y  c #DCB999",
"T  c #A4522B",
"R  c #020912",
"E  c #DDBA9A",
"W  c #01060F",
"Q  c #A5532D",
"!  c #A1553E",
"~  c #08111E",
"^  c #482013",
"/  c #38170E",
"(  c #1E010B",
")  c #9E4F2C",
"_  c #271D23",
"`  c #1F081C",
"'  c #A3563F",
"]  c #654144",
"[  c #0B101B",
"{  c #DEBB9B",
"}  c #7C4538",
"|  c #CF9A81",
" . c #5F2E1A",
".. c #9C533F",
"X. c #A1512D",
"o. c #42292E",
"O. c #DAB192",
"+. c #C0DAEA",
"@. c #793C23",
"#. c #6A3521",
"$. c #BBA086",
"%. c #5A2A16",
"&. c #944B2A",
"*. c #2B1714",
"=. c #5E3932",
"-. c #2E2E36",
";. c #2B1B18",
":. c #3B3E3C",
">. c #A3553F",
",. c #421812",
"<. c #99533E",
"1. c #874A3B",
"2. c #98816E",
"3. c #270D12",
"4. c #0C0D07",
"5. c #191B13",
"6. c #2F120A",
"7. c #010C19",
"8. c #1B0B08",
"9. c #DBB697",
"0. c #884428",
"q. c #593430",
"w. c #D1B294",
"e. c #856F5E",
"r. c #A28570",
"t. c #D0A186",
"y. c #483634",
"u. c #16161F",
"i. c #2D1A2E",
"p. c #CFB99E",
"a. c #56514A",
"s. c #311921",
"d. c white",
"f. c #8F492A",
"g. c #9C7062",
"h. c #64544F",
"j. c #1E2020",
"k. c #0C1814",
"l. c #CCA88C",
"z. c #914E3C",
"x. c #D1AD90",
"c. c #0E1521",
"v. c #2B4A30",
"b. c #25080D",
"n. c #5A6737",
"m. c #6C9C7C",
"M. c #C3C6C9",
"N. c #253F28",
"B. c #393334",
"V. c #7DA03B",
"C. c #522718",
"Z. c #9C512D",
"A. c #974D2C",
"S. c #673C32",
"D. c #D7BC9E",
"F. c #2A2125",
"G. c #D7BFA0",
"H. c #4F2E2C",
"J. c #AC8C75",
"K. c #5F5953",
"L. c #1B362C",
"P. c #352B2D",
"I. c #594B4A",
"U. c #63A862",
"Y. c #539155",
"T. c #F9F9F9",
"R. c #5C9660",
"E. c #674744",
"W. c #191B22",
"Q. c #352224",
"!. c #4B7A4E",
"~. c #3F4349",
"^. c #361D2B",
"/. c #ACA6B1",
"(. c #B7C9D2",
"). c #B9C1BC",
"_. c #674439",
"`. c #725D51",
"'. c #78798B",
"]. c #D6B597",
"[. c #937A6A",
"{. c #8D6858",
"}. c #A37669",
"|. c #D5A58A",
" X c #2C201D",
".X c #37251A",
"XX c #C3A38A",
"oX c #202637",
"OX c #B88673",
"+X c #578C59",
"@X c #522723",
"#X c #0E0607",
"$X c #555E37",
"%X c #AD9C95",
"&X c #609F5F",
"*X c #DDD4D8",
"=X c #A88F9C",
"-X c #528655",
";X c #E2BF9E",
":X c #774D44",
">X c #426C44",
",X c #B9977F",
"<X c #AF937C",
"1X c #635044",
"2X c #774337",
"3X c #385D3C",
"4X c #62A461",
"5X c #A7B0BC",
"6X c #B3917A",
"7X c #8C888B",
"8X c #8E909C",
"9X c #B9D2E2",
"0X c #18271F",
"qX c #89B23C",
"wX c #484F5C",
"eX c #8B7681",
"rX c #A29AA0",
"tX c #BBA9B3",
"yX c #EEEBED",
"uX c #172B1C",
"iX c #ABB3A1",
"pX c #B1B7C0",
"aX c #395240",
"sX c #795F4E",
"dX c #734034",
"fX c #7D584B",
"gX c #447047",
"hX c #393017",
"jX c #538D55",
"kX c #86AE9F",
"lX c #7A6556",
"zX c #8FBD3D",
"xX c #5B596E",
"cX c #95CA3B",
"vX c #9CC0BA",
"bX c #72903A",
"nX c #646469",
"mX c #21121D",
"MX c #AD9E98",
"NX c #B4BED0",
"BX c #416342",
"VX c #DBD9DB",
"CX c #C7D2D7",
"ZX c #89AE3B",
"AX c #63311E",
"SX c #835F53",
"DX c #C7947B",
"FX c #86818B",
"GX c #616C30",
"HX c #71A47E",
"JX c #BBB6C2",
"KX c #69687D",
"LX c #B6A799",
"PX c #77953C",
"IX c #679D72",
"UX c #8BAC45",
/* pixels */
"                                                                                                                                ",
"                                                                                                                                ",
"                                                                                                                                ",
"                                                                                                                                ",
"                                                                                                                                ",
"                                                                                                                                ",
"                                                                                                                                ",
"                              . * * * ,                                                       . * @                             ",
"                              @ h 7 7 q                                                       @ h F                             ",
"                          X q j w =Xw I 6 6 <     1 ; ; ; o o o o o o o o o ; 9 ,       * 6 6 j w H 6 *                         ",
"                            N u V T.T.eXi i 6 , , ; ~ ~ ~ [ [ [ [ [ [ [ [ [ ~ v m , > , B i i u yXtXM q                         ",
"                            * B U tXd.V *X*XJ 2 2 c } } } } } } } } } } } } } D y 2 y L P K *XVXd.tXM q                         ",
"                              * 7 =Xd.d.yXM.nX_ _ q.' >.>.>.' ' ' >.>.1.1.! ' z.Q._ F.o.u T.d.T.*XA G <                         ",
"                              * 7 =Xd.d.).W.=...<...>.! ! ! ! ! ! ! <. XQ.<.! ! ....z._ wXT.d.yXu N : X                         ",
"                              * 7 =XT.8XK.=.1.>.! >...H.q...! ! ' dXo.`.`.o.2X' ' 2Xo.q.E.nXeXw j q                             ",
"                              * h w VX~.Q.! >.! ! <.1.P.P.1.<.! ' q.~ r.2.~ =.! z.=.j.2XdXu.o.7 *                               ",
"                              . > 0 oX_.z.! ! ! ' S.j.[.[.W.S.' ' q.~ r.2.~ =.z._ I.6XB.Q.1.o.v $                               ",
"                    : 9 9 .   > o f H.1.' ! ! ! ' =.c.J.r.~ =.' ' q.~ r.2.~ =.z.[ a.t.-._ ..S.c b r     < ; 1                   ",
"                    > 2 3 @ : m t o.......<.<.<...q.c.J.r.~ =.....q.~ r.2.~ =.1.c.a.t.-._ z...1.u.# , : p g ;                   ",
"                    . 1 o 3 3 y g c._ _ _ _ _ _ F.u.c.J.r.~ u._ _ u.~ r.2.~ u._ 7.I.t.-.~ F.F._ ~ t 2 y # p $                   ",
"                        1 3 t c.B.~.~.L.L.L.L.L.~ 7.~ lXe.~.:.:.:.:.~.<X<X~.:.:.:.e.l.B.7.7.7.7.7.t 3 3 - X                     ",
"                        X : # oXrX).9Xm.jX4X4X+Xk.R R R B.w.p.p.p.p.p.D.D.p.p.p.].Y w.P.W R R R R - : : :                       ",
"                            # i.MXM.+.m.Y.U.gXN.[ R R W W.a.a.a.a.2.G.D.D.G.G.x.`.1XI.u.W #X#X#X#X-                             ",
"                            # i.%XM.+.m.Y.U.v.W R R R W.j.oX[ W W K.G.E D.D.G.$.5.4.k.R [ F.F.F.4.-                             ",
"                            # i.%XM.+.m.Y.U.v.W R R [ './.(.wXW W K.G.E Y Y { $.5.N.+X0X-.rXpX5Xj.-                             ",
"                            # i.%XM.+.m.Y.U.v.W R R [ 7XJX(.wXW W K.D.E Y Y { $.5.v.&XuX-./.NX5Xj.-                             ",
"                            # i.%XM.+.m.Y.U.v.W R R [ FX/./.~.W W h.E Y Y Y { $.5.v.&XuX-.rX/.8X5.-                             ",
"                            # i.MXM.+.m.Y.U.v.W R R R oX-.-.c.R W h.E Y Y Y { $.5.N.-X0X8.P.P.P.4.-                             ",
"                            # i.eX5X+.kXIX&X3X0X7.R R W W W W [ -.e.E Y Y Y { $.5.N.-XN.j.#X#Xg 2 o                             ",
"                            # ` ` KX+.+.vX+XR.+Xk.W R R R R W W.$.9.Y Y Y Y { $.5.N.-X-XBX4.#X4 < X                             ",
"                            1 ; k -.xXNX9XvXHXjXgX>X>X>XaXR I.2.w.E Y E E Y E w.2.K.N.!.!.3XuX4 $                               ",
"                              @ 5 k ` 8X9X+.kXR.4X&XR.R.!.j.2.;XY Y Y l.l.Y Y Y ;X[.j.BX!.!.L.4 $                               ",
"                              X > 0 ` i.xX+.+.(.R.3Xk.k.:.$.w.Y Y { 9.S._.9.{ Y Y w.$.B.k.k.4.4 $                               ",
"                              , 9 f 3.^ ] '.'.'.aXa.h.h.e.9.E Y E ,X{.fXfX{.,XE Y E ].lXy.4.4.4 $                               ",
"                              + & 6./ 0.@.` ` ` ` h.E E E E E Y { {.6.6XJ.6.g.{ Y Y 9.t.g.4.8.n +                               ",
"                              + & C.0.) @.` E.}.}.OXt.O.E E E E { XXJ.x.x.J.l.9.|.|.t.E.H.@.^ & +                               ",
"                              + &  .Q Q 0.^ :X}.g.OX| x.O.O.O.O.O.O.O.O.O.O.O.l.}.g.g.H.@XX.%.& $                               ",
"                              + &  .Q T T Z.@X` ` E.| | | | | | | | | | | | | OXs.` 3.% X.T %.= $                               ",
"                              + &  .Q T T Q %  .` ^.] ] ] ] ] ] ] ] ] ] ] ] ] ] #.#.x &.T T %.= $                               ",
"                              + &  .Q T ) f.f.0.o.^.^.` ` mX;. X X;.mX` ` ^.^.o.0.A.Q T T T %.= $                               ",
"                              + &  .Q Q % 3.8..X,Xl.XXo.*.$XbXqXqXbX$X*.H.XXl.6X;.%.Q T T T %.= $                               ",
"                              + &  .X.@.S.1X1XsXw.$.e.s.;.n.V.cXcXV.n.;.H.|.9.x.`._.#.&.T X.%.= $                               ",
"                              + &  .Z./ y.].{ E { e.#X( ;.$XV.zXzXPX$X;.@XOX|.Y { e.8.% Q X.%.n < .                             ",
"                              + &  .Z./ y.].E E ;Xe.#X( b.*..XhXhX.X*.b.3..Xg.t.t.SX8.% Q T &.% d o                             ",
"                              + &  .Z./ y.x.9.w.<XsX/ b.( ( ( ( ( ( ( ( b./ :Xg.g.:X,.0.Q T Q &./ s                             ",
"                              + &  .Z./ H.DXx.XX XC.A./ ( ( ( ( ( ( ( ( ,.A.C.8.8.C.Z.X.T T T &./ s                             ",
"                              + =  .X.@.#.=._.E.#.% Q [.7X7Xy.3.GXn.:.3.,.X.% #.#.AX%.&.T T T ) @.C s <                         ",
"                              + 5 S &.T % 3.8.6.&.Q Q LX).).I.*.qXV.n.;.,.) Q Q Q @.,.% A.T T T Q @.8 p >                       ",
"                              X @ 0 ,.0.X.f.C./ &.Q ) @Xs.s.b.*.ZXV.n.;.,.) T T T ) f.^ C.X.Q Q T ) &.Z l .                     ",
"                                  o 6.% Q Q @. .#.% ) / *.h.Q.*.ZXV.n.;.,.) T T T T Z.^ / #.#.@.) 0.#./ a .                     ",
"                                  o 8 % X.Z.X.f./ %.A./ o.iXI.*.UXV.n.;.,.A.) Z.) ) A.^ z 8 z / f.x 8 8 f .                     ",
"                                  @ r d ^ ^ ^ ^ 6./ ^ b.3.y.*.s.iX).iXB.b.^ ^ ^ ^ ^ ^ 6.d r O 6.^ l 1 r <                       ",
"                                      0 O O O O O O O O 5 5 4 s.pXCXM.y.k O O O O O O O 0   o a a 9                             ",
"                                      X . . . . . . . . . X # s.pXCXM.y.5 , . . . . . . .   . : . X                             ",
"                                                            # 3.I.K.h.s.5 .                                                     ",
"                                                            b e e e e e - .                                                     ",
"                                                            > @ @ @ @ @ >                                                       ",
"                                                                                                                                ",
"                                                                                                                                ",
"                                                                                                                                ",
"                                                                                                                                ",
"                                                                                                                                ",
"                                                                                                                                ",
"                                                                                                                                "
};
