/* XPM */
static char *dbcfa354841746b1a99e8d86ffca89ccs4cbCC9tIbpEU1PW[] = {
/* columns rows colors chars-per-pixel */
"64 64 126 2 ",
"   c #BFC5DD",
".  c #C0C6DE",
"X  c #C1C7DF",
"o  c #878B9C",
"O  c #9FA4B8",
"+  c #898D9E",
"@  c #979CAF",
"#  c #8A8FA0",
"$  c #BEC4DC",
"%  c #858A9A",
"&  c #DDBA9A",
"*  c #A6ABC0",
"=  c #BCC2DA",
"-  c #634D4C",
";  c #B0B5CB",
":  c #C2C8E1",
">  c #5F4D52",
",  c #B6BCD3",
"<  c #B5BAD2",
"1  c #020810",
"2  c #BAC0D8",
"3  c #ABB0C6",
"4  c #B0B6CC",
"5  c #C0C6DF",
"6  c #1E0710",
"7  c #8D92A4",
"8  c #36323A",
"9  c #A4AABE",
"0  c #191D2A",
"q  c #5E4F56",
"w  c #231518",
"e  c #B2B7CE",
"r  c #070D19",
"t  c #A6ACC1",
"y  c #9196A8",
"u  c #B9BFD6",
"i  c #53464B",
"p  c #838898",
"a  c #A8ADC2",
"s  c #9095A7",
"d  c #7A7E8D",
"f  c #767A89",
"g  c #2C2C37",
"h  c #8C90A2",
"j  c #7E8292",
"k  c #6E717F",
"l  c #554349",
"z  c #BDC3DB",
"x  c #2B1A1F",
"c  c #6E7484",
"v  c #818595",
"b  c #725D57",
"n  c #596074",
"m  c #0D121C",
"M  c #737785",
"N  c #0D1326",
"B  c #1E2534",
"V  c #222021",
"C  c #5A494D",
"Z  c #3F424D",
"A  c #B78878",
"S  c #ADB2C8",
"D  c #585964",
"F  c #9A9FB3",
"G  c #3A2C30",
"H  c #646775",
"J  c #241023",
"K  c #C9A38A",
"L  c #4D3C40",
"P  c #343D71",
"I  c #433331",
"U  c #3A3744",
"Y  c #6A6D7B",
"T  c #351A28",
"R  c #322428",
"E  c #371C1A",
"W  c #BCC1D9",
"Q  c #72524D",
"!  c #806659",
"~  c #5A4445",
"^  c #BEA58F",
"/  c #101622",
"(  c #D8AA8C",
")  c #C4D6EA",
"_  c #D6BE9F",
"`  c #9CA2B5",
"'  c #A4A7B8",
"]  c #D7B798",
"[  c #4B2E2D",
"{  c #2C2B47",
"}  c #433D45",
"|  c #5567B9",
" . c #414F80",
".. c #3D3958",
"X. c #262342",
"o. c #969AAD",
"O. c #9EA3B7",
"+. c #786B6D",
"@. c #5D6A96",
"#. c #D3AF94",
"$. c #C0BDBB",
"%. c #C3AC94",
"&. c #9297A9",
"*. c #2D3261",
"=. c #4D4953",
"-. c #4857AE",
";. c #C8A791",
":. c #B19280",
">. c #0E0708",
",. c #9498AB",
"<. c #857568",
"1. c #5262A9",
"2. c #B8987F",
"3. c #6E6569",
"4. c #B6B3BD",
"5. c #2C3D4C",
"6. c #7B8FCC",
"7. c #A77B6D",
"8. c #899CCE",
"9. c #455872",
"0. c #B1C0CB",
"q. c #C8D4D7",
"w. c #6778C0",
"e. c #7B8ECB",
"r. c #7C8EC9",
"t. c #A29892",
/* pixels */
",.t t t t a 7 o a t t t a &.p a t t t a @ j t t t t t F j * t t t t O d 9 t t t t ' d ' t t t t 9 d O.t t t t * j F t t t t t j ",
"t X . . . : O @ : . . . : * y X . . . X 3 h 5 . . . X e +   . . . X , o = . . . . 2 % u 5 . . . z o < X . . .   + 4 X . . . . h ",
"* .       X O o.X       X 9 s 5       . 3 h         . 4 + $       . < % W         u % u         = o < .       $ + ; .         # ",
"* .       X O o.X       X 9 s 5       . 3 h         . 4 + $       . < % W         u % u         = o < .       $ + ; .         # ",
"* .       X O o.X       X 9 s 5       . 3 h         . 4 + $       . < % =         u % u         = o < .       $ + ; .         # ",
"a : X X X : O @ : X X X : * y : X X X : S 7 X X X X X e #   X X X X , o z X . X X 2 % 2 X X X X $ o , X X X X . + e : X X X X h ",
"7 O O O O O o p O O O O O h j O O O O O s d O O O F Y D =.n % ' O O @ D n n n o ' F f F O O O O ` f @ O O O O O.d ,.O O O O O d ",
"o @ @ @ @ F p j @ @ @ @ @ o d @ @ @ @ @ # f @ @ h d Z g g 8 H % o.7 d U 8 8 8 H % y M ,.@ @ @ @ o.M y @ @ @ @ @ f 7 @ @ @ @ @ f ",
"a : X X X : O @ : X X X : t y : X X X : S 7 X : M Z 3 a p < k Z < f U M e < , c Z S o 2 X X X X $ o , X X X X . + e : X X X X h ",
"* .       X O o.X       X 9 s 5       . 3 h   . O h = e +   O j Y d v v z . 5 ' h < % u         = o < .       $ + ; .         # ",
"* .       X O o.X       X 9 s 5       . 3 h     5 X . 4 + $ : S B f 2 o W     5 : u % u         = o < .       $ + ; .         # ",
"* .       X O o.X       X 9 s 5       . 3 h         . 4 + $ . 3 B f , % W         u % u         = o < .       $ + ; .         # ",
"a : X X X : O @ : X X X : * y : X X X : S 7 X X X X : e # . : S B f u o z X X X X 2 % 2 X X X X z o , X X X X . + e X X X X X h ",
"y 9 9 9 9 * h % * 9 9 9 9 s v 9 9 9 9 9 o.j 9 9 ' O.O ,.f ` O 7 B H @ M F O 9 9 9 O d O 9 9 9 9 ' d ` 9 9 9 9 9 d F 9 9 9 9 9 j ",
"v s s s s y j d y s s s y v f y s s s y % M &.,.D 0 0 0 0 0 0 0 m / 0 0 0 8 + &.y 7 c h s s s s 7 c # s s s s s c o s s s s s M ",
"t X 5 5 5 : O @ : 5 5 5 : * y : 5 5 5 : ; H n H =.8 8 8 8 8 8 8 8 8 8 8 8 } n n c e o 2 X 5 5 5 z o , X 5 5 5   + e X 5 5 5 X h ",
"* .       X O o.X       X 9 s 5       z ` Z / / U - - - - - - - - C i - - i 0 m g o.v u         = o < .       $ + ; .         # ",
"* .       X O o.X       X 9 s 5     X ; U 8 C i C - - - - - - - > G w i - - C C i g D z .       = o < .       $ + ; .         # ",
"* .       X O o.X       X 9 s .   X s n U l - - - - - - - - - C g C b 8 L - - - C I Z c , .     = o < .       $ + ; .         # ",
"t X . . . : O @ : . . . : * y : z ; n w l ~ ~ ~ ~ ~ ~ ~ ~ ~ C l m ! 2.V g i - - - > G g F , X . z o , X . . .   + 4 X . . . 5 h ",
"@ 3 3 3 3 S s # S 3 3 3 S o.% ; ` U U l R x x x x x x x x x I i m b 2.V N 0 i - - - C i g c S 3 a j ' 3 3 3 3 3 j O 3 3 3 3 3 v ",
"v 7 7 7 7 7 d f 7 7 7 7 7 j f H Z 8 l ~ x w w w w w w w w x I i / b K <.8 m i L G G G G m D 7 7 h k o 7 7 7 7 h c % 7 7 7 7 7 c ",
"t X       X O @ X       X * &.n m } i L x w w w w w w w w w G } m b ( #.! R L G w w w w r c : . = o < .     .   + 4 5       . h ",
"* .       X O o.X       X 9 ,.H r m / / r r r r r r r r r r m / r b ( #.K A R m r r r r r c :   = o < .       $ + ; .         # ",
"* .       X O o.X       X 9 n Y Y d 9.P P P P N r r r r r r Z <.<.:.] ] ] %.<.} m 5.B r r Z M < = o < .       $ + ; .         # ",
"* .       X O o.X       X O B +.$.) 6.-.| 1. .N 1 1 1 1 1 1 b %._ _ _ _ _ _ %.b 0 9.{ 1 1 1 V 3 z o < .       $ + ; .         # ",
"t X . . . : O @ : . . . : O 0 +.$.) e.-.| P N r 1 1 1 1 1 1 m 8 %._ & _ _ %.I Z 9.0 r >.>.>.V 3 $ o < 5 . . .   + 4 X . . . . h ",
"F 4 ; ; ; e ,.7 e ; ; ; e ,.x +.$.) 6.-.| *.1 1 1 / D c Y / 1 V ^ _ & & & ^ V 5.n / U 3.f Z V O.; j t 4 ; ; ; ; v ' 4 ; ; ; 4 p ",
"d o o o o + f M + o o o + f x +.$.) 6.-.| *.1 1 1 V @ X 0.B 1 V ^ & & & & ^ V 5.n / D 4.) Y w d o k p o o o o o k v o o o o o k ",
"9   $ $ $ . O.o.. $ $ $ . O.x +.$.) 6.-.| *.1 1 1 V @ 4.@ 0 1 V ^ & & & & ^ V 5.n / D 4.4.D V 3 = % < $ $ $ $ z o ;   $ $ $ $ # ",
"* .       X O o.X       X O x +.$.) r.-.| *.1 1 1 m =.D =.m 1 V ^ & & & & ^ V {  .m 8 q q G V 3 z o < .       $ + ; .         # ",
"* .       X O o.X       X O x b ' ) 8.| | P N r 1 1 1 1 1 1 m I ;.& & & & ^ V X.P 0 6 >.>.w } S z o < .       $ + ; .         # ",
"* .       X O o.X       X O x J } . ) < 1.-. .N 1 1 1 1 1 1 b %.] & & & & ^ V X.P P X.>.>.H e z = o < .       $ + ; .         # ",
"t X . . . X O @ X . . . X 9 H } J n t ) 8.w.-.P P P P B m b 2.& & & & & & #.<.i X.P *.X.r c : . = o < . . . .   + 4 5 . . . . h ",
"O , < < < , @ s , < < < , O.+ n 6 6 k z ) 8.| | 1.1.1...I %.& & & ] & & #.K _ ! V ..P *.N Y u < e v 3 , < < < < p a , < < < , % ",
"d o o o o o f M o o o o o f g 0 r 6 J Z . ) < 1.*.N N 3.%.] & & & & & & ! [ K #.:.R m m r D + o % k v o o o o o k v o o o o o k ",
"9 z = = = z ` ,.z = = = $ ` 0 0 8 G G U H Y n *.q ! ! 2.& & & #.! :.& & b E K & #.! G 1 r c $ = u % e = = = = W o S = = = = = + ",
"t .       X O o.X       X O 0 8 - - - l J J T T <.& & & & & & K [ ! ;.;.b [ K & #.:.- r r c :   = o < .       $ + ; .         # ",
"* .       X O o.X       X O 0 8 - - - l J Q A A 2.K ] & & & & ] ;.b E E ! ;.K K :.[ I } / c :   = o < .       $ + ; .         # ",
"* .       X O o.X       X O 0 8 - - - C I ~ Q Q 7.K ( ( ( ( ( ( ( 7.Q Q A K b Q - I L i / c :   = o < .       $ + ; .         # ",
"t .       X O o.X       X O 0 8 - - - - > G J 6 Q A A A A A A A A A A A A 7.R J x i q i / c :   = o < .       $ + 4 .         h ",
"' 2 u u u 2 F &.2 u u u W F 0 8 > - - > > C L J J T T T T T T T T T T T T R l l l > > i / k W u , p ; u u u u u % 3 2 u u u u o ",
"d % p p p % f M % p p p % M 0 8 > - > C G R I b ! Q J 0 { ......{ J J b ! b I L q > > i / D o % p Y v % p p p p Y j % p p p p k ",
"' u u u u 2 F &.2 u u u 2 F 0 8 > - C L E x I %.] :.x {  .@.@.@. .X.E K & ;.I I C > q =.0 Y 3 a ; p ; u u u u , % 3 u u u u u o ",
"t 5       X O @ X       X O 0 8 q > G R :.^ ^ ] ! x 6 {  .@.@.@. .X.E A ( ] ;.Q w l q q i } g g j # < .       $ + 4 .       . h ",
"* .       X O o.X       X O 0 8 q > R E ;.& & & Q >.6 J { U ..U { J w ~ 7.( ( Q 6 l q > > } g r Z n ; .       $ + ; .         # ",
"* .       X O o.X       X O 0 8 q q R E K & ] ;.Q 6 6 6 6 6 6 6 6 6 6 6 Q A A - w i q > > C Z / 0 U 3 .       $ + ; .         # ",
"t .       X O o.X       X O 0 8 q > R E :.#.^ I I L 6 6 6 6 6 6 6 6 6 L I E E I l > q > > 8 / r H j < .       $ + ; .         h ",
"9 = = = = z ` ,.z = = = z ` 0 8 q > L I - b b I L q +.+.b w R ..{ J 6 ~ L G G L q > - C 8 D k k @ o e = = = = W o S = = = = = + ",
"d % % % % % f M % % % % % M g U =.> q i w 6 w C > b 4.$.' x ..@. .X.6 l q q q q > > C i g n + o % Y v % % % % % k j % % % % % k ",
"O.< < < < , @ s , < < < , ` % n 0 C > > l l i > > C G R x 6 ..@. .X.6 l q > > > > q 8 g ` e < < e v 3 < < < < < p t < < < < < % ",
"t X . . . X O @ X . . . X * ,.n r g g 8 > q q > > l 6 L q J ..@. .X.6 l q q > q q q } U k O X . = o < . . . .   + 4 5 . . . . h ",
"* .       X O o.X       X 9 &.c B B B g =.i i > > l 6 3.t.x Z c n { 6 l q q > > > > > i / Y , $ = o < .       $ + ; .         # ",
"* .       X O o.X       X 9 y , 3 3 S F g N 0 C q i 6 w R 6 +.0.0.D 6 l q q q q q q q i / 0 Z ; z o < .       $ + ; .         # ",
"* .       X O o.X       X 9 s X . . X , k D Y U g } Y H =.w k q.q.3.6 g g g g g g g g g m Z d , = o < .       $ + ; .         # ",
"*   $ $ $ . O.o.. $ $ $ . 9 s   $ $ $ . S 7 4 Z B Z < < f R 3.$.$.D 6 0 B B B B B B 0 B B d : $ W % <   $ $ $ z + ;   $ $ $ $ # ",
"j # + + + # d f # + + + # j M # + + + # j c o d f d + p H x w R R w w D M f f f f M H M f v + + o k p + + + + + k v # + + + + c ",
"F e 4 4 4 e ,.7 e 4 4 4 e F + e 4 4 4 e O p 4 e e e e 9 d M Y Y Y Y k d ; e e e e S j 3 e e 4 4 S j a 4 4 4 4 ; v 9 e 4 4 4 4 p ",
"t X . . . : O @ : . . . X * y X . . . X 3 h . . . . X e + . : : : : , o = . . . . 2 % u . . . . z o < 5 . . .   + 4 X . . . . h ",
"* .       X O o.X       X 9 s 5       . 3 h         . 4 + $       . < % W         u % u         = o < .       $ + ; .         # ",
"* .       X O o.X       X 9 s 5       . 3 h         . 4 + $       . < % W         u % u         = o < .       $ + ; .         # ",
"* .       X O o.X       X 9 s 5       . 3 h         . 4 + $       . < % W         u % u         = o < .       $ + ; .         # ",
"* .       X O o.X       X 9 s 5       . 3 h .       . 4 + $       . < % =         u % u         = o < .       $ + ; .         # ",
"j # # # # # d f # # # # # j M # # # # # v c # # # # # p k + # # # # % k o # # # # o k o # # # # + k p # # # # + k v # # # # # c "
};
