/* XPM */
static char *f7fb8669863d4c5aabde1f801ba01b6850eCTk6tE0QhVCd3[] = {
/* columns rows colors chars-per-pixel */
"64 64 237 2 ",
"   c #2C2F3D",
".  c #2A2D4C",
"X  c #252947",
"o  c #2E324C",
"O  c #34354C",
"+  c #292C53",
"@  c #2B2D5C",
"#  c #242858",
"$  c #2D3154",
"%  c #2E325B",
"&  c #273059",
"*  c #313553",
"=  c #32355B",
"-  c #343A5B",
";  c #393C5C",
":  c #373A54",
">  c #312F45",
",  c #262D63",
"<  c #292D63",
"1  c #272A68",
"2  c #2D3264",
"3  c #2D356B",
"4  c #2B3569",
"5  c #323564",
"6  c #353A64",
"7  c #3A3D63",
"8  c #32356B",
"9  c #343A6C",
"0  c #3A3D6B",
"q  c #2E3471",
"w  c #2F3871",
"e  c #313672",
"r  c #343B74",
"t  c #383E74",
"y  c #353B7A",
"u  c #353B7A",
"i  c #1E1F4F",
"p  c #403E63",
"a  c #403E54",
"s  c #3D4258",
"d  c #3D4265",
"f  c #3D426C",
"g  c #3D4273",
"h  c #3C427A",
"j  c #374079",
"k  c #46465A",
"l  c #434464",
"z  c #454A63",
"x  c #41446C",
"c  c #45496D",
"v  c #4A4B68",
"b  c #4C536A",
"n  c #56596A",
"m  c #424574",
"M  c #454A73",
"N  c #4A4C74",
"B  c #42457A",
"V  c #454A7C",
"C  c #4A4E7C",
"Z  c #494776",
"A  c #4E5274",
"S  c #4E527B",
"D  c #4A5579",
"F  c #535572",
"G  c #52567D",
"H  c #545B7D",
"J  c #595D7C",
"K  c #585C72",
"L  c #5A627A",
"P  c #5F636F",
"I  c #62657A",
"U  c #67697B",
"Y  c #707477",
"T  c #383B80",
"R  c #3D4284",
"E  c #454C81",
"W  c #474A83",
"Q  c #4C5383",
"!  c #4E5589",
"~  c #525484",
"^  c #555C85",
"/  c #595E85",
"(  c #565C8B",
")  c #595E8B",
"_  c #52578A",
"`  c #555C92",
"'  c #5A5E93",
"]  c #555792",
"[  c #4E5790",
"{  c #566183",
"}  c #596085",
"|  c #5B628B",
" . c #57608B",
".. c #5C6292",
"X. c #5D639B",
"o. c #5F6893",
"O. c #61658C",
"+. c #676A88",
"@. c #6B718C",
"#. c #6C7185",
"$. c #72768B",
"%. c #757889",
"&. c #616594",
"*. c #656995",
"=. c #676A98",
"-. c #6D7196",
";. c #737594",
":. c #73769B",
">. c #747A9B",
",. c #7B7C9D",
"<. c #787B94",
"1. c #6D75A4",
"2. c #757CA4",
"3. c #797CA3",
"4. c #777AA9",
"5. c #777AB2",
"6. c #6768A0",
"7. c #7D819C",
"8. c #7D8295",
"9. c #7F838D",
"0. c #7B82A5",
"q. c #7D83AB",
"w. c #7983A8",
"e. c #7D84B2",
"r. c #82859B",
"t. c #858898",
"y. c #8F909E",
"u. c #858AA4",
"i. c #8B8CA3",
"p. c #8184AC",
"a. c #8A8DAC",
"s. c #8487A8",
"d. c #8D92A4",
"f. c #8D91AC",
"g. c #999DAA",
"h. c #9396A6",
"j. c #8186B3",
"k. c #848BB4",
"l. c #8A8DB4",
"z. c #848ABA",
"x. c #888ABB",
"c. c #8D93B3",
"v. c #8C93B9",
"b. c #9195B3",
"n. c #939BB5",
"m. c #9295BB",
"M. c #969ABB",
"N. c #999DBC",
"B. c #9B9DB5",
"V. c #918FA9",
"C. c #9CA2AE",
"Z. c #9EA4B4",
"A. c #9DA3BA",
"S. c #A5A9AD",
"D. c #A1A5BA",
"F. c #A4AABC",
"G. c #A9ABBD",
"H. c #A4A7B4",
"J. c #AEB2BA",
"K. c #B7BABE",
"L. c #BEC2BD",
"P. c #C2C4BE",
"I. c #C2C8BE",
"U. c #8D95C1",
"Y. c #989CC5",
"T. c #8887C0",
"R. c #9EA3CB",
"E. c #9CA2C4",
"W. c #A3A5C3",
"Q. c #A5AAC3",
"!. c #ABADC4",
"~. c #A2A6CB",
"^. c #A5ABCB",
"/. c #AAAECB",
"(. c #ADB1C4",
"). c #ADB1CD",
"_. c #B2B4C4",
"`. c #B2B4CA",
"'. c #B6B9CC",
"]. c #BBBDCC",
"[. c #B9BBC4",
"{. c #A7AAD4",
"}. c #ACB3D3",
"|. c #AEB5DC",
" X c #B2B5D4",
".X c #B6BBD4",
"XX c #BABDD4",
"oX c #BABCDB",
"OX c #B3B7DA",
"+X c #B5BAE4",
"@X c #BABDF2",
"#X c #C0BFCD",
"$X c #BEC3C4",
"%X c #BEC3CC",
"&X c #BFC9C8",
"*X c #BCC2D4",
"=X c #BDC3DD",
"-X c #BDC2EA",
";X c #C3C6C5",
":X c #C6C9C5",
">X c #C9CBC6",
",X c #C4C5CB",
"<X c #C8C7CD",
"1X c #C6C9CB",
"2X c #C9CACC",
"3X c #C8C7C6",
"4X c #CED2CD",
"5X c #C4C5D2",
"6X c #C9C7D2",
"7X c #C5CAD3",
"8X c #CACCD3",
"9X c #C3C5DB",
"0X c #C5CBDB",
"qX c #CBCDDB",
"wX c #CCD2D5",
"eX c #CDD2DB",
"rX c #D1D4D4",
"tX c #D2D4DC",
"yX c #D5DADB",
"uX c #D2D1D4",
"iX c #C5CBE3",
"pX c #CBCDE3",
"aX c #C5CBE9",
"sX c #CED3E3",
"dX c #CCD2EC",
"fX c #D2D5E4",
"gX c #D5DAE5",
"hX c #D3D5EB",
"jX c #D5DBEC",
"kX c #D9DCEB",
"lX c #D9DCE3",
"zX c #C8CCF6",
"xX c #D5D9F8",
"cX c #CED3F0",
"vX c #DCE2F5",
"bX c #E3E6F7",
"nX c #E0DDEE",
/* pixels */
"} ^ ( ) O.. 9.rX,X;XL.P.:X$X2X,X$X2XL.;X;X%X,XqXhXeXeX,X,X,X,X,X3X3X<X<X,X,X,X,X;X;X:X:X;X$X,XqXf.% ' ' | ^ ) ( / / ) / / / ) ( ",
"^ ) ..( x s.[.,X7XqXyXrX,X,X2X;X:X;X2X1X1X8XhXU K P Y 2X,X2X8X2X2X2X2X2X2X2X2X2X,X,X2X,X,X,X2XeXd.X &.' ~ | o.( / / / / / } ) ` ",
"^ | ) ) =  XsXqX9Xd.t.H.7X8X3X2X>X:X2X6X8X[.u.@.+.I Y 2X8X,X8X;X2X2X2X2X2X2X,X2X2X2X2X2X2X,X2X8XG.+.S ) | | ( ( ) | / / / } ) ( ",
"^ ) ( ) % ^.qX].!.v a %.tX2X;X>X>X:X8X,XwXS.k pXhXhXrX;X<X2X2X3X,X,X,X,X,X<X,X,X,X,X<X,X2X<X<X2XqX=X= G / } | ( ) ) ) ) / } ) ( ",
"} ^ | ^ % /.hXZ.o iX9XqX6X<X2X2X2X6X,X2X2X2X6X,X5X5X,X;X2X2XK.:X:X>X2X2X2X2X2X2X,X>X:X:X2X2X,X5XeX(.* H O.^ ( | ) ) ) ) / } ) ( ",
"^ ^ &.~ = ).eX[._.9XqX7X6X2X<X8X8X6X8X3X;X:X8X,X5X,X;X2X;X,XwXyX:X>X2X2X2X2X2X2X2X>X>X>X2X2X,X6X5X9X`.F c | ( ( ) ) ) ) } } ) ( ",
"^ } | ~ - ^.7XrX8X,X2X3X;X8X<X<X<X<X2X2X2X2X,XwXwXwXyXwXtXfX_.U ,X:X2X2X2X,X2X2X,X2X2X,X2X2X<X2X8X5XsXz d *.( ( ) ) ) ) / } ) ( ",
"{ } ) ^ = ).wX$X;X2X:X>X2X2X<X2X2X2X2X2X2X,X7XD.Z.g.C.Z.C.D.r.K ,X,X2X2X2X2X2X2X,X2X2X,X2X2X2X2X2X,X7X%.G H ( ..) ) ) ) / } ) ( ",
"H | ( ^ 6 Q.wX1X,X1X;X:X>X:X3X>X>X:X:X,X1X8XoX0 < 8 = = = X I gX,X,X2X<X;X,X8X<X<X2X2X2X2X<X2X2X,X2X2XhX>.6 | ) ) ) ) ) / / } ^ ",
"} ^ | _ % oX0X7XsXeXwX2X,X2X2X>X:X:X;X2X8XF.6 h 1 5.zX# % v.dX0X5X2X,XtXtX8X,X,X2X2X2X2X2X2X2X2X2X,X,XsX>.5 | | ) ) ) ) / } } ^ ",
"} ) ..) ^ G F..XA J n g.fX,X;X:X2X,X2X,XeXZ.- % ( =.&.R.C g / J ].gXg.k n '.7X8X2X2X>X>X2X,X2X2X2X2X;XeX;.6 | ( ) ) ) ) / } } ^ ",
"^ | ( ! ( @ O.>.@ 2.6 v D.7X;X2X8X,X5X8XeXF.* S e...7 vXx S :.:.sXh.%.%.%.'.qX,X2X,X:X>X2X,X2X2X<X2X:XtX>.6 | ^ / ) ) ) / | ) ^ ",
"^ | &._ r g % % V @X1.= z pXqX,X,XqX1X$X8XZ.- q.e...f |.J b.jX`.`.K <.vXeXqX7X5X5X2X2X2X2X,X,X2X<X2X:XtX>.9 | ^ ^ ) ) ) ) / ) ^ ",
"} ~ _ X.' X.C V z.# {.m.l cX0X0XqX7XeX5XeXG.* 3.j.=.6 $ /.hXC.  > D.qX9X9X5XeX7X7X2X,X2X2X,X:X2X<X2X;XeX:.6 | ^ ^ } ) ) ) / ( ^ ",
"J | ) _ r r & M z.< +Xl.X x ; l l k : D.gXA.X 6 6 & ; ).xX<.b *XXXiXvX`.: v O U qX2X,X,X,X,X:X2X6X<X;XtX:.5 | { } } ) ) ) | ) ^ ",
"J } ( ( Q V 3.0.m 5 ~ p.c.s.m.b.V.i.V.'.qX].f.a.a.a.n.sX$.<.(.fX#.I I #.d.i.t.C.8X,X,X2X,X,X,X2X<X<X,XgX3.6 | } } } ) ) / } } ^ ",
"^ | | ^ &.M Z.XXJ =.5 2.kXeXW. XqXtXtX2X<X8XtXeXeXtXqXwXU 7.W.f.L K P %.tXtXtXwX<X2X:X:X2X;X2X1X,X,XqXQ.&.V ) | } } } ^ } } } / ",
"| ^ ^ | / ; d.eXiXxX) @.yX&Xs A h.8X3X<X2X;X[.,X,X2X,X$XvX8.X z pXeXgXeX8X$X;X,X2X3X2X,X;X8X1X2X1X8XXXc m ..*.^ } } } ^ ) } / / ",
"_  .&.^ = ).5X%X7XpXF @.wX,Xc X U 6X6X6XqXG.o 9XfXsX5X2X$XeX6X5X6X,X,X5X,X8X8X;X2X2X3X2XwX$X,X,X1XJ.* / | ( ( ( } } } ^ ) ) ) / ",
"| _ ( | % OXkXeX,XeXK #.yX%X+X{.XXjXhXiXcX).$ F k <.eX2X2X;X;X2X,X2X6X<X,X2X2X2X<X2X<X2X;X2X2X,XsX0X- S | | | | } } } ( ' ' ) ) ",
"^ o._ V 9 -.,.i.5XgXk #.lX7Xa.j.q.>.3.>.s.-.o $.%.g.qX,X;X2X2X>X2X8X6X,XrX2X3X2X2X<X2X2X:X:X4XwXQ.@.N | ..( | } } } ) ( ) ) ) ) ",
"^ ^ Q r t 5 5 :.fXqX#.%.J.G.N 9 0 f 9 M % - L 0XgXwX,X2X2X:X4XP.<X<X<X2X3X:X>X2X3X2X8X,XqX5XS.'.0.% O.) ..( | ^ } } ) ( ) | ) ) ",
"{ { o.) ..0 l.cX*X*XkXt.X ; 4.T.z.e.e.x.G F kX$X;X:X2X<X;X2X$X2X8X2X,X2X:X>X>X:X>X:X,X5X0XoX7 @ g &.( .._ ..| ^ } } ) ( ) | / / ",
"{ { .._ 0 5 0 l s %X5X7X'.oXN @ Q x.x.6 >.0X,X,X:X:X2X2X6X,X2X2X3X2X2X3X2X;X,X:X,XwXeXxX Xx &.' ' ......| ) ( ( ) ) } ^ ) | / / ",
"^ | Q 9 S ^ 6 S F.,X7X0X7X0XB.B.7.l z u.`.qX6X,X>X>X2X2X6X2X2X,X8X,X6X8X$XeXeXhXiX+.*.O.S @ 0 0 f 6 0 6 S O.^ &...) | | ^ ^ | H ",
"^ | _ C ) | Q ^ A.5X0X5XwX%XeXgX(.I U XXfX6X2X2X2X2X2X6X6X2X,X,X,X1X2X2XeXh.d.a.s.+ + N -.@.@.@.@.@.@.-.G c G M N S | | / | / / ",
"^ | _ ( ..) ..( $  X.X(.%X1X1X;X6XtXlX,X6X2X;X2X2X<X,X6X2X2X,X:X:X:X8X,X`.F * d d H s d.vXeXeXgXhX0XeXkXf.; l c l G / G / / ) ( ",
"} | ( ..) ( &._ ) 7 ; o b sX7X8X5X5X,X2X<X2X2X3X2X2X2X6X5X2X2X,X:XP.wXJ.  .XhXdXiX*X0X8X,X,XL.$X,X2X,X,X5X0XdX9XxXs.X ; / | ( ' ",
"/ } / ) / / ..) | S _ ( G S C N 7.kX%X,X2X:X>X>X>X2X2X2X2X2X2X2X2X4X;X;XJ.;X2X,X,X2X2X,X;X,X2X2X:X2X2X,X2X2X5X0XqXXXG.`.l 5 ~ ' ",
"J { | / } } ) ) ^ | ' ' ( g W 8 d u.pX5X2X2X3X2X2X2X2X,X2X2X2X2X<X3XrX>X2X:X>X:X2X2X2X2X8X<X2X3X>X2X3X2X2X<X7X7X,XeX8XqXb.A @ ~ ",
"/ } | ) ) ) ) ) | / ) | } O...Q 9 d A.5XwX2X$X8X2X2X:X:X:X:X2X2X8X<X<X8X,X<X2X2X<X<X2X2X2X3X<X2X2X2X3X2X2X<X<X<X,X;X:X,XgXb.m 2 ",
"/ / / | ) ( | } } / ^ | J { ) ) &.| . A.8X2X,X<X2X,X:X:X:X:X,X2X2X,X2X,X8X<X2X2X<X2X2X<X2X2X3X2X,X8X2X;X2X6X<X2X>X>X>X$X,XhXR.@ ",
"% % = 5 @ ^ | J L J ^ ( } ^ | ( ( ) + F.rX;X2X:X2X2X:X:X:X:X2X2X,X>X2X2X2X2X>X2X2X;X7X6X,X:X2X2X,X6X;XL.1X5X,X2X2X;X>X;X<XqXb.% ",
"Y.~.~.E.E.c A O.} } ..| ^ | | &.( M M.*X,X2X2X2X2X2X2X:X:X>X2X2X,X>X2X2X2X<X2X>X>X3X2X,X6X2X$X;XqXfXtXeXwXeX5X2X2X3X2X2X<XfXM.+ ",
"cXF.Z.hXsXu.A C W ' ' ) &.( m V g d iXqX8X3X3X3X2X2X2X2X2X2X>X>X>X,X2X2X2X2X2X2X>X:X>X2X5X5X2XyX`.r.a.i.u.g.eX1X2X2X<X2X,XsXN.+ ",
"sXn n eX$XvXs.d C ' Q ( ( ^ S S f c 9X,X2X3X2X2X2X6X6X,X,X2X>X>X:X,X2X2X2X,X2X2X>XI.>X:X5XqXG.`.7.+ = = + K '.(.,XqX,X6X,XsXM.% ",
"fXK U gX2X$XqXsX9X: : ; . * XXhXm.- 0X2X:X>X2X<X2X,X5X5X6X2X>X:X:X,X,X2X,X,X,X,X:X2X;X,XqX9Xc @ M | | | O.S 2 + E.pXqX7X0XjXm.+ ",
",X5Xt.b ,X2X,X2X7X_._.(.XX`.,XfXN.. 7X2X:X>X3X2X,X,X2X2X2X2X2X2X,X,X2X2X2X2X,X,X,X$X2XeXF.: 0 Q ( | / ^ | ..` ' M A z v z f M ^ ",
"<XrX_.t.8X8X,X8X6X7XrXqXqXqXqXd.$.n.qX5X2X2X2X2X7X6X,X:X>X2X6X6X6X6X6X6X,X2X2X2X,XqX8X8X[.i.= C =.( ' ( } H o.) Q C M N C Q Q ^ ",
",X8X6XfX6X6X6X6X6X2X2X2X6X,XkXK K xXd.].qX2X2X6X7X5X2X2X>X2X6X6X6X6X6X2X2X2X2X2X8X,X,X1X2XqX;.~ M Q ` ..} } } ( ..' ......' ) } ",
"K.,X,X,X6X7X6X2X2X,X,X8X6X5XhXU P 9XO B.9X].[.6X,X5X,X[.:X:X2X<X<X<X8X3X:X>X;X2X<X2X:X>X2X;XgX$.; M ! ' ^ / } ( ( | _ ( ( ) ) / ",
"> g.kX5X6X,X2X:X:X:X<X2X<X6XhXI K sXiXn > O k 9XsXkX].  S.4XL.2X3X2XP.>X>XP.8X2X8X<X2X>X;XwX$X,X0X).- % % d | | | ( | ( ..( ) O.",
"~ G ,.kXfXtX2X:X;X:X,X,X;X;XfX#.} cX*XJ.H.i.X N N b K C.;X:X2X,X8X3X>X>XI.,X,X6X,X2X2X2X5X,XrX,X&X,XH.Z.(.a.= 5 Q &._ ..V r 5 6 ",
"&.C J u.7.<.G.tXwX8XqXqXrXwXsX+.} cX0XwXgX9X,.p.q.,.r.gXqX2X:X2X6X8X>X2X2XqXfXpXeX6XqXfXfX9X,X8XwXwXwXeXeX`.>.s.H M o.C # ..s.:.",
"^ ) S = 6 $ <.(.G.A.).W.Q.Q.sXU A OX0X(.W. XhX`.|.-XdXA.Q.XX5X2X!.D.].%X`.Q.Q.D.G.0X_.D.!.qX8X_.D.F.!.5X7XwXyXtX$.A C 6 M A.kXwX",
"/ | ) &.....C + = - $ = - . XX<.. d iXb X F *Xs X @.'.O X s.sX].: X <.).X = $ * s 0XK > b qXpXI O * . `.9X,X3X;XgXb.+ 7 XXfX<XL.",
"J { ^ | ) ( ! ) ^ $ n.dXN.$ 7 v.Y.% d W.0XZ.z (.*Xd.z *X=X,.0 N '.*Xs.d 7 ^.iXu.X s /.;.F xX; f.5X].#Xk y.nX[.6X,X*XQ.* _.5X<X;X",
"} { | ( ) | ' ' ) - W.pX=XM.% Y.~.@ = Q.jXH.o oXkXt.s 0XjX>.# B *XjXk.# 7 OXsX*Xa.*  Xs.- *.m.oXhXqXfXH.%.r.qX5X8X8X(.X ].tX,X2X",
") ) ) ) } ) | ) ) % b.iX9XiX; l.Y.5 = A.sXF.* oXhXt.s iXiX-.< m =XiXq.2 0 ~.iX0X X= Q.7.+ 9 +XaXW.f..XbX;.l tX2X2XqX'.#.i._.8X<X",
") ) ) ) } } ) | ( 5 a..X*XG.v p.x.2 - f.*XG.d  XsXd.b =X}.*.2 f oX.X:.5 5 Y..X*XE.d N.>.2 0 m.|.>.- M.}.;.+.rX3X2X;XqXhX* a.tX$X",
") ) ) ) ^ } ) | ) 5 p.).Q.F.^.|.z.@ % c.).^.{./.F.F.).^.|.-.# m A..X-.@ 9 Y.Q.Q.~.~.}.-.% 6 ~.OX3.X x . r.fX;X2X,X,X1X7Xv s.tX;X",
") ) ) ) { } ) | ) 6 m.}.Q./.^.{.5.B |.} ;.|.~.{.).).A./.H p.Y.5 A.oX2.5 g R.^.G./.^.oX-.m +XM l.}.k.% Y.9X5X2X3X;X8X;XeXp s.tX:X",
"/ ) ) ) / / | ) ( 5 :.~.Q.c.~.{.4.9 zXA / R.{.m.a.A.).n.6 k.+X% ^.N.*.2 5 j.Q.F.f.{.E.^ ^ xX% 0.|.^.| :.H.8X,X3X8X2X,X5Xl a.lXL.",
"/ / ) ) ) ) | ) ) 9 *.M.M.>.R.x.' B zXA G v.E.3.3.v.M.0.6 k.R.$ N.k...8 9 2.b.n.0.Y.v.^ x R.G q.^.v.v.$ t.tX<X8X2X<X,XtX; a.tX;X",
"/ / ) ) ) ) | ) ( 8 1.2.q.0.2.z.&.0 aXA ^ j.:.q.0.0.0.q.= k.}.% 3.e.' 4 t 2.0.0.3.4.e.( 8 2 4.4.3.q.2.7 t.eX[.6X6X6X,XqXl a.eX$X",
"/ / ) ) ) ) ) ) ( 8 =.z.4.p.5.z.=.f aXF ^ k.q.q.e.j.w.e.9 U.{.% 2.j.' e 9 4.q.w.e.4.x...2 t 5.q.w.0.z.7 r.fX6X6X,X6X,X5Xl a.vXqX",
"/ / ) ) ) ) ) ) ( 9 g =.e.V e.X.g f aXL 6 ( k.Q B =.e.V 8 Q _ 9 x.` R u 3 V 1.1.E z._ r r e E 1.k.w.E % u.fX,X,X2X,X1XqXc c O.J ",
"/ / ) ) ) ) / ) ) 9 9 E ~ 8 ` B , m aXA & h ..8 < E X.3 4 4 4 3 ` E u u j 2 Q ` 3 X.t 3 h e 3 ! .._ t @ u.tX7X2X2X,X2X7XN 0 m 0 ",
"{ } ) ) ) ) / | ( 9 3 9 9 2 t e r g aX@.9 8 < t j q q y V E 3 j e r u y 3 9 8 3 r 1 r r e y t 4 3 3 u < t.yX,X;X,X,X;X0Xc V 6.' ",
"{ } ) ) ) ) / | ( r 8 t r r 9 r e V =XjX0.2 h q y y y 3 @X1.4 r r q y r t 9 0 0 r y j 4 j q q y r r T 2 y.4X2X8X2X2X,X0Xx W X.] ",
"J ^ ( ( ) ) / ) ( r 9 E Q r w y q B XXsX7.% 8 y r r r 3 +Xq., y r q 3 2 r < j.U.1 y e r 3 4 8 r r q W i 9.yX,X;X%XeX'.z ^ _ ' ' ",
"{ } ) ' ) ) / } ( 0 q W ` 3 r y r g 0XgX$.+ g 1 < 3 0 # OX>.# t r 8 o.k.8 , E.R., y r r C U.j r r t , 3.K.>X2X,XkXQ.+.M | | ( ( ",
"{ } ) ' ) ) } } ( 0 3 W ` q y r e Z %XwXg.F 6 ..=.~ 6 } *Xg.G 8 h , 0.aX4 2 c.E., r y 1 ^ xXh 3 3 g *.iXwX>X<X7X!.+.6 ..} { | ^ ",
"J ^ ( ( ) / / / ^ 0 3 W [ 3 y q 8 m %X;XeX!.% -XxXv.7 cX%XeXW.% 8 3 >.}.3 , n.A.& r y 2 H -Xg 9 r m zX9X$XP.<XqXJ X B ' ^ H L { "
};
