/* XPM */
static char *e80c74d48f8a40b3d47c090efd2250a8zzYVoyo0Vd8ciE49[] = {
/* columns rows colors chars-per-pixel */
"45 48 6 1 ",
"  c None",
". c #997700",
"X c #CC8800",
"o c #DDAA00",
"O c #FFEE00",
"+ c white",
/* pixels */
"               ...............               ",
"               ...............               ",
"               ...............               ",
"         ......++++++OOOoooooo......         ",
"         ......++++++OOOoooooo......         ",
"         ......++++++OOOoooooo......         ",
"      ...++++++OOOOOOOOOOOOooooooooo...      ",
"      ...++++++OOOOOOOOOOOOooooooooo...      ",
"      ...++++++OOOOOOOOOOOOooooooooo...      ",
"   ...+++OOOOOOXXXXXXXXXOOOOOOooooooooo...   ",
"   ...+++OOOOOOXXXXXXXXXOOOOOOooooooooo...   ",
"   ...+++OOOOOOXXXXXXXXXOOOOOOooooooooo...   ",
"   ...OOOOOOXXXooooooooo+++OOOOOOoooooo...   ",
"   ...OOOOOOXXXooooooooo+++OOOOOOoooooo...   ",
"   ...OOOOOOXXXooooooooo+++OOOOOOoooooo...   ",
"...+++OOOXXXooooooOOOoooXXX+++OOOooooooooo...",
"...+++OOOXXXooooooOOOoooXXX+++OOOooooooooo...",
"...+++OOOXXXooooooOOOoooXXX+++OOOooooooooo...",
"...OOOOOOXXXoooOOOoooOOOooo+++OOOOOOoooooo...",
"...OOOOOOXXXoooOOOoooOOOooo+++OOOOOOoooooo...",
"...OOOOOOXXXoooOOOoooOOOooo+++OOOOOOoooooo...",
"...OOOOOOXXXoooOOOooooooooo+++OOOOOOoooooo...",
"...OOOOOOXXXoooOOOooooooooo+++OOOOOOoooooo...",
"...OOOOOOXXXoooOOOooooooooo+++OOOOOOoooooo...",
"...OOOOOOXXXoooOOOooooooooo+++OOOOOOoooooo...",
"...OOOOOOXXXoooOOOooooooooo+++OOOOOOoooooo...",
"...OOOOOOXXXoooOOOooooooooo+++OOOOOOoooooo...",
"...OOOOOOXXXoooOOOoooOOOooo+++OOOOOOoooooo...",
"...OOOOOOXXXoooOOOoooOOOooo+++OOOOOOoooooo...",
"...OOOOOOXXXoooOOOoooOOOooo+++OOOOOOoooooo...",
"...OOOOOOOOOooooooOOOoooooo+++OOOooooooooo...",
"...OOOOOOOOOooooooOOOoooooo+++OOOooooooooo...",
"...OOOOOOOOOooooooOOOoooooo+++OOOooooooooo...",
"   ...OOOOOO+++ooooooooo+++OOOOOOoooooo...   ",
"   ...OOOOOO+++ooooooooo+++OOOOOOoooooo...   ",
"   ...OOOOOO+++ooooooooo+++OOOOOOoooooo...   ",
"   ...OOOOOOOOO+++++++++OOOOOOooooooooo...   ",
"   ...OOOOOOOOO+++++++++OOOOOOooooooooo...   ",
"   ...OOOOOOOOO+++++++++OOOOOOooooooooo...   ",
"      ...OOOOOOOOOOOOOOOOOOooooooooo...      ",
"      ...OOOOOOOOOOOOOOOOOOooooooooo...      ",
"      ...OOOOOOOOOOOOOOOOOOooooooooo...      ",
"         ......OOOOOOOOOoooooo......         ",
"         ......OOOOOOOOOoooooo......         ",
"         ......OOOOOOOOOoooooo......         ",
"               ...............               ",
"               ...............               ",
"               ...............               "
};
