/* XPM */
static char *_ec22f3dcb444cdaa065fd65635919dd8SXyiC3ObeqgDy2R[] = {
/* columns rows colors chars-per-pixel */
"64 68 185 2 ",
"   c None",
".  c #977600",
"X  c #997700",
"o  c #9A7700",
"O  c #A88300",
"+  c #AD8600",
"@  c #AF8800",
"#  c #B98F00",
"$  c #B09200",
"%  c #B29300",
"&  c #B99000",
"*  c #BB9000",
"=  c #BB9100",
"-  c #BC9100",
";  c #B69900",
":  c #BA9E00",
">  c #B0953A",
",  c #B2973C",
"<  c #CC8800",
"1  c #CC8900",
"2  c #CE8B00",
"3  c #CF8D00",
"4  c #CF8E00",
"5  c #C39600",
"6  c #C69900",
"7  c #C79900",
"8  c #D09000",
"9  c #D19202",
"0  c #D49700",
"q  c #D49900",
"w  c #D69C00",
"e  c #D69D00",
"r  c #D79F00",
"t  c #CDA500",
"y  c #D0A000",
"u  c #D1A100",
"i  c #D8A000",
"p  c #D8A100",
"a  c #DAA300",
"s  c #DAA500",
"d  c #DBA500",
"f  c #DBA600",
"g  c #DCA800",
"h  c #DDA900",
"j  c #DCAA00",
"k  c #DDAA00",
"l  c #DEAB00",
"z  c #DEAC00",
"x  c #DEAD00",
"c  c #DFAD00",
"v  c #DFAE00",
"b  c #DDAA05",
"n  c #DEAC05",
"m  c #DCAA0C",
"M  c #DFAF0E",
"N  c #CAB000",
"B  c #CCB200",
"V  c #CCB300",
"C  c #CEB500",
"Z  c #CAB112",
"A  c #E0AF00",
"S  c #E0B000",
"D  c #E0B100",
"F  c #E1B200",
"G  c #E2B400",
"H  c #E3B500",
"J  c #E4B700",
"K  c #E4B800",
"L  c #E4B900",
"P  c #E5B900",
"I  c #E5BA00",
"U  c #E5BB00",
"Y  c #E6BB00",
"T  c #E7BE00",
"R  c #E7BF00",
"E  c #DDAD3F",
"W  c #E1B520",
"Q  c #E2B726",
"!  c #E4BA30",
"~  c #E5BF3F",
"^  c #D8C000",
"/  c #DDC500",
"(  c #DDC600",
")  c #DEC700",
"_  c #DEC809",
"`  c #E8C000",
"'  c #ECC700",
"]  c #EDC900",
"[  c #EDCA00",
"{  c #EECC00",
"}  c #EECD00",
"|  c #EFCF00",
" . c #F0CF00",
".. c #EBD700",
"X. c #EEDA00",
"o. c #F0D100",
"O. c #F2D400",
"+. c #F3D500",
"@. c #F4D800",
"#. c #F4D900",
"$. c #F5DA00",
"%. c #F7DE00",
"&. c #F7DF00",
"*. c #F8DF00",
"=. c #F3D81D",
"-. c #F8E100",
";. c #F9E200",
":. c #FAE400",
">. c #FBE500",
",. c #FBE600",
"<. c #FCE700",
"1. c #FDEA00",
"2. c #FEEC00",
"3. c #FEED00",
"4. c #FFED00",
"5. c #FFEE00",
"6. c #FFEE02",
"7. c #FFEE04",
"8. c #FFEE07",
"9. c #FDEA08",
"0. c #FFEF0E",
"q. c #FFEF10",
"w. c #FFEF14",
"e. c #FFEF16",
"r. c #FFF01A",
"t. c #FFF01B",
"y. c #FFF01E",
"u. c #FFF126",
"i. c #FFF133",
"p. c #FFF23E",
"a. c #B69E4A",
"s. c #BAA353",
"d. c #DDAF53",
"f. c #CAB767",
"g. c #CEBC6D",
"h. c #CAB879",
"j. c #CAB87A",
"k. c #DDCC55",
"l. c #EDCD43",
"z. c #F5DE42",
"x. c #E8C653",
"c. c #FFF243",
"v. c #FFF34E",
"b. c #EEE05A",
"n. c #FEF151",
"m. c #FFF453",
"M. c #FFF45D",
"N. c #EACB62",
"B. c #EDD16A",
"V. c #FFF461",
"C. c #FFF562",
"Z. c #FFF56A",
"A. c #FFF56E",
"S. c #CCBB80",
"D. c #CCBC80",
"F. c #DED083",
"G. c #D8CB9D",
"H. c #F0D986",
"J. c #E9CC91",
"K. c #EDD391",
"L. c #F0DA91",
"P. c #EBE080",
"I. c #F5E386",
"U. c #FFF680",
"Y. c #FFF785",
"T. c #FCF295",
"R. c #FFF89A",
"E. c #FFF89D",
"W. c #DDD1A9",
"Q. c #DED3AC",
"!. c #F6E7A5",
"~. c #F8ECAE",
"^. c #FEF9AC",
"/. c #FFF9AC",
"(. c #FFFAAF",
"). c #FFFAB5",
"_. c #F7EAC1",
"`. c #FFFBC1",
"'. c #FAF2CF",
"]. c #FFFCCD",
"[. c #FAF2D9",
"{. c #FFFCD9",
"}. c #FFFEF1",
"|. c #FEFEFD",
" X c white",
/* pixels */
"                                          X X X X X X X X X X X X X X X X X X X X X X                                           ",
"                                          X X X X X X X X X X X X X X X X X X X X X X                                           ",
"                                          X X X X X X X X X X X X X X X X X X X X X X                                           ",
"                                          X X X X X X X X X X X X X X X X X X X X X X                                           ",
"                          X X X X X X X X j.Q.Q.Q.Q.Q.Q.Q.F._ ( ( ( t 7 7 7 7 7 7 7 * X X X X X X X X                           ",
"                          X X X X X X X X G.|.|.|.|.|.|.|.`.0.6.6.1.I h h h h h h h 5 X X X X X X X X                           ",
"                          X X X X X X X X G.|.|.|.|.|.|.|.`.0.6.6.1.I h h h h h h h 5 X X X X X X X X                           ",
"                          X X X X X X X X G.|.|.|.|.|.|.|.`.0.6.6.1.I h h h h h h h 5 X X X X X X X X                           ",
"                  . . . > S.S.S.S.S.S.S.S.P.U.U.U.U.U.A.U.V.8.6.6.6.O.{ { { I h h h y * * * * * * * * O . . .                   ",
"                  X X X a.|.|.|.|.|.|.|.|.V.6.6.6.6.6.6.6.6.6.6.6.6.6.6.6.6.' h h h h h h h h h h h h + X X X                   ",
"                  X X X a.|.|.|.|.|.|.|.|.V.6.6.6.6.6.6.6.6.6.6.6.6.6.6.6.6.' h h h h h h h h h h h h + X X X                   ",
"                  X X X a.|.|.|.|.|.|.|.|.V.6.6.6.6.6.6.6.6.6.6.6.6.6.6.6.6.' h h h h h h h h h h h h + X X X                   ",
"                , s.s.s.g.^.^.^.^./.^./.^.z.{ { { { { { { { { { { { >.6.6.6.O.` ` ` I h h h h h h h h - @ @ @ O                 ",
"        X X X X j.|.|.|.).6.6.6.6.6.6.6.6.A 1 1 1 1 1 1 1 1 1 1 1 3 O.6.6.6.6.6.6.6.O.h h h h h h h h h h h h # X X X X         ",
"        X X X X j.|.|.|.).6.6.6.6.6.6.6.6.A 1 1 1 1 1 1 1 1 1 1 1 3 O.6.6.6.6.6.6.6.O.h h h h h h h h h h h h # X X X X         ",
"        X X X X j.|.|.|.).6.6.6.6.6.6.6.6.A 1 1 1 1 1 1 1 1 1 1 1 3 O.6.6.6.6.6.6.6.O.h h h h h h h h h h h h # X X X X         ",
"        X X X X f.{.{.{.R.6.6.6.6.;.&.&.&.z 3 3 3 3 3 3 3 3 3 3 3 9 =.u.u.u.q.6.6.6.$.H H H D h h h h h h h h # X X X X         ",
"        X X X X Z u.u.u.t.6.6.6.>.h 0 0 0 i s s s s s s s s s s s m !.{.{.{.M.6.6.6.1.>.>.>.$.D h h h h h h h # X X X X         ",
"        X X X X N 6.6.6.6.6.6.6.>.w 1 1 1 w h h h h h h h h h h h M _.|.|.|.A.6.6.6.6.6.6.6.;.D h h h h h h h * X X X X         ",
"        X X X X N 6.6.6.6.6.6.6.>.w 1 1 1 w h h h h h h h h h h h M _.|.|.|.A.6.6.6.6.6.6.6.;.D h h h h h h h * X X X X         ",
"        X X X X N 6.6.6.6.6.6.6.>.w 1 1 1 w h h h h h h h h h h h M _.|.|.|.A.6.6.6.6.6.6.6.;.D h h h h h h h * X X X X         ",
"X X X X D.Q.Q.Q.b.6.6.6.$.h h h h i w w w s h h h R $.$.$.{ z h h b E d.d.d.H.^.^.^.Z.6.6.6.;.D h h h h h h h y 7 7 7 - X X X X ",
"X X X X W.|.|.|.Y.6.6.6.o.1 1 1 1 i h h h h h h h ' 6.6.6.&.z h h h 9 1 1 1 J.|.|.|.E.6.6.6.;.D h h h h h h h h h h h 7 X X X X ",
"X X X X W.|.|.|.Y.6.6.6.o.1 1 1 1 i h h h h h h h ' 6.6.6.&.z h h h 9 1 1 1 J.|.|.|.E.6.6.6.;.D h h h h h h h h h h h 7 X X X X ",
"X X X X W.|.|.|.Y.6.6.6.o.1 1 1 1 i h h h h h h h ' 6.6.6.&.z h h h 9 1 1 1 J.|.|.|.E.6.6.6.;.D h h h h h h h h h h h 7 X X X X ",
"X X X X k.A.U.U.c.6.6.6.o.1 1 1 1 i h h h R { { { { { { { { { { { ] s q q q K.|.|.|.E.6.6.6.<. .{ { { H h h h h h h h 7 X X X X ",
"X X X X ( 6.6.6.6.6.6.6.o.1 1 1 3 s h h h O.6.6.6.o.h h h I 1.6.6.1.I h h h L.|.|.|.E.6.6.6.6.6.6.6.6.R h h h h h h h 7 X X X X ",
"X X X X ( 6.6.6.6.6.6.6.o.1 1 1 3 s h h h O.6.6.6.o.h h h I 1.6.6.1.I h h h L.|.|.|.E.6.6.6.6.6.6.6.6.R h h h h h h h 7 X X X X ",
"X X X X ( 6.6.6.6.6.6.6.o.1 1 1 3 s h h h O.6.6.6.o.h h h I 1.6.6.1.I h h h L.|.|.|.E.6.6.6.6.6.6.6.6.R h h h h h h h 7 X X X X ",
"X X X X ( 6.6.6.6.6.6.6.o.1 1 1 3 s h h h O.6.6.6.o.h h h H O.$.$.O.H h h h L.|.|.|.E.6.6.6.6.6.6.6.6.R h h h h h h h 7 X X X X ",
"X X X X ( 6.6.6.6.6.6.6.o.1 1 1 1 i h h h O.6.6.6.o.h h h h h h h h h h h h L.|.|.|.E.6.6.6.6.6.6.6.6.R h h h h h h h 7 X X X X ",
"X X X X ( 6.6.6.6.6.6.6.o.1 1 1 1 i h h h O.6.6.6.o.h h h h h h h h h h h h L.|.|.|.E.6.6.6.6.6.6.6.6.R h h h h h h h 7 X X X X ",
"X X X X ( 6.6.6.6.6.6.6.o.1 1 1 1 i h h h O.6.6.6.o.h h h h h h h h h h h h L.|.|.|.E.6.6.6.6.6.6.6.6.R h h h h h h h 7 X X X X ",
"X X X X ( 6.6.6.6.6.6.6.o.1 1 1 1 i h h h O.6.6.6.o.h h h h h h h h h h h h L.|.|.|.E.6.6.6.6.6.6.6.6.R h h h h h h h 7 X X X X ",
"X X X X ( 6.6.6.6.6.6.6.o.1 1 1 1 i h h h O.6.6.6.o.h h h h h h h h h h h h L.|.|.|.E.6.6.6.6.6.6.6.6.R h h h h h h h 7 X X X X ",
"X X X X ( 6.6.6.6.6.6.6.o.1 1 1 1 i h h h O.6.6.6.o.h h h h h h h h h h h h L.|.|.|.E.6.6.6.6.6.6.6.6.R h h h h h h h 7 X X X X ",
"X X X X ( 6.6.6.6.6.6.6.o.1 1 1 3 s h h h O.6.6.6.o.h h h h h h h h h h h h L.|.|.|.E.6.6.6.6.6.6.6.6.R h h h h h h h 7 X X X X ",
"X X X X ( 6.6.6.6.6.6.6.o.1 1 1 3 s h h h O.6.6.6.o.h h h h h h h h h h h h L.|.|.|.E.6.6.6.6.6.6.6.6.R h h h h h h h 7 X X X X ",
"X X X X ( 6.6.6.6.6.6.6.o.1 1 1 1 i h h h O.6.6.6.o.h h h H O.$.$.O.H h h h L.|.|.|.E.6.6.6.6.6.6.6.6.R h h h h h h h 7 X X X X ",
"X X X X ( 6.6.6.6.6.6.6.o.1 1 1 1 s h h h O.6.6.6.o.h h h I 1.6.6.1.I h h h L.|.|.|.E.6.6.6.6.6.6.6.6.R h h h h h h h 7 X X X X ",
"X X X X ( 6.6.6.6.6.6.6.o.1 1 1 1 i h h h O.6.6.6.o.h h h I 1.6.6.1.I h h h L.|.|.|.E.6.6.6.6.6.6.6.6.R h h h h h h h 7 X X X X ",
"X X X X ( 6.6.6.6.6.6.6.o.1 1 1 1 i h h h O.6.6.6.o.h h h I 1.6.6.1.I h h h L.|.|.|.E.6.6.6.6.6.6.6.6.R h h h h h h h 7 X X X X ",
"X X X X ( 6.6.6.6.6.6.6.*.I I I I z h h h R { { { { { { { { { { { ] D h h h L.|.|.|.E.6.6.6.<. .{ { { H h h h h h h h 7 X X X X ",
"X X X X ( 6.6.6.6.6.6.6.6.6.6.6.1.I h h h h h h h ' 6.6.6.&.z h h h h h h h L.|.|.|.E.6.6.6.;.D h h h h h h h h h h h 7 X X X X ",
"X X X X ( 6.6.6.6.6.6.6.6.6.6.6.<.J h h h h h h h ' 6.6.6.&.z h h h h h h h L.|.|.|.E.6.6.6.;.D h h h h h h h h h h h 7 X X X X ",
"X X X X ( 6.6.6.6.6.6.6.6.6.6.6.<.J h h h h h h h ' 6.6.6.&.z h h h h h h h L.|.|.|.E.6.6.6.;.D h h h h h h h h h h h 7 X X X X ",
"X X X X B ( ( ( X.6.6.6.6.6.6.6.9.l.x.x.x.W h h h R $.$.$.{ z h h n ~ x.x.x.I.^.^.^.Z.6.6.6.;.D h h h h h h h y 7 7 7 - X X X X ",
"        X X X X N 6.6.6.6.6.6.6.t.].|.|.|.N.h h h h h h h h h h h M _.|.|.|.A.6.6.6.6.6.6.6.;.D h h h h h h h # X X X X         ",
"        X X X X N 6.6.6.6.6.6.6.t.].|.|.|.N.h h h h h h h h h h h M _.|.|.|.A.6.6.6.6.6.6.6.;.D h h h h h h h # X X X X         ",
"        X X X X N 6.6.6.6.6.6.6.t.].|.|.|.N.h h h h h h h h h h h M _.|.|.|.A.6.6.6.6.6.6.6.;.D h h h h h h h # X X X X         ",
"        X X X X N 6.6.6.6.6.6.6.w.^.{.{.{.B.Q Q Q Q Q Q Q Q Q Q Q ! ~.{.{.{.M.6.6.6.1.>.>.>.$.D h h h h h h h # X X X X         ",
"        X X X X N 6.6.6.6.6.6.6.6.y.u.u.u.T.[.[.[.[.[.[.[.[.[.[.[.'.n.u.u.u.0.6.6.6.$.H H H D h h h h h h h h # X X X X         ",
"        X X X X N 6.6.6.6.6.6.6.6.6.6.6.6.E.|.|.|.|.|.|.|.|.|.|.|.}.p.6.6.6.6.6.6.6.O.h h h h h h h h h h h h # X X X X         ",
"        X X X X N 6.6.6.6.6.6.6.6.6.6.6.6.E.|.|.|.|.|.|.|.|.|.|.|.}.p.6.6.6.6.6.6.6.O.h h h h h h h h h h h h # X X X X         ",
"        X X X X N 6.6.6.6.6.6.6.6.6.6.6.6.E.|.|.|.|.|.|.|.|.|.|.|.}.p.6.6.6.6.6.6.6.O.h h h h h h h h h h h h * X X X X         ",
"                % : : : C 6.6.6.6.6.6.6.6.i.m.m.m.m.m.m.m.m.m.m.m.v.w.6.6.6.O.` ` ` I h h h h h h h h - @ @ @ O                 ",
"                  X X X ; 6.6.6.6.6.6.6.6.6.6.6.6.6.6.6.6.6.6.6.6.6.6.6.6.6.' h h h h h h h h h h h h + X X X                   ",
"                  X X X ; 6.6.6.6.6.6.6.6.6.6.6.6.6.6.6.6.6.6.6.6.6.6.6.6.6.' h h h h h h h h h h h h + X X X                   ",
"                  X X X ; 6.6.6.6.6.6.6.6.6.6.6.6.6.6.6.6.6.6.6.6.6.6.6.6.6.' h h h h h h h h h h h h + X X X                   ",
"                  . . . % B B B B B B B B ..6.6.6.6.6.6.6.6.6.6.6.6.O.{ { { I h h h y * * * * * * * * O . . .                   ",
"                          X X X X X X X X ^ 6.6.6.6.6.6.6.6.6.6.6.1.I h h h h h h h 5 X X X X X X X X                           ",
"                          X X X X X X X X ^ 6.6.6.6.6.6.6.6.6.6.6.1.I h h h h h h h 5 X X X X X X X X                           ",
"                          X X X X X X X X ^ 6.6.6.6.6.6.6.6.6.6.6.1.I h h h h h h h 5 X X X X X X X X                           ",
"                          X X X X X X X X N ( ( ( ( ( ( ( ( ( ( ( ( t 7 7 7 7 7 7 7 * X X X X X X X X                           ",
"                                          X X X X X X X X X X X X X X X X X X X X X X                                           ",
"                                          X X X X X X X X X X X X X X X X X X X X X X                                           ",
"                                          X X X X X X X X X X X X X X X X X X X X X X                                           ",
"                                          X X X X X X X X X X X X X X X X X X X X X X                                           "
};
