/* XPM */
static char *_116f008889143aeb1c28fce68359f965buNLtWi3ge7k5SJ[] = {
/* columns rows colors chars-per-pixel */
"64 68 134 2 ",
"   c None",
".  c #977600",
"X  c #997700",
"o  c #9A7700",
"O  c #B09200",
"+  c #B29300",
"@  c #B69900",
"#  c #BA9E00",
"$  c #B0953A",
"%  c #B2973C",
"&  c #CC8800",
"*  c #CC8900",
"=  c #CE8B00",
"-  c #CF8D00",
";  c #D29300",
":  c #D29400",
">  c #D39500",
",  c #D39700",
"<  c #D49700",
"1  c #D69C00",
"2  c #D79D00",
"3  c #D79F00",
"4  c #DAA300",
"5  c #DAA500",
"6  c #DBA600",
"7  c #DCA800",
"8  c #DDAA00",
"9  c #DDAB00",
"0  c #DFAD00",
"q  c #DFAE00",
"w  c #CAB000",
"e  c #CCB200",
"r  c #CCB300",
"t  c #CEB500",
"y  c #CAB112",
"u  c #E2B400",
"i  c #E4B700",
"p  c #E5B900",
"a  c #E5BB00",
"s  c #E6BB00",
"d  c #E6BC00",
"f  c #E7BE00",
"g  c #E7BF00",
"h  c #E8BF00",
"j  c #E0B116",
"k  c #E2B617",
"l  c #E0B219",
"z  c #E2B726",
"x  c #E4BA22",
"c  c #E4BB32",
"v  c #D8C000",
"b  c #DDC600",
"n  c #DEC700",
"m  c #E9C200",
"M  c #EAC400",
"N  c #EBC600",
"B  c #ECC700",
"V  c #EECC00",
"C  c #EECD00",
"Z  c #EBD700",
"A  c #EEDA00",
"S  c #F0D100",
"D  c #F2D400",
"F  c #F4D800",
"G  c #F5DA00",
"H  c #F7DF00",
"J  c #F8DF00",
"K  c #E8C11E",
"L  c #F8E000",
"P  c #F9E200",
"I  c #FAE400",
"U  c #FBE500",
"Y  c #FBE600",
"T  c #FCE700",
"R  c #FCE800",
"E  c #FEEC00",
"W  c #FEED00",
"Q  c #FFEE00",
"!  c #FFEE02",
"~  c #FCE804",
"^  c #FFEF08",
"/  c #FEEE16",
"(  c #FFF01A",
")  c #FFF01B",
"_  c #FAE725",
"`  c #FFF126",
"'  c #FFF132",
"]  c #FFF133",
"[  c #FFF237",
"{  c #B69E4A",
"}  c #BAA353",
"|  c #CAB767",
" . c #CEBC6D",
".. c #CAB879",
"X. c #CAB87A",
"o. c #DDCC55",
"O. c #FFF242",
"+. c #FFF243",
"@. c #FFF34A",
"#. c #EEE05A",
"$. c #FFF453",
"%. c #ECD073",
"&. c #EED37C",
"*. c #EED57F",
"=. c #FFF562",
"-. c #FFF56E",
";. c #FAED79",
":. c #CCBB80",
">. c #CCBC80",
",. c #D8CB9D",
"<. c #EED480",
"1. c #F0DA91",
"2. c #EBE080",
"3. c #FAED86",
"4. c #FFF680",
"5. c #FFF785",
"6. c #FCF19B",
"7. c #FFF89A",
"8. c #FFF89D",
"9. c #DDD1A9",
"0. c #DED3AC",
"q. c #F4E3AC",
"w. c #FBF2AF",
"e. c #FFF9AB",
"r. c #FEF9AC",
"t. c #FFF9AC",
"y. c #FFFAB5",
"u. c #FFFCCD",
"i. c #FAF2D9",
"p. c #FFFCD9",
"a. c #FCF6E5",
"s. c #FEFEFD",
"d. c #FFFFFD",
"f. c white",
/* pixels */
"                                          X X X X X X X X X X X X X X X X X X X X X X                                           ",
"                                          X X X X X X X X X X X X X X X X X X X X X X                                           ",
"                                          X X X X X X X X X X X X X X X X X X X X X X                                           ",
"                                          X X X X X X X X X X X X X X X X X X X X X X                                           ",
"                          X X X X X X X X X.0.0.0.0.0.0.0.0.0.0.0.0.0.0.0.0.0.0.0.0.X.X X X X X X X X                           ",
"                          X X X X X X X X ,.s.s.s.s.s.s.s.s.s.s.s.s.s.s.s.s.s.s.s.s.,.X X X X X X X X                           ",
"                          X X X X X X X X ,.s.s.s.s.s.s.s.s.s.s.s.s.s.s.s.s.s.s.s.s.,.X X X X X X X X                           ",
"                          X X X X X X X X ,.s.s.s.s.s.s.s.s.s.s.s.s.s.s.s.s.s.s.s.s.,.X X X X X X X X                           ",
"                  . . . $ :.:.:.:.:.:.:.:.2.4.4.;.4.4.4.4.4.4.4.4.4.4.4.;.;.4.;.;.4.2.>.:.:.:.:.:.:.:.$ . . .                   ",
"                  X X X { s.s.s.s.s.s.s.s.=.! ! ! ! ! ! ! ! ! ! ! ! ! ! ! ! ! ! ! ! =.s.s.s.s.s.s.s.s.{ X X X                   ",
"                  X X X { s.s.s.s.s.s.s.s.=.! ! ! ! ! ! ! ! ! ! ! ! ! ! ! ! ! ! ! ! =.s.s.s.s.s.s.s.s.{ X X X                   ",
"                  X X X { s.s.s.s.s.s.s.s.=.! ! ! ! ! ! ! ! ! ! ! ! ! ! ! ! ! ! ! ! =.s.s.s.s.s.s.s.s.{ X X X                   ",
"                % } } }  .r.r.r.e.e.e.e.r.+.! ! ! P V V V V V V V V V V V V P ! ! ! +.e.e.e.r.r.r.r.r. .} } } %                 ",
"        X X X X X.s.s.s.y.! ! ! ! ! ! ! ! ! ! ! ! m * * * * * * * * * * * * m ! ! ! ! ! ! ! ! ! ! ! ! y.s.s.s.X.X X X X         ",
"        X X X X X.s.s.s.y.! ! ! ! ! ! ! ! ! ! ! ! m * * * * * * * * * * * * m ! ! ! ! ! ! ! ! ! ! ! ! y.s.s.s.X.X X X X         ",
"        X X X X X.s.s.s.y.! ! ! ! ! ! ! ! ! ! ! ! m * * * * * * * * * * * * m ! ! ! ! ! ! ! ! ! ! ! ! y.s.s.s.X.X X X X         ",
"        X X X X | p.p.p.7.! ! ! ! P H H H H H H H g - - - - - - - - - - - - g H H H H H H H P ! ! ! ! 7.p.p.p.| X X X X         ",
"        X X X X y ` ` ` ) ! ! ! U 9 < < < < < < < 1 6 6 6 6 6 6 6 6 6 6 6 6 1 < < < < < < < 9 U ! ! ! ) ` ` ` y X X X X         ",
"        X X X X w ! ! ! ! ! ! ! U 1 * * * * * * * : 9 9 9 9 9 9 9 9 9 9 9 9 : * * * * * * * 1 U ! ! ! ! ! ! ! w X X X X         ",
"        X X X X w ! ! ! ! ! ! ! U 1 * * * * * * * : 9 9 9 9 9 9 9 9 9 9 9 9 : * * * * * * * 1 U ! ! ! ! ! ! ! w X X X X         ",
"        X X X X w ! ! ! ! ! ! ! U 1 * * * * * * * : 9 9 9 9 9 9 9 9 9 9 9 9 : * * * * * * * 1 U ! ! ! ! ! ! ! w X X X X         ",
"X X X X >.0.0.0.#.! ! ! ! ! ! ! U q 1 1 1 1 1 1 1 i G G G G G G G G G G G G i 1 1 1 1 1 1 1 q U ! ! ! ! ! ! ! #.0.0.0.>.X X X X ",
"X X X X 9.s.s.s.5.! ! ! ! ! ! ! T i 9 9 9 9 9 9 9 B ! ! ! ! ! ! ! ! ! ! ! ! B 9 9 9 9 9 9 9 i T ! ! ! ! ! ! ! 5.s.s.s.9.X X X X ",
"X X X X 9.s.s.s.5.! ! ! ! ! ! ! T i 9 9 9 9 9 9 9 B ! ! ! ! ! ! ! ! ! ! ! ! B 9 9 9 9 9 9 9 i T ! ! ! ! ! ! ! 5.s.s.s.9.X X X X ",
"X X X X 9.s.s.s.5.! ! ! ! ! ! ! T i 9 9 9 9 9 9 9 B ! ! ! ! ! ! ! ! ! ! ! ! B 9 9 9 9 9 9 9 i T ! ! ! ! ! ! ! 5.s.s.s.9.X X X X ",
"X X X X o.;.;.4.+.! ! ! J s s s s q 9 9 9 g V V V V V V V V V V V V V V V V V V V V g 9 9 9 q s s s s J ! ! ! +.4.4.4.o.X X X X ",
"X X X X b ! ! ! ! ! ! ! S * * * * 4 9 9 9 D ! ! ! S 9 9 9 9 9 9 9 9 9 9 9 9 S ! ! ! D 9 9 9 4 * * * * S ! ! ! ! ! ! ! b X X X X ",
"X X X X b ! ! ! ! ! ! ! S * * * * 4 9 9 9 D ! ! ! S 9 9 9 9 9 9 9 9 9 9 9 9 S ! ! ! D 9 9 9 4 * * * * S ! ! ! ! ! ! ! b X X X X ",
"X X X X b ! ! ! ! ! ! ! S * * * * 4 9 9 9 D ! ! ! S 9 9 9 9 9 9 9 9 9 9 9 9 S ! ! ! D 9 9 9 4 * * * * S ! ! ! ! ! ! ! b X X X X ",
"X X X X b ! ! ! ! ! ! ! D : ; ; : 6 9 9 9 D ! ! ! S 9 9 9 9 9 9 9 9 9 9 9 9 N G G G N 9 9 9 6 : ; ; : D ! ! ! ! ! ! ! b X X X X ",
"X X X X b ! ! ! ! ! ! ! G 9 9 9 9 9 9 9 9 D ! ! ! S 9 9 9 9 9 9 9 9 9 9 9 9 9 9 9 9 9 9 9 9 9 9 9 9 9 G ! ! ! ! ! ! ! b X X X X ",
"X X X X b ! ! ! ! ! ! ! G 9 9 9 9 9 9 9 9 D ! ! ! S 9 9 9 9 9 9 9 9 9 9 9 9 9 9 9 9 9 9 9 9 9 9 9 9 9 G ! ! ! ! ! ! ! b X X X X ",
"X X X X b ! ! ! ! ! ! ! G 9 9 9 9 9 9 9 9 D ! ! ! S 9 9 9 9 9 9 9 9 9 9 9 9 9 9 9 9 9 9 9 9 9 9 9 9 9 G ! ! ! ! ! ! ! b X X X X ",
"X X X X b ! ! ! ! ! ! ! G 9 9 9 9 9 9 9 9 D ! ! ! S 9 9 9 9 9 9 9 9 9 9 9 9 9 9 9 9 9 9 9 9 9 9 9 9 9 G ! ! ! ! ! ! ! b X X X X ",
"X X X X b ! ! ! ! ! ! ! G 9 9 9 9 9 9 9 9 D ! ! ! S 9 9 9 9 9 9 9 9 9 9 9 9 9 9 9 9 9 9 9 9 9 9 9 9 9 G ! ! ! ! ! ! ! b X X X X ",
"X X X X b ! ! ! ! ! ! ! G 9 9 9 9 9 9 9 9 D ! ! ! S 9 9 9 9 9 9 9 9 9 9 9 9 9 9 9 9 9 9 9 9 9 9 9 9 9 G ! ! ! ! ! ! ! b X X X X ",
"X X X X b ! ! ! ! ! ! ! G 9 9 9 9 9 9 9 9 D ! ! ! S 9 9 9 9 9 9 9 9 9 9 9 9 9 9 9 9 9 9 9 9 9 9 9 9 9 G ! ! ! ! ! ! ! b X X X X ",
"X X X X b ! ! ! ! ! ! ! G 9 9 9 9 9 9 9 9 D ! ! ! S 9 9 9 9 9 9 9 9 9 9 9 9 9 9 9 9 9 9 9 9 9 9 9 9 9 G ! ! ! ! ! ! ! b X X X X ",
"X X X X b ! ! ! ! ! ! ! G 9 9 9 9 9 9 9 9 D ! ! ! S 9 9 9 9 9 9 9 9 9 9 9 9 m F G G N 9 9 9 9 9 9 9 9 G ! ! ! ! ! ! ! b X X X X ",
"X X X X b ! ! ! ! ! ! ! G 9 9 9 9 9 9 9 9 D ! ! ! S 9 9 9 9 9 9 9 9 9 9 9 9 S ! ! ! D 9 9 9 9 9 9 9 9 G ! ! ! ! ! ! ! b X X X X ",
"X X X X b ! ! ! ! ! ! ! G 9 9 9 9 9 9 9 9 D ! ! ! S 9 9 9 9 9 9 9 9 9 9 9 9 S ! ! ! D 9 9 9 9 9 9 9 9 G ! ! ! ! ! ! ! b X X X X ",
"X X X X b ! ! ! ! ! ! ! G 9 9 9 9 9 9 9 9 D ! ! ! S 9 9 9 9 9 9 9 9 9 9 9 9 S ! ! ! D 9 9 9 9 9 9 9 9 G ! ! ! ! ! ! ! b X X X X ",
"X X X X b ! ! ! ! ! ! ! _ *.*.<.%.l 9 9 9 g V V V V V V V V V V V V V V V V V V V V g 9 9 9 l %.<.<.*._ ! ! ! ! ! ! ! b X X X X ",
"X X X X b ! ! ! ! ! ! ! @.s.s.s.a.c 9 9 9 9 9 9 9 B ! ! ! ! ! ! ! ! ! ! ! ! B 9 9 9 9 9 9 9 c a.s.s.s.@.! ! ! ! ! ! ! b X X X X ",
"X X X X b ! ! ! ! ! ! ! @.s.s.s.a.c 9 9 9 9 9 9 9 B ! ! ! ! ! ! ! ! ! ! ! ! B 9 9 9 9 9 9 9 c a.s.s.s.@.! ! ! ! ! ! ! b X X X X ",
"X X X X b ! ! ! ! ! ! ! @.s.s.s.a.c 9 9 9 9 9 9 9 B ! ! ! ! ! ! ! ! ! ! ! ! B 9 9 9 9 9 9 9 c a.s.s.s.@.! ! ! ! ! ! ! b X X X X ",
"X X X X r b b b A ! ! ! ' e.r.r.6.x 9 9 9 9 9 9 9 g G G G G G G G G G G F G g 9 9 9 9 9 9 9 x 6.r.r.e.' ! ! ! A b b b r X X X X ",
"        X X X X w ! ! ! ! ! ! ! T i 9 9 9 9 9 9 9 9 9 9 9 9 9 9 9 9 9 9 9 9 9 9 9 9 9 9 9 9 i T ! ! ! ! ! ! ! w X X X X         ",
"        X X X X w ! ! ! ! ! ! ! T i 9 9 9 9 9 9 9 9 9 9 9 9 9 9 9 9 9 9 9 9 9 9 9 9 9 9 9 9 i T ! ! ! ! ! ! ! w X X X X         ",
"        X X X X w ! ! ! ! ! ! ! T i 9 9 9 9 9 9 9 9 9 9 9 9 9 9 9 9 9 9 9 9 9 9 9 9 9 9 9 9 i T ! ! ! ! ! ! ! w X X X X         ",
"        X X X X w ! ! ! ! ! ! ! ~ K z z z z z z z j 9 9 9 9 9 9 9 9 9 9 9 9 j z z z k u u u h R ! ! ! ! ! ! ! w X X X X         ",
"        X X X X w ! ! ! ! ! ! ! / w.i.i.i.i.i.i.i.&.9 9 9 9 9 9 9 9 9 9 9 9 &.i.i.i.3.U U U U ! ! ! ! ! ! ! ! w X X X X         ",
"        X X X X w ! ! ! ! ! ! ! ) u.s.s.s.s.s.s.s.1.9 9 9 9 9 9 9 9 9 9 9 9 1.s.s.s.8.! ! ! ! ! ! ! ! ! ! ! ! w X X X X         ",
"        X X X X w ! ! ! ! ! ! ! ) u.s.s.s.s.s.s.s.1.9 9 9 9 9 9 9 9 9 9 9 9 1.s.s.s.8.! ! ! ! ! ! ! ! ! ! ! ! w X X X X         ",
"        X X X X w ! ! ! ! ! ! ! ) u.s.s.s.s.s.s.s.1.9 9 9 9 9 9 9 9 9 9 9 9 1.s.s.s.8.! ! ! ! ! ! ! ! ! ! ! ! w X X X X         ",
"                + # # # t ! ! ! ^ +.$.$.$.$.$.$.$.;.q.q.q.q.q.q.q.q.q.q.q.q.;.$.$.$.' ! ! ! ! ! ! ! ! t # # # +                 ",
"                  X X X @ ! ! ! ! ! ! ! ! ! ! ! ! -.s.s.s.s.s.s.s.s.s.s.s.s.-.! ! ! ! ! ! ! ! ! ! ! ! @ X X X                   ",
"                  X X X @ ! ! ! ! ! ! ! ! ! ! ! ! -.s.s.s.s.s.s.s.s.s.s.s.s.-.! ! ! ! ! ! ! ! ! ! ! ! @ X X X                   ",
"                  X X X @ ! ! ! ! ! ! ! ! ! ! ! ! -.s.s.s.s.s.s.s.s.s.s.s.s.-.! ! ! ! ! ! ! ! ! ! ! ! @ X X X                   ",
"                  . . . + r r r r r r r r Z ! ! ! [ 4.4.4.4.4.4.4.4.4.4.4.4.[ ! ! ! Z r r r r r r r r + . . .                   ",
"                          X X X X X X X X v ! ! ! ! ! ! ! ! ! ! ! ! ! ! ! ! ! ! ! ! v X X X X X X X X                           ",
"                          X X X X X X X X v ! ! ! ! ! ! ! ! ! ! ! ! ! ! ! ! ! ! ! ! v X X X X X X X X                           ",
"                          X X X X X X X X v ! ! ! ! ! ! ! ! ! ! ! ! ! ! ! ! ! ! ! ! v X X X X X X X X                           ",
"                          X X X X X X X X w b b b b b b b b b b b b b b b b b b b b w X X X X X X X X                           ",
"                                          X X X X X X X X X X X X X X X X X X X X X X                                           ",
"                                          X X X X X X X X X X X X X X X X X X X X X X                                           ",
"                                          X X X X X X X X X X X X X X X X X X X X X X                                           ",
"                                          X X X X X X X X X X X X X X X X X X X X X X                                           "
};
