/* XPM */
static char *_668b4d0d57b443df37eb5d19fe54ebenksvpaL6BkQc6EP8[] = {
/* columns rows colors chars-per-pixel */
"39 48 7 1 ",
"  c None",
". c #997700",
"X c #CC8800",
"o c #DDAA00",
"O c #FFEE00",
"+ c #F8F8F8",
"@ c white",
/* pixels */
"            ...............            ",
"            ...............            ",
"            ...............            ",
"         ...OOOOOOooooooooo...         ",
"         ...OOOOOOooooooooo...         ",
"         ...OOOOOOooooooooo...         ",
"      ...@@@@@@@@@OOOOOOoooooo...      ",
"      ...@@@@@@@@@OOOOOOoooooo...      ",
"      ...@@@@@@@@@OOOOOOoooooo...      ",
"   ...@@@OOOOOOXXXOOOOOOOOOoooooo...   ",
"   ...@@@OOOOOOXXXOOOOOOOOOoooooo...   ",
"   ...@@@OOOOOOXXXOOOOOOOOOoooooo...   ",
"   ...OOOOOOXXXooo+++OOOOOOoooooo...   ",
"   ...OOOOOOXXXooo+++OOOOOOoooooo...   ",
"   ...OOOOOOXXXooo+++OOOOOOoooooo...   ",
"...@@@OOOXXXooooooooo+++OOOooooooooo...",
"...@@@OOOXXXooooooooo+++OOOooooooooo...",
"...@@@OOOXXXooooooooo+++OOOooooooooo...",
"...OOOOOOXXXoooOOOooo+++OOOOOOoooooo...",
"...OOOOOOXXXoooOOOooo+++OOOOOOoooooo...",
"...OOOOOOXXXoooOOOooo+++OOOOOOoooooo...",
"...OOOOOOXXXoooOOOooo+++OOOOOOoooooo...",
"...OOOOOOXXXoooOOOooo+++OOOOOOoooooo...",
"...OOOOOOXXXoooOOOooo+++OOOOOOoooooo...",
"...OOOOOOXXXooooooooo+++OOOOOOoooooo...",
"...OOOOOOXXXooooooooo+++OOOOOOoooooo...",
"...OOOOOOXXXooooooooo+++OOOOOOoooooo...",
"...OOOOOOXXXoooOOOooo+++OOOOOOoooooo...",
"...OOOOOOXXXoooOOOooo+++OOOOOOoooooo...",
"...OOOOOOXXXoooOOOooo+++OOOOOOoooooo...",
"...OOOOOOXXXoooOOOooo+++OOOooooooooo...",
"...OOOOOOXXXoooOOOooo+++OOOooooooooo...",
"...OOOOOOXXXoooOOOooo+++OOOooooooooo...",
"   ...OOOOOOoooooo+++OOOOOOoooooo...   ",
"   ...OOOOOOoooooo+++OOOOOOoooooo...   ",
"   ...OOOOOOoooooo+++OOOOOOoooooo...   ",
"   ...OOOOOO++++++OOOOOOOOOoooooo...   ",
"   ...OOOOOO++++++OOOOOOOOOoooooo...   ",
"   ...OOOOOO++++++OOOOOOOOOoooooo...   ",
"      ...OOOOOOOOOOOOOOOoooooo...      ",
"      ...OOOOOOOOOOOOOOOoooooo...      ",
"      ...OOOOOOOOOOOOOOOoooooo...      ",
"         ...OOOOOOooooooooo...         ",
"         ...OOOOOOooooooooo...         ",
"         ...OOOOOOooooooooo...         ",
"            ...............            ",
"            ...............            ",
"            ...............            "
};
