/* XPM */
static char *_0eb51e7197645e2b83a1ab5bfc94939iu2uPQef7ZV6KYj9[] = {
/* columns rows colors chars-per-pixel */
"64 68 154 2 ",
"   c None",
".  c #977600",
"X  c #997700",
"o  c #9A7700",
"O  c #9A7800",
"+  c #A27E00",
"@  c #A37F00",
"#  c #AE8700",
"$  c #A88800",
"%  c #A88900",
"&  c #B08800",
"*  c #B58C00",
"=  c #B68D00",
"-  c #BA9000",
";  c #BB9000",
":  c #BB9100",
">  c #BC9100",
",  c #BD9200",
"<  c #B89C00",
"1  c #B99C00",
"2  c #BB9F00",
"3  c #CC8800",
"4  c #C79900",
"5  c #CC9D00",
"6  c #CD9E00",
"7  c #D19200",
"8  c #D49700",
"9  c #D69C00",
"0  c #C3A900",
"q  c #C5AA00",
"w  c #D3A200",
"e  c #D7A600",
"r  c #D9A700",
"t  c #D0AB00",
"y  c #DAA800",
"u  c #DCA800",
"i  c #DDA900",
"p  c #DCAA00",
"a  c #DDAA00",
"s  c #DFAD00",
"d  c #DFAE00",
"f  c #DFAF00",
"g  c #CBB100",
"h  c #CCB200",
"j  c #CCB300",
"k  c #CDB400",
"l  c #CEB500",
"z  c #E0B100",
"x  c #E2B400",
"c  c #E4B700",
"v  c #E4B900",
"b  c #E5BA00",
"n  c #E7BE00",
"m  c #E7BF00",
"M  c #E0B008",
"N  c #D49A26",
"B  c #D7A122",
"V  c #E2B625",
"C  c #E3B921",
"Z  c #E2B930",
"A  c #DEC000",
"S  c #DCC300",
"D  c #DEC700",
"F  c #E8C000",
"G  c #EAC400",
"H  c #EBC500",
"J  c #EBC600",
"K  c #EBC700",
"L  c #EDCA00",
"P  c #EECC00",
"I  c #EFCD00",
"U  c #EAC40E",
"Y  c #E5D000",
"T  c #F0D100",
"R  c #F2D400",
"E  c #F2D500",
"W  c #F4D800",
"Q  c #F5DA00",
"!  c #F0DC00",
"~  c #F7DF00",
"^  c #F6E400",
"/  c #F8E100",
"(  c #F9E200",
")  c #FBE500",
"_  c #F9E700",
"`  c #FCE700",
"'  c #FAE800",
"]  c #FDEA00",
"[  c #FEED00",
"{  c #FFED00",
"}  c #FFEE00",
"|  c #FFEE04",
" . c #FFEE0B",
".. c #F6E510",
"X. c #FEEF15",
"o. c #FEEF17",
"O. c #FEEF19",
"+. c #FEEF1E",
"@. c #E8C326",
"#. c #F5DE21",
"$. c #EAC732",
"%. c #F0D530",
"&. c #F0D632",
"*. c #FEEF21",
"=. c #FEEF24",
"-. c #FEEF25",
";. c #FFF026",
":. c #FFF126",
">. c #FEF030",
",. c #FDF03D",
"<. c #B8A04D",
"1. c #CDBA5D",
"2. c #E1B853",
"3. c #C5B16E",
"4. c #CBB97C",
"5. c #E0B662",
"6. c #E7C34A",
"7. c #FDF148",
"8. c #FDF150",
"9. c #EBCC67",
"0. c #F2DF77",
"q. c #FCF261",
"w. c #F8EC77",
"e. c #FCF377",
"r. c #CCBB80",
"t. c #EED480",
"y. c #E7DA80",
"u. c #EDD48B",
"i. c #F5E280",
"p. c #FBF382",
"a. c #FDF380",
"s. c #FFF680",
"d. c #FBF48E",
"f. c #FBF499",
"g. c #EED8AC",
"h. c #FAF5A8",
"j. c #FAF5AA",
"k. c #F0E1B0",
"l. c #F5EBB0",
"z. c #FAF5B0",
"x. c #F4E5C3",
"c. c #F5E7CC",
"v. c #F8EECD",
"b. c #F9F6C8",
"n. c #FAF6CD",
"m. c #F7EDD9",
"M. c #F9F7D3",
"N. c #FBF5D9",
"B. c #FFFCD9",
"V. c #FAF3E5",
"C. c #F9F8F1",
"Z. c #FDFBF7",
"A. c #F8F8F8",
"S. c white",
/* pixels */
"                                  X X X X X X X X X X X O X X X X X X X X X X X X X X X X X X                                   ",
"                                  X X X X X X X X X X X O O X X X X X X X X X X X O X X X X X                                   ",
"                                  X X X X X X X X X X X O O O O X X X X X X X X O O O O X X X                                   ",
"                                  X X X X X X X X X X X O O O O X X X X X X X X O O O O X X X                                   ",
"                        X X X X X 0 D D D D S t 4 4 4 4 4 4 4 4 4 4 4 4 4 4 4 4 4 4 4 4 4 4 = O X X X X                         ",
"                        X X X X O l } } } } ` K u u u u u u u u u u u u u u u u u u u u u u > O X X X X                         ",
"                        X X X X O l } } } } ` K u u u u u u u u u u u u u u u u u u u u u u > O X X X X                         ",
"                        X X X X O l } } } } ` K u u u u u u u u u u u u u u u u u u u u u u > O X X X X                         ",
"              . . . . <.4.r.r.r.r.y.s.s.s.s.a.i.t.t.t.t.9.V u u u u u u u u u u u u u u u u 6 > - - - - # . . . .               ",
"            X X X X X 3.C.S.S.S.S.S.S.S.S.S.S.S.S.S.S.S.v.6.u u u u u u u u u u u u u u u u u u u u u r = X X X X X             ",
"            X X X X X 3.C.S.S.S.S.S.S.S.S.S.S.S.S.S.S.S.v.6.u u u u u u u u u u u u u u u u u u u u u r = X X X X X             ",
"            X X X X X 3.C.S.S.S.S.S.S.S.S.S.S.S.S.S.S.S.v.6.u u u u u u u u u u u u u u u u u u u u u r = X X X X X             ",
"            X X X X X 3.C.S.S.S.S.S.S.S.S.S.Z.c.g.g.g.g.u.$.F F F F v d u u u u u u u u u u u u u u u r = X X X X X             ",
"            X X X X X 3.C.S.S.S.S.S.S.S.S.S.V.5.3 3 3 3 9 T } } } } Q v u u u u u u u u u u u u u u u r = X X X X X             ",
"            X X X X X 3.C.S.S.S.S.S.S.S.S.S.V.5.3 3 3 3 9 T } } } } Q v u u u u u u u u u u u u u u u y = X X X X X             ",
"            X X X X X 3.C.S.S.S.S.S.S.S.S.S.V.5.3 3 3 3 9 T } } } } Q v u u u u u u u u u u u u u u u y = X X X X X             ",
"            $ $ $ $ $ 1.n.B.B.B.B.N.m.m.m.m.x.2.8 8 8 8 u E } } } } Q v u u u u u u u u u u u u u u u y > $ $ $ $ +             ",
"X X X X X 1 Y ! ! ! ! ..=.:.:.:.:.@.N N N N B U ~ ~ ~ ~ ( ] } } } } Q v u u u u u u u u u u u u u u u u r w w w w 6 # X X X X X ",
"X X X X X 1 ! } } } } } } } } } } v 3 3 3 3 7 K } } } } } } } } } } Q v u u u u u u u u u u u u u u u u u u u u u w & X X X X X ",
"X X X X X 1 ! } } } } } } } } } } v 3 3 3 3 7 K } } } } } } } } } } Q v u u u u u u u u u u u u u u u u u u u u u w # X X X X X ",
"X X X X X 1 ! } } } } } } } } } } v 3 3 3 3 7 K } } } } } } } } } } Q c u u u u u u u u u u u u u u u u u u u u u w & X X X X X ",
"X X X X X 1 ! } } } } } } } } } } v 3 3 3 3 7 K } } } } *.e.h.h.h.h.w.#.Q Q Q Q K z u u u u u u u u u u u u u u u w & X X X X X ",
"X X X X X 1 ! } } } } } } } } } } v 3 3 3 3 7 K } } } } >.z.A.A.A.A.z.>.} } } } E z u u u u u u u u u u u u u u u w & X X X X X ",
"X X X X X 1 ! } } } } } } } } } } v 3 3 3 3 7 K } } } } >.z.A.A.A.A.z.>.} } } } E z u u u u u u u u u u u u u u u w & X X X X X ",
"X X X X X 1 ! } } } } } } } } } } v 3 3 3 3 7 K } } } } >.z.A.A.A.A.z.>.} } } } E z u u u u u u u u u u u u u u u w & X X X X X ",
"X X X X X 1 ! } } } } } } } } } } v 3 3 3 3 7 K } } } } >.z.A.A.A.A.z.>.} } } } E z u u u u u u u u u u u u u u u w & X X X X X ",
"X X X X X 1 ! } } } } } } } } } } v 3 3 3 3 7 K } } } } >.z.A.A.A.A.z.>.} } } } E z u u u u u u u u u u u u u u u w & X X X X X ",
"X X X X X 1 ! } } } } } } } } } } v 3 3 3 3 7 K } } } } >.z.A.A.A.A.z.>.} } } } E z u u u u u u u u u u u u u u u w & X X X X X ",
"X X X X X 1 ! } } } } } } } } } } v 3 3 3 3 7 K } } } } >.z.A.A.A.A.z.>.} } } } E z u u u u u u u u u u u u u u u w & X X X X X ",
"X X X X X 1 ! } } } } } } } } } } v 3 3 3 3 7 K } } } } >.z.A.A.A.A.z.>.} } } } E z u u u u u u u u u u u u u u u w & X X X X X ",
"X X X X X 1 ! } } } } } } } } } } v 3 3 3 3 7 K } } } } >.z.A.A.A.A.z.>.} } } } E z u u u u u u u u u u u u u u u w & X X X X X ",
"X X X X X 1 ! } } } } } } } } } } v 3 3 3 3 7 K } } } } >.z.A.A.A.A.z.>.} } } } E z u u u u u u u u u u u u u u u w & X X X X X ",
"X X X X X 1 ! } } } } } } } } } } v 3 3 3 3 7 K } } } } >.z.A.A.A.A.z.>.} } } } E z u u u u u u u u u u u u u u u w & O O O X X ",
"X O X X X 1 ! } } } } } } } } } } v 3 3 3 3 7 K } } } } >.z.A.A.A.A.z.>.} } } } E z u u u u u u u u u u u u u u u w & O O O X X ",
"X X X X X 1 ! } } } } } } } } } } v 3 3 3 3 7 K } } } } >.z.A.A.A.A.z.>.} } } } E z u u u u u u u u u u u u u u u w & O X X X X ",
"X X X X X 1 ! } } } } } } } } } } v 3 3 3 3 7 K } } } } >.z.A.A.A.A.z.>.} } } } E z u u u u u u u u u u u u u u u w & O X X X X ",
"X X X X X 1 ! } } } } } } } } } } v 3 3 3 3 7 K } } } } >.z.A.A.A.A.z.>.} } } } E z u u u u u u u u u u u u u u u w & X X X X X ",
"X X X X X 1 ! } } } } } } } } } } v 3 3 3 3 7 K } } } } >.z.A.A.A.A.z.>.} } } } E z u u u u u u u u u u u u u u u w & X X X X X ",
"X X X X X 1 ! } } } } } } } } } } v 3 3 3 3 7 K } } } } >.z.A.A.A.A.z.>.} } } } E z u u u u u u u u u u u u u u u w & X X X X X ",
"X X X X X 1 ! } } } } } } } } } } v 3 3 3 3 7 K } } } } >.z.A.A.A.A.z.>.} } } } E z u u u u u u u u u u u u u u u w & X X X X X ",
"X X X X X 1 ! } } } } } } } } } } v 3 3 3 3 7 K } } } } >.z.A.A.A.A.z.>.} } } } E z u u u u u u u u u u u u u u u w & X X X X X ",
"X X X X X 1 ! } } } } } } } } } } v 3 3 3 3 7 K } } } } >.z.A.A.A.A.z.>.} } } } E z u u u u u u u u u u u u u u u w & X X X X X ",
"X X X X X 1 ! } } } } } } } } } } v 3 3 3 3 7 K } } } } >.z.A.A.A.A.l.%.I I I I m d u u u u u u u u u u u u u u u w & X X X X X ",
"X X X X X 1 ! } } } } } } } } } } v 3 3 3 3 7 K } } } } >.z.A.A.A.A.k.Z u u u u u u u u u u u u u u u u u u u u u w & X X X X X ",
"X X X X X 1 ! } } } } } } } } } } v 3 3 3 3 7 K } } } } >.z.A.A.A.A.k.Z u u u u u u u u u u u u u u u u u u u u u w & X X X X X ",
"X X X X X 1 ! } } } } } } } } } } v 3 3 3 3 7 K } } } } >.z.A.A.A.A.k.Z u u u u u u u u u u u u u u u u u u u u u w & X X X X X ",
"X X X X X 1 ! } } } } } } } } } } L u u u u M %.8.8.8.8.q.d.h.h.h.h.0.C u u u u u u u u u u u u u u u u u u u u u w & X X X X X ",
"X X X X X 2 ! } } } } } } } } } } } } } } } O.f.A.A.A.A.b.7.} } } } Q c u u u u u u u u u u u u u u u u u u u u u w & X X X X X ",
"X X X X X 1 ! } } } } } } } } } } } } } } } O.f.A.A.A.A.b.7.} } } } Q v u u u u u u u u u u u u u u u u u u u u u w & X X X X X ",
"X X X X X 1 ! } } } } } } } } } } } } } } } O.f.A.A.A.A.b.7.} } } } Q v u u u u u u u u u u u u u u u u u u u u u w & O X X X X ",
"X X X X X 1 Y ! ! ! ! ^ } } } } } } } } } } X.p.M.M.M.M.h.,.} } } } Q v u u u u u u u u u u u u u u u u e w w w w 6 # O X X X X ",
"            $ $ $ $ $ l ' } } } } } } } } } | X.=.=.=.=.+. .} } } } Q v u u u u u u u u u u u u u u u y > + + + + +             ",
"            X X X X X q ) } } } } } } } } } } } } } } } } } } } } } Q c u u u u u u u u u u u u u u u y = O X X X X             ",
"            X X X X X q ) } } } } } } } } } } } } } } } } } } } } } Q c u u u u u u u u u u u u u u u y = O X X X X             ",
"            X X X X X q ) } } } } } } } } } } } } } } } } } } } } } Q c u u u u u u u u u u u u u u u y = O O X X X             ",
"            X X X X X q ) } } } } } } } } } } } } } } } ) I F F F F v d u u u u u u u u u u u u u u u y = O X X X X             ",
"            X X X X X q ) } } } } } } } } } } } } } } } ( m u u u u u u u u u u u u u u u u u u u u u r = X X X X X             ",
"            X X X X X q ) } } } } } } } } } } } } } } } ( m u u u u u u u u u u u u u u u u u u u u u r = X X X X X             ",
"            X X X X X q ) } } } } } } } } } } } } } } } ( m u u u u u u u u u u u u u u u u u u u u u r = X X X X X             ",
"              . . . . 1 g j j j j S I I I I I I I I I I K x u u u u u u u u u u u u u u u u 6 > - - - - # . . . .               ",
"                        X X X X O > u u u u u u u u u u u u u u u u u u u u u u u u u u u u > X X X X O                         ",
"                        X X X X O > u u u u u u u u u u u u u u u u u u u u u u u u u u u u > X X X O O                         ",
"                        X X X X O > u u u u u u u u u u u u u u u u u u u u u u u u u u u u > X X X O X                         ",
"                        X X X X O = 4 4 4 4 4 4 4 4 4 4 4 4 4 4 4 4 4 4 4 4 4 4 4 4 4 4 4 4 = X X X X X                         ",
"                                  X X X X X X X X X X X X X X X X X X X X X X X X X X X X X X                                   ",
"                                  X X X X X X X X X X X X X X X X X X X X X X X X X X X X X X                                   ",
"                                  X X X X X X X X X X X X X X X X X X X X X X X X X X X X X X                                   ",
"                                  X X X X X X X X X X X X X X X X X X X X X X X X X X X X X X                                   "
};
