/* XPM */
static char *cff4c8d8a0cc4c12a450dd79f59989b0XET4XRz8do9gaKXj[] = {
/* columns rows colors chars-per-pixel */
"15 48 4 1 ",
"  c #997700",
". c #DDAA00",
"X c #FFEE00",
"o c white",
/* pixels */
"               ",
"               ",
"               ",
"   XXXXXXXXX   ",
"   XXXXXXXXX   ",
"   XXXXXXXXX   ",
"   ooooooooo   ",
"   ooooooooo   ",
"   ooooooooo   ",
"   ooooooooo   ",
"   ooooooooo   ",
"   ooooooooo   ",
"   XXXXXXXXX   ",
"   XXXXXXXXX   ",
"   XXXXXXXXX   ",
"   XXXXXXXXX   ",
"   XXXXXXXXX   ",
"   XXXXXXXXX   ",
"   XXXXXXXXX   ",
"   XXXXXXXXX   ",
"   XXXXXXXXX   ",
"   XXXXXXXXX   ",
"   XXXXXXXXX   ",
"   XXXXXXXXX   ",
"   XXXXXXXXX   ",
"   XXXXXXXXX   ",
"   XXXXXXXXX   ",
"   .........   ",
"   .........   ",
"   .........   ",
"   XXXXXXXXX   ",
"   XXXXXXXXX   ",
"   XXXXXXXXX   ",
"   XXXXXXXXX   ",
"   XXXXXXXXX   ",
"   XXXXXXXXX   ",
"   .........   ",
"   .........   ",
"   .........   ",
"   .........   ",
"   .........   ",
"   .........   ",
"   XXXXXXXXX   ",
"   XXXXXXXXX   ",
"   XXXXXXXXX   ",
"               ",
"               ",
"               "
};
