/* XPM */
static char *_cedf05f09d3498fe707353b375329daepeZtvY8qMvSbxwj[] = {
/* columns rows colors chars-per-pixel */
"33 48 9 1 ",
"  c None",
". c #997700",
"X c #CC8800",
"o c #DDAA00",
"O c #E4B800",
"+ c #E9C300",
"@ c #FFEE00",
"# c #F8F8F8",
"$ c white",
/* pixels */
"         ...............         ",
"         ...............         ",
"         ...............         ",
"      ...@@@@@@@@@@@@ooo...      ",
"      ...@@@@@@@@@@@@ooo...      ",
"      ...@@@@@@@@@@@@ooo...      ",
"   ...$$$$$$$$$$$$ooooooooo...   ",
"   ...$$$$$$$$$$$$ooooooooo...   ",
"   ...$$$$$$$$$$$$ooooooooo...   ",
"   ...$$$$$$$$$ooooooXXXooo...   ",
"   ...$$$$$$$$$ooooooXXXooo...   ",
"   ...$$$$$$$$$ooooooXXXooo...   ",
"...@@@@@@@@@@@@oooXXXooooooooo...",
"...@@@@@@@@@@@@oooXXXooooooooo...",
"...@@@@@@@@@@@@oooXXXooooooooo...",
"...@@@@@@@@@+++oooXXXooo###ooo...",
"...@@@@@@@@@+++oooXXXooo###ooo...",
"...@@@@@@@@@+++oooXXXooo###ooo...",
"...@@@@@@@@@OOOoooXXXooo###ooo...",
"...@@@@@@@@@OOOoooXXXooo###ooo...",
"...@@@@@@@@@OOOoooXXXooo###ooo...",
"...@@@@@@@@@ooooooXXXooo###ooo...",
"...@@@@@@@@@ooooooXXXooo###ooo...",
"...@@@@@@@@@ooooooXXXooo###ooo...",
"...@@@@@@@@@ooooooXXXooo###ooo...",
"...@@@@@@@@@ooooooXXXooo###ooo...",
"...@@@@@@@@@ooooooXXXooo###ooo...",
"...oooooooooooooooXXXooo###ooo...",
"...oooooooooooooooXXXooo###ooo...",
"...oooooooooooooooXXXooo###ooo...",
"...@@@@@@@@@ooooooXXXooo###ooo...",
"...@@@@@@@@@ooooooXXXooo###ooo...",
"...@@@@@@@@@ooooooXXXooo###ooo...",
"...@@@@@@@@@@@@ooooooooo###ooo...",
"...@@@@@@@@@@@@ooooooooo###ooo...",
"...@@@@@@@@@@@@ooooooooo###ooo...",
"   ...ooooooooooooooo###ooo...   ",
"   ...ooooooooooooooo###ooo...   ",
"   ...ooooooooooooooo###ooo...   ",
"   ...@@@oooooooooooooooooo...   ",
"   ...@@@oooooooooooooooooo...   ",
"   ...@@@oooooooooooooooooo...   ",
"      ...@@@@@@@@@@@@ooo...      ",
"      ...@@@@@@@@@@@@ooo...      ",
"      ...@@@@@@@@@@@@ooo...      ",
"         ...............         ",
"         ...............         ",
"         ...............         "
};
