/* XPM */
static char *_a90c741a18847a4e33b968ae68db021eVmMFaOH6FN2u5t7[] = {
/* columns rows colors chars-per-pixel */
"39 48 14 1 ",
"  c None",
". c #997700",
"X c #CC8800",
"o c #DDAA00",
"O c #E4B800",
"+ c #E7BF00",
"@ c #E9C300",
"# c #EECB00",
"$ c #EECD00",
"% c #F1D200",
"& c #F6DC00",
"* c #FFEE00",
"= c #F8F8F8",
"- c white",
/* pixels */
"            ...............            ",
"            ...............            ",
"            ...............            ",
"         ...*********+++$$$...         ",
"         ...*********+++$$$...         ",
"         ...*********+++$$$...         ",
"      ...---------oooooo+++$$$...      ",
"      ...---------oooooo+++$$$...      ",
"      ...---------oooooo+++$$$...      ",
"   ...---------OOOXXXXXX++++++$$$...   ",
"   ...---------OOOXXXXXX++++++$$$...   ",
"   ...---------OOOXXXXXX++++++$$$...   ",
"   ...******###ooooooooo===ooo+++...   ",
"   ...******###ooooooooo===ooo+++...   ",
"   ...******###ooooooooo===ooo+++...   ",
"...*********OOOXXXooooooXXX===ooo$$$...",
"...*********OOOXXXooooooXXX===ooo$$$...",
"...*********OOOXXXooooooXXX===ooo$$$...",
"...*********oooXXXooo***ooo===ooo$$$...",
"...*********oooXXXooo***ooo===ooo$$$...",
"...*********oooXXXooo***ooo===ooo$$$...",
"...******@@@oooXXXooo***ooo===ooo$$$...",
"...******@@@oooXXXooo***ooo===ooo$$$...",
"...******@@@oooXXXooo***ooo===ooo$$$...",
"...&&&%%%@@@oooXXXooooooooo===ooo$$$...",
"...&&&%%%@@@oooXXXooooooooo===ooo$$$...",
"...&&&%%%@@@oooXXXooooooooo===ooo$$$...",
"...******@@@oooXXXooo***ooo===ooo$$$...",
"...******@@@oooXXXooo***ooo===ooo$$$...",
"...******@@@oooXXXooo***ooo===ooo$$$...",
"...*********oooXXXooo***ooo===+++$$$...",
"...*********oooXXXooo***ooo===+++$$$...",
"...*********oooXXXooo***ooo===+++$$$...",
"   ...###@@@OOOooo===ooo===ooo+++...   ",
"   ...###@@@OOOooo===ooo===ooo+++...   ",
"   ...###@@@OOOooo===ooo===ooo+++...   ",
"   ...%%%###OOOoooooo===oooooo$$$...   ",
"   ...%%%###OOOoooooo===oooooo$$$...   ",
"   ...%%%###OOOoooooo===oooooo$$$...   ",
"      ...***@@@OOOooooooooo+++...      ",
"      ...***@@@OOOooooooooo+++...      ",
"      ...***@@@OOOooooooooo+++...      ",
"         ...*********ooo+++...         ",
"         ...*********ooo+++...         ",
"         ...*********ooo+++...         ",
"            ...............            ",
"            ...............            ",
"            ...............            "
};
