/* XPM */
static char *_d593dde767b4130b6bd57f148b41c3aTPWSSnzHiOFoNfsu[] = {
/* columns rows colors chars-per-pixel */
"33 48 7 1 ",
"  c None",
". c #997700",
"X c #CC8800",
"o c #DDAA00",
"O c #FFEE00",
"+ c #F8F8F8",
"@ c white",
/* pixels */
"         ...............         ",
"         ...............         ",
"         ...............         ",
"      ...OOOoooooooooooo...      ",
"      ...OOOoooooooooooo...      ",
"      ...OOOoooooooooooo...      ",
"   ...@@@@@@@@@oooooooooooo...   ",
"   ...@@@@@@@@@oooooooooooo...   ",
"   ...@@@@@@@@@oooooooooooo...   ",
"   ...@@@@@@XXXOOOooooooooo...   ",
"   ...@@@@@@XXXOOOooooooooo...   ",
"   ...@@@@@@XXXOOOooooooooo...   ",
"...OOOOOOXXXOOOOOOoooooooooooo...",
"...OOOOOOXXXOOOOOOoooooooooooo...",
"...OOOOOOXXXOOOOOOoooooooooooo...",
"...OOOOOOXXXOOO+++OOOooooooooo...",
"...OOOOOOXXXOOO+++OOOooooooooo...",
"...OOOOOOXXXOOO+++OOOooooooooo...",
"...OOOOOOXXXOOO+++OOOooooooooo...",
"...OOOOOOXXXOOO+++OOOooooooooo...",
"...OOOOOOXXXOOO+++OOOooooooooo...",
"...OOOOOOXXXOOO+++OOOooooooooo...",
"...OOOOOOXXXOOO+++OOOooooooooo...",
"...OOOOOOXXXOOO+++OOOooooooooo...",
"...OOOOOOXXXOOO+++OOOooooooooo...",
"...OOOOOOXXXOOO+++OOOooooooooo...",
"...OOOOOOXXXOOO+++OOOooooooooo...",
"...OOOOOOXXXOOO+++OOOooooooooo...",
"...OOOOOOXXXOOO+++OOOooooooooo...",
"...OOOOOOXXXOOO+++OOOooooooooo...",
"...OOOOOOXXXOOO+++oooooooooooo...",
"...OOOOOOXXXOOO+++oooooooooooo...",
"...OOOOOOXXXOOO+++oooooooooooo...",
"...OOOOOOOOO+++OOOoooooooooooo...",
"...OOOOOOOOO+++OOOoooooooooooo...",
"...OOOOOOOOO+++OOOoooooooooooo...",
"   ...OOOOOOOOOOOOooooooooo...   ",
"   ...OOOOOOOOOOOOooooooooo...   ",
"   ...OOOOOOOOOOOOooooooooo...   ",
"   ...OOOOOOOOOoooooooooooo...   ",
"   ...OOOOOOOOOoooooooooooo...   ",
"   ...OOOOOOOOOoooooooooooo...   ",
"      ...ooooooooooooooo...      ",
"      ...ooooooooooooooo...      ",
"      ...ooooooooooooooo...      ",
"         ...............         ",
"         ...............         ",
"         ...............         "
};
