/* XPM */
static char *_b6c8b9476c84745a24bbde9b8b6df8d38hbsQ4wFFKhPsDy[] = {
/* columns rows colors chars-per-pixel */
"45 48 6 1 ",
"  c None",
". c #997700",
"X c #CC8800",
"o c #DDAA00",
"O c #FFEE00",
"+ c white",
/* pixels */
"               ...............               ",
"               ...............               ",
"               ...............               ",
"         ......+++++++++++++++......         ",
"         ......+++++++++++++++......         ",
"         ......+++++++++++++++......         ",
"      ...++++++OOOOOOOOOOOOOOO++++++...      ",
"      ...++++++OOOOOOOOOOOOOOO++++++...      ",
"      ...++++++OOOOOOOOOOOOOOO++++++...      ",
"   ...+++OOOOOOOOOXXXXXXXXXOOOOOOOOO+++...   ",
"   ...+++OOOOOOOOOXXXXXXXXXOOOOOOOOO+++...   ",
"   ...+++OOOOOOOOOXXXXXXXXXOOOOOOOOO+++...   ",
"   ...OOOOOOXXXXXXoooooooooXXXXXXOOOOOO...   ",
"   ...OOOOOOXXXXXXoooooooooXXXXXXOOOOOO...   ",
"   ...OOOOOOXXXXXXoooooooooXXXXXXOOOOOO...   ",
"...+++OOOOOOooooooOOOOOOOOOooooooOOOOOO+++...",
"...+++OOOOOOooooooOOOOOOOOOooooooOOOOOO+++...",
"...+++OOOOOOooooooOOOOOOOOOooooooOOOOOO+++...",
"...OOOOOOXXXoooOOOoooooooooOOOoooXXXOOOOOO...",
"...OOOOOOXXXoooOOOoooooooooOOOoooXXXOOOOOO...",
"...OOOOOOXXXoooOOOoooooooooOOOoooXXXOOOOOO...",
"...OOOOOOooooooOOOooooooooooooooooooOOOOOO...",
"...OOOOOOooooooOOOooooooooooooooooooOOOOOO...",
"...OOOOOOooooooOOOooooooooooooooooooOOOOOO...",
"...OOOOOOooooooOOOooooooooooooooooooOOOOOO...",
"...OOOOOOooooooOOOooooooooooooooooooOOOOOO...",
"...OOOOOOooooooOOOooooooooooooooooooOOOOOO...",
"...OOOOOOooooooOOOoooooooooOOOooooooOOOOOO...",
"...OOOOOOooooooOOOoooooooooOOOooooooOOOOOO...",
"...OOOOOOooooooOOOoooooooooOOOooooooOOOOOO...",
"...OOOOOO+++ooooooOOOOOOOOOoooooo+++OOOOOO...",
"...OOOOOO+++ooooooOOOOOOOOOoooooo+++OOOOOO...",
"...OOOOOO+++ooooooOOOOOOOOOoooooo+++OOOOOO...",
"   ...OOOOOOoooooooooooooooooooooOOOOOO...   ",
"   ...OOOOOOoooooooooooooooooooooOOOOOO...   ",
"   ...OOOOOOoooooooooooooooooooooOOOOOO...   ",
"   ...OOOOOO++++++ooooooooo+++OOOOOOOOO...   ",
"   ...OOOOOO++++++ooooooooo+++OOOOOOOOO...   ",
"   ...OOOOOO++++++ooooooooo+++OOOOOOOOO...   ",
"      ...OOOOOOOOO+++++++++OOOOOOOOO...      ",
"      ...OOOOOOOOO+++++++++OOOOOOOOO...      ",
"      ...OOOOOOOOO+++++++++OOOOOOOOO...      ",
"         ......OOOOOOOOOOOOOOO......         ",
"         ......OOOOOOOOOOOOOOO......         ",
"         ......OOOOOOOOOOOOOOO......         ",
"               ...............               ",
"               ...............               ",
"               ...............               "
};
