/* XPM */
static char *_97cadb7112b4232c364c54ae53533e2c7EUpNMmrqlbVCYM[] = {
/* columns rows colors chars-per-pixel */
"64 68 110 2 ",
"   c None",
".  c #977600",
"X  c #997700",
"o  c #A98700",
"O  c #AE8C00",
"+  c #B18E00",
"@  c #AF9100",
"#  c #B39300",
"$  c #B69900",
"%  c #BB9C00",
"&  c #B69A0B",
"*  c #AC912E",
"=  c #B69E3F",
"-  c #CC8800",
";  c #C49B00",
":  c #D29400",
">  c #D59A00",
",  c #D89F00",
"<  c #C2A400",
"1  c #CCA400",
"2  c #CEA900",
"3  c #DAA400",
"4  c #D1AE00",
"5  c #DDAA00",
"6  c #DFAE0E",
"7  c #CCB200",
"8  c #D3B100",
"9  c #DCB300",
"0  c #D6BF00",
"q  c #DFB800",
"w  c #DEAE15",
"e  c #DFB012",
"r  c #E0AF00",
"t  c #E2B400",
"y  c #E6BC00",
"u  c #DBAA26",
"i  c #DBAB2E",
"p  c #E1B625",
"a  c #E2B72A",
"s  c #DEC700",
"d  c #E3C100",
"f  c #E9C400",
"g  c #E6CF00",
"h  c #EECC00",
"j  c #E7C00E",
"k  c #E7D300",
"l  c #EDD700",
"z  c #EFDA00",
"x  c #F1D300",
"c  c #F4DB00",
"v  c #E9C216",
"b  c #F6E200",
"n  c #F9E300",
"m  c #FFEE00",
"M  c #EAC725",
"N  c #EDCE26",
"B  c #ECCC2E",
"V  c #F1D326",
"C  c #E5C038",
"Z  c #EACA38",
"A  c #F5E422",
"S  c #F9E526",
"D  c #FFF126",
"F  c #B39941",
"G  c #B69E4A",
"H  c #BAA454",
"J  c #DAAC50",
"K  c #CBB97C",
"L  c #E6C452",
"P  c #E9CB53",
"I  c #E8C55A",
"U  c #E7C85F",
"Y  c #EDD253",
"T  c #F7E243",
"R  c #E8CA65",
"E  c #E9CC6B",
"W  c #EACF75",
"Q  c #EACF78",
"!  c #EAD078",
"~  c #F2DB7C",
"^  c #CCBB80",
"/  c #D1C28D",
"(  c #E7CB86",
")  c #E0D280",
"_  c #EDD483",
"`  c #ECD68C",
"'  c #E7CD99",
"]  c #EAD499",
"[  c #EEDA99",
"{  c #FFF680",
"}  c #F3E091",
"|  c #EFDFA8",
" . c #F6E8AC",
".. c #F5EFC3",
"X. c #F4ECD2",
"o. c #F4ECD3",
"O. c #F5EFD2",
"+. c #F5F0D3",
"@. c #FBF5DB",
"#. c #FCF7D9",
"$. c #FEFAD9",
"%. c #FFFCD9",
"&. c #F5F1E5",
"*. c #F7F4EA",
"=. c #F7F5EA",
"-. c #F8F7F6",
";. c #F9F8F1",
":. c #FBFAF6",
">. c #F8F8F8",
",. c white",
/* pixels */
"                                        X X X X X X X X X X X X X X X X X X X X X X X X                                         ",
"                                        X X X X X X X X X X X X X X X X X X X X X X X X                                         ",
"                                        X X X X X X X X X X X X X X X X X X X X X X X X                                         ",
"                                        X X X X X X X X X X X X X X X X X X X X X X X X                                         ",
"                              X X X X % s s s s s s s s s s s s s s 0 2 2 2 2 4 8 8 8 8 # X X X X                               ",
"                              X X X X < m m m m m m m m m m m m m m x f y y y f h h h h % X X X X                               ",
"                              X X X X < m m m m m m m m m m m m m m x y y y y f h h h h % X X X X                               ",
"                              X X X X < m m m m m m m m m m m m m m x y y y y f h h h h % X X X X                               ",
"                      . . . F K ^ ^ ^ ) { { { { { { { { { T h h h h f t t t t y f f f f 8 < < < < O . . .                       ",
"                    X X X X H ;.,.,.,.,.,.,.,.,.,.,.,.,.,._ 5 5 5 5 5 5 5 5 5 t y y y y f h h h f # X X X X                     ",
"                    X X X X H ;.,.,.,.,.,.,.,.,.,.,.,.,.,._ 5 5 5 5 5 5 5 5 5 t f f y y f h h h f # X X X X                     ",
"                    X X X X H ;.,.,.,.,.,.,.,.,.,.,.,.,.,._ 5 5 5 5 5 5 5 5 5 t f f f f f h h h f # X X X X                     ",
"                  * H H H H / :.,.,.,.,.,.,.,.,.@. . . . .I , , , , , , , , , t f f y y f h h h f 1 # # # # o                   ",
"          X X X X G &.,.,.,.,.,.,.,.,.,.,.,.,.,.} y y y y 3 - - - - - - - - - 3 y f y y f f y y f h h h h d # X X X X           ",
"          X X X X G &.,.,.,.,.,.,.,.,.,.,.,.,.,.} y y y y 3 - - - - - - - - - 3 y y y y f f f y f h h h h d # X X X X           ",
"          X X X X G &.,.,.,.,.,.,.,.,.,.,.,.,.,.} y y y y 3 - - - - - - - - - 3 y y y y f f y y f h h h h d # X X X X           ",
"          X X X X = ..%.%.%.%.%.%.%.%.$.#.#.#.#.~ t t t t 3 - - - - - - - - - w M M M M j y y y y f h h h f + X X X X           ",
"          X X X X & A D D D D D D D D S V V V V v 5 5 5 5 5 3 3 3 3 3 3 3 3 3 Q +.+.+.O.L 5 5 5 5 y f f f y + X X X X           ",
"          X X X X $ b m m m m m m m m n h h h h y 5 5 5 5 5 5 5 5 5 5 5 5 5 5 ` >.>.>.-.U 5 5 5 5 y y y y q + X X X X           ",
"          X X X X $ b m m m m m m m m n h h h h y 5 5 5 5 5 5 5 5 5 5 5 5 5 5 ` >.>.>.-.U 5 5 5 5 t y y y q + X X X X           ",
"          X X X X $ b m m m m m m m m n h h h h y 5 5 5 5 5 5 5 5 5 5 5 5 5 5 ` >.>.>.-.U 5 5 5 5 y y y y q + X X X X           ",
"X X X X @ 0 s s s k m m m m m m m m m c y y y y 5 : : : : , 5 5 5 5 5 5 5 5 5 i J J J J ( | | | [ C t t t 9 8 8 8 8 2 O X X X X ",
"X X X X # c m m m m m m m m m m m m m c y y y y 3 - - - - > 5 5 5 5 5 5 5 5 5 : - - - - ' >.>.>.*.L 5 5 5 5 f h h h d O X X X X ",
"X X X X # c m m m m m m m m m m m m m c y y y y 3 - - - - > 5 5 5 5 5 5 5 5 5 : - - - - ' >.>.>.*.L 5 5 5 5 f h h h d O X X X X ",
"X X X X # c m m m m m m m m m m m m m c y y y y 3 - - - - > 5 5 5 5 5 5 5 5 5 : - - - - ' >.>.>.*.L 5 5 5 5 f h h h d O X X X X ",
"X X X X # c m m m m m m m m m m m m m x t t t t , - - - - > 5 5 5 5 y h h h h 5 > > > > ] >.>.>.*.L 5 5 5 5 f h h h d O X X X X ",
"X X X X # c m m m m m m m m m m m m m x 5 5 5 5 > - - - - > 5 5 5 5 h m m m m f 5 5 5 5 [ >.>.>.*.L 5 5 5 5 f h h h d O X X X X ",
"X X X X # c m m m m m m m m m m m m m x 5 5 5 5 > - - - - > 5 5 5 5 h m m m m f 5 5 5 5 [ >.>.>.*.L 5 5 5 5 f h h h d O X X X X ",
"X X X X # c m m m m m m m m m m m m m x 5 5 5 5 > - - - - > 5 5 5 5 h m m m m h 5 5 5 5 [ >.>.>.*.L 5 5 5 5 f h h h d O X X X X ",
"X X X X # c m m m m m m m m m n n n n h 5 5 5 5 > - - - - > 5 5 5 5 h m m m m h 5 5 5 5 [ >.>.>.*.L 5 5 5 5 f h h h d O X X X X ",
"X X X X # c m m m m m m m m n f f f f y 5 5 5 5 > - - - - > 5 5 5 5 h m m m m f 5 5 5 5 [ >.>.>.*.L 5 5 5 5 f h h h d O X X X X ",
"X X X X # c m m m m m m m m n f f f f y 5 5 5 5 > - - - - > 5 5 5 5 h m m m m f 5 5 5 5 [ >.>.>.*.L 5 5 5 5 f h h h d O X X X X ",
"X X X X # c m m m m m m m m n f f f f y 5 5 5 5 > - - - - > 5 5 5 5 h m m m m f 5 5 5 5 [ >.>.>.*.L 5 5 5 5 f h h h d O X X X X ",
"X X X X # z m m m m m m m m c f f f f y 5 5 5 5 > - - - - > 5 5 5 5 h n n n n f 5 5 5 5 [ >.>.>.*.L 5 5 5 5 f h h h d O X X X X ",
"X X X X # g c c c c c x x x x f f f f y 5 5 5 5 > - - - - > 5 5 5 5 r t t t t 5 5 5 5 5 [ >.>.>.*.L 5 5 5 5 f h h h d O X X X X ",
"X X X X + g c c c c x x x x h f f f f y 5 5 5 5 > - - - - > 5 5 5 5 5 5 5 5 5 5 5 5 5 5 [ >.>.>.*.L 5 5 5 5 f h h h d O X X X X ",
"X X X X + g c c c c x x x x h f f f f y 5 5 5 5 > - - - - > 5 5 5 5 5 5 5 5 5 5 5 5 5 5 [ >.>.>.*.L 5 5 5 5 f h h h d O X X X X ",
"X X X X + g c c c c x x x x h f f f f y 5 5 5 5 > - - - - > 5 5 5 5 5 5 5 5 5 5 5 5 5 5 [ >.>.>.*.L 5 5 5 5 f h h h d O X X X X ",
"X X X X # l m m m n n n n n c f f f f y 5 5 5 5 > - - - - > 5 5 5 5 f c c c c y 5 5 5 5 [ >.>.>.*.L 5 5 5 5 f h h h d O X X X X ",
"X X X X # c m m m m m m m m n f f f f y 5 5 5 5 > - - - - > 5 5 5 5 h m m m m f 5 5 5 5 [ >.>.>.*.L 5 5 5 5 f h h h d O X X X X ",
"X X X X # c m m m m m m m m n f f f f y 5 5 5 5 > - - - - > 5 5 5 5 h m m m m h 5 5 5 5 [ >.>.>.*.L 5 5 5 5 f h h h d O X X X X ",
"X X X X # c m m m m m m m m n f f f f y 5 5 5 5 > - - - - > 5 5 5 5 h m m m m f 5 5 5 5 [ >.>.>.*.L 5 5 5 5 f h h h d O X X X X ",
"X X X X # c m m m m m m m m n c c c c f 5 5 5 5 > - - - - > 5 5 5 5 h m m m m f 5 5 5 5 [ >.>.>.*.P t t t t f h h h d O X X X X ",
"X X X X # c m m m m m m m m m m m m m x 5 5 5 5 > - - - - > 5 5 5 5 h m m m m f 5 5 5 5 [ >.>.>.*.Y y y y f h h h h d O X X X X ",
"X X X X # c m m m m m m m m m m m m m x 5 5 5 5 > - - - - > 5 5 5 5 h m m m m f 5 5 5 5 [ >.>.>.*.Y y y y f h h h h d O X X X X ",
"X X X X # z m m m m m m m m m m m m m x 5 5 5 5 > - - - - > 5 5 5 5 h m m m m f 5 5 5 5 [ >.>.>.*.Y y y y f h h h h d O X X X X ",
"X X X X @ 0 s s s g b n n n n n n n n h 5 5 5 5 3 : : : : u L L L L N c c c c B L L L L _ | | | [ Z y y y y 9 8 8 8 2 O X X X X ",
"          X X X X + f h h h h f f f f y y y y y t 5 5 5 5 W >.>.>.>.W 5 5 5 5 ` >.>.>.-.U 5 5 5 5 y y y y q + X X X X           ",
"          X X X X + f h h h h f f f f y t t y y t 5 5 5 5 W >.>.>.>.W 5 5 5 5 ` >.>.>.-.U 5 5 5 5 y f f y q + X X X X           ",
"          X X X X + f h h h h f f f f y y y y y t 5 5 5 5 W >.>.>.>.W 5 5 5 5 ` >.>.>.-.U 5 5 5 5 y f f y q + X X X X           ",
"          X X X X # f h h h h f f f f f y y y y t 5 5 5 5 R O.O.O.o.! p p p p _ O.O.O.O.L 5 5 5 5 y f f f y + X X X X           ",
"          X X X X # f x x x h h h h h f y y y y t 5 5 5 5 e p p p p _ O.O.O.O.W p p p p 6 5 5 5 5 f h h h f + X X X X           ",
"          X X X X # f x x x h h h h h f y y y t t 5 5 5 5 5 5 5 5 5 _ >.>.>.>.E 5 5 5 5 5 5 5 5 5 f h h h d # X X X X           ",
"          X X X X # f x x x h h h h h f y y y y t 5 5 5 5 5 5 5 5 5 _ >.>.>.>.E 5 5 5 5 5 5 5 5 5 f h h h d # X X X X           ",
"          X X X X # f x x x x h h h h f y y y y t 5 5 5 5 5 5 5 5 5 _ >.>.>.>.E 5 5 5 5 5 5 5 5 5 f h h h d # X X X X           ",
"                  o # # # # 2 c n n n x f y y y y t t t t 5 5 5 5 5 a L L L L p 5 5 5 5 t y y y t ; # # # # o                   ",
"                    X X X X % n m m m c f f f f y t t t y t 5 5 5 5 5 5 5 5 5 5 5 5 5 5 t y f f y + X X X X                     ",
"                    X X X X % n m m m c f f f f y t t y y t 5 5 5 5 5 5 5 5 5 5 5 5 5 5 t y f f y + X X X X                     ",
"                    X X X X % n m m m c f f f f y y y y y t 5 5 5 5 5 5 5 5 5 5 5 5 5 5 t y y y y + X X X X                     ",
"                      . . . # 7 7 7 7 s c c c c x x x x x x h h h h y 5 5 5 5 t t t t t 1 ; ; ; % O . . .                       ",
"                              X X X X < m m m m m m m m m m m m m m h 5 5 5 5 t y y y y # X X X X                               ",
"                              X X X X < m m m m m m m m m m m m m m h 5 5 5 5 t y y y y # X X X X                               ",
"                              X X X X < m m m m m m m m m m m m m m h 5 5 5 5 t y y y y # X X X X                               ",
"                              X X X X % s s s s s s s s s s s s s s 4 ; ; ; ; 1 2 2 2 2 + X X X X                               ",
"                                        X X X X X X X X X X X X X X X X X X X X X X X X                                         ",
"                                        X X X X X X X X X X X X X X X X X X X X X X X X                                         ",
"                                        X X X X X X X X X X X X X X X X X X X X X X X X                                         ",
"                                        X X X X X X X X X X X X X X X X X X X X X X X X                                         "
};
