/* XPM */
static char *_c24b96946784a1e966c0d3be085c907hPVxh8n5d83SsqZZ[] = {
/* columns rows colors chars-per-pixel */
"45 48 17 1 ",
"  c None",
". c #997700",
"X c #CC8800",
"o c #DDAA00",
"O c #E9C300",
"+ c #EECB00",
"@ c #EECC00",
"# c #F1D300",
"$ c #F4D800",
"% c #F6DC00",
"& c #F7DD00",
"* c #F8E000",
"= c #F9E300",
"- c #FAE500",
"; c #FFEE00",
": c #F8F8F8",
"> c white",
/* pixels */
"               ...............               ",
"               ...............               ",
"               ...............               ",
"         ......;;;;;;;;;;;;;;;......         ",
"         ......;;;;;;;;;;;;;;;......         ",
"         ......;;;;;;;;;;;;;;;......         ",
"      ...>>>>>>>>>oooooo@@@@@@@@@;;;...      ",
"      ...>>>>>>>>>oooooo@@@@@@@@@;;;...      ",
"      ...>>>>>>>>>oooooo@@@@@@@@@;;;...      ",
"   ...>>>>>>>>>@@@oooXXXXXXXXX@@@@@@;;;...   ",
"   ...>>>>>>>>>@@@oooXXXXXXXXX@@@@@@;;;...   ",
"   ...>>>>>>>>>@@@oooXXXXXXXXX@@@@@@;;;...   ",
"   ...;;;;;;###oooXXXooooooooo:::@@@@@@...   ",
"   ...;;;;;;###oooXXXooooooooo:::@@@@@@...   ",
"   ...;;;;;;###oooXXXooooooooo:::@@@@@@...   ",
"...;;;;;;;;;###XXXoooooo;;;oooooo:::@@@%%%...",
"...;;;;;;;;;###XXXoooooo;;;oooooo:::@@@%%%...",
"...;;;;;;;;;###XXXoooooo;;;oooooo:::@@@%%%...",
"...;;;;;;$$$###XXXooo;;;ooo;;;ooo:::@@@%%%...",
"...;;;;;;$$$###XXXooo;;;ooo;;;ooo:::@@@%%%...",
"...;;;;;;$$$###XXXooo;;;ooo;;;ooo:::@@@%%%...",
"...;;;;;;###oooXXXooo;;;ooooooooo:::@@@%%%...",
"...;;;;;;###oooXXXooo;;;ooooooooo:::@@@%%%...",
"...;;;;;;###oooXXXooo;;;ooooooooo:::@@@%%%...",
"...===%%%###oooXXXooo;;;ooooooooo:::@@@%%%...",
"...===%%%###oooXXXooo;;;ooooooooo:::@@@%%%...",
"...===%%%###oooXXXooo;;;ooooooooo:::@@@%%%...",
"...;;;;;;######XXXooo;;;ooo;;;ooo:::@@@%%%...",
"...;;;;;;######XXXooo;;;ooo;;;ooo:::@@@%%%...",
"...;;;;;;######XXXooo;;;ooo;;;ooo:::@@@%%%...",
"...;;;;;;;;;###oooXXXooo;;;oooooo:::@@@%%%...",
"...;;;;;;;;;###oooXXXooo;;;oooooo:::@@@%%%...",
"...;;;;;;;;;###oooXXXooo;;;oooooo:::@@@%%%...",
"   ...---===###ooo:::ooooooooo:::@@@@@@...   ",
"   ...---===###ooo:::ooooooooo:::@@@@@@...   ",
"   ...---===###ooo:::ooooooooo:::@@@@@@...   ",
"   ...======%%%###ooo:::::::::@@@@@@%%%...   ",
"   ...======%%%###ooo:::::::::@@@@@@%%%...   ",
"   ...======%%%###ooo:::::::::@@@@@@%%%...   ",
"      ...;;;++++++OOOoooooo@@@@@@%%%...      ",
"      ...;;;++++++OOOoooooo@@@@@@%%%...      ",
"      ...;;;++++++OOOoooooo@@@@@@%%%...      ",
"         ......;;;;;;;;;@@@@@@......         ",
"         ......;;;;;;;;;@@@@@@......         ",
"         ......;;;;;;;;;@@@@@@......         ",
"               ...............               ",
"               ...............               ",
"               ...............               "
};
