/* XPM */
static char *_0fb1b0cafef431ca3ecbdfc62f40987AdSX3zyDP5I0egsj[] = {
/* columns rows colors chars-per-pixel */
"64 64 14 1 ",
"  c gray6",
". c gray8",
"X c #191919",
"o c #1E1E1E",
"O c #222222",
"+ c #232323",
"@ c #272727",
"# c #282828",
"$ c #2C2C2C",
"% c #2D2D2D",
"& c #313131",
"* c #323232",
"= c #373737",
"- c #3C3C3C",
/* pixels */
"******--======****##oo******--======****##oo******--====****##oo",
"******--======****##oo******--======****##oo******--====****##oo",
"**--======******%%%%oo**--======******%%%%oo**--======****%%%%oo",
"**--======******%%%%oo**--======******%%%%oo**--======****%%%%oo",
"======**********%%%%oo======**********%%%%oo======********%%%%oo",
"======**********%%%%oo======**********%%%%oo======********%%%%oo",
"==********%%%%%%%%##oo==********%%%%%%%%##oo==********%%%%%%##oo",
"==********%%%%%%%%##oo==********%%%%%%%%##oo==********%%%%%%##oo",
"******%%%%%%%%######oo******%%%%%%%%######oo******%%%%%%######oo",
"******%%%%%%%%######oo******%%%%%%%%######oo******%%%%%%######oo",
"**##################oo**##################oo**################oo",
"**##################oo**##################oo**################oo",
"##################++oo##################++oo################++oo",
"##################++oo##################++oo################++oo",
"XXXXXXXXXXXXXXXXXXXXXXXXXXXXXXXXXXXXXXXXXXXXXXXXXXXXXXXXXXXXXXXX",
"XXXXXXXXXXXXXXXXXXXXXXXXXXXXXXXXXXXXXXXXXXXXXXXXXXXXXXXXXXXXXXXX",
"%%%%%%++XX++++++==****%%%%++XX++++++==****%%%%++XX++++++==******",
"%%%%%%++XX++++++==****%%%%++XX++++++==****%%%%++XX++++++==******",
"######++XX++==******%%%%####XX++==******%%%%####XX++==******%%%%",
"######++XX++==******%%%%####XX++==******%%%%####XX++==******%%%%",
"######++XX******%%%%%%%%####XX******%%%%%%%%####XX******%%%%%%%%",
"######++XX******%%%%%%%%####XX******%%%%%%%%####XX******%%%%%%%%",
"##++++++XX**%%%%%%%%######++XX**%%%%%%%%######++XX**%%%%%%%%####",
"##++++++XX**%%%%%%%%######++XX**%%%%%%%%######++XX**%%%%%%%%####",
"++++++++XX%%%%%%######++++++XX%%%%%%######++++++XX%%%%%%########",
"++++++++XX%%%%%%######++++++XX%%%%%%######++++++XX%%%%%%########",
"++++++++XX%%++++++++++++++++XX%%++++++++++++++++XX%%++++++++++++",
"++++++++XX%%++++++++++++++++XX%%++++++++++++++++XX%%++++++++++++",
"++++++ooXX++++++++++++++++ooXX++++++++++++++++ooXX++++++++++++++",
"++++++ooXX++++++++++++++++ooXX++++++++++++++++ooXX++++++++++++++",
"................................................................",
"................................................................",
"oooooo**%%%%%%@@@@oo..oooooo**%%%%%%@@@@oo..oooooo**%%%%@@@@oo..",
"oooooo**%%%%%%@@@@oo..oooooo**%%%%%%@@@@oo..oooooo**%%%%@@@@oo..",
"oo**%%%%%%@@@@@@++++..oo**%%%%%%@@@@@@++++..oo**%%%%%%@@@@++++..",
"oo**%%%%%%@@@@@@++++..oo**%%%%%%@@@@@@++++..oo**%%%%%%@@@@++++..",
"%%%%%%@@@@@@@@@@++++..%%%%%%@@@@@@@@@@++++..%%%%%%@@@@@@@@++++..",
"%%%%%%@@@@@@@@@@++++..%%%%%%@@@@@@@@@@++++..%%%%%%@@@@@@@@++++..",
"%%@@@@@@@@++++++++oo..%%@@@@@@@@++++++++oo..%%@@@@@@@@++++++oo..",
"%%@@@@@@@@++++++++oo..%%@@@@@@@@++++++++oo..%%@@@@@@@@++++++oo..",
"@@@@@@++++++++oooooo..@@@@@@++++++++oooooo..@@@@@@++++++oooooo..",
"@@@@@@++++++++oooooo..@@@@@@++++++++oooooo..@@@@@@++++++oooooo..",
"@@oooooooooooooooooo..@@oooooooooooooooooo..@@oooooooooooooooo..",
"@@oooooooooooooooooo..@@oooooooooooooooooo..@@oooooooooooooooo..",
"ooooooooooooooooooXX..ooooooooooooooooooXX..ooooooooooooooooXX..",
"ooooooooooooooooooXX..ooooooooooooooooooXX..ooooooooooooooooXX..",
"                                                                ",
"                                                                ",
"##++++XX  XXXXXX%%######++++XX  XXXXXX%%######++++XX  XXXXXX##++",
"##++++XX  XXXXXX%%######++++XX  XXXXXX%%######++++XX  XXXXXX##++",
"++++oooo  XX%%######++++++oooo  XX%%######++++++oooo  XX##++++++",
"++++oooo  XX%%######++++++oooo  XX%%######++++++oooo  XX##++++++",
"++++oooo  ######++++++++++oooo  ######++++++++++oooo  ##++++++++",
"++++oooo  ######++++++++++oooo  ######++++++++++oooo  ##++++++++",
"ooooooXX  ##++++++++ooooooooXX  ##++++++++ooooooooXX  ##++++++++",
"ooooooXX  ##++++++++ooooooooXX  ##++++++++ooooooooXX  ##++++++++",
"ooXXXXXX  ++++++ooooooooXXXXXX  ++++++ooooooooXXXXXX  ++++++oooo",
"ooXXXXXX  ++++++ooooooooXXXXXX  ++++++ooooooooXXXXXX  ++++++oooo",
"XXXXXXXX  ++XXXXXXXXXXXXXXXXXX  ++XXXXXXXXXXXXXXXXXX  ++XXXXXXXX",
"XXXXXXXX  ++XXXXXXXXXXXXXXXXXX  ++XXXXXXXXXXXXXXXXXX  ++XXXXXXXX",
"XXXXXX..  XXXXXXXXXXXXXXXXXX..  XXXXXXXXXXXXXXXXXX..  XXXXXXXXXX",
"XXXXXX..  XXXXXXXXXXXXXXXXXX..  XXXXXXXXXXXXXXXXXX..  XXXXXXXXXX",
"                                                                ",
"                                                                "
};
