/* XPM */
static char *_b56298b9033439480b31c85c4083aa0NNvO2FrmMpSUUVNf[] = {
/* columns rows colors chars-per-pixel */
"64 64 203 2 ",
"   c #0E0E0E",
".  c #141414",
"X  c #1B1B1B",
"o  c #202020",
"O  c #2E2E2D",
"+  c #302F2C",
"@  c #34322B",
"#  c #39362B",
"$  c #3D392A",
"%  c #373636",
"&  c #3A3936",
"*  c #3E3D3C",
"=  c #503B0A",
"-  c #5F381B",
";  c #7A2F0A",
":  c #7A370E",
">  c #6C3A12",
",  c #623A1C",
"<  c #6D3511",
"1  c #423D29",
"2  c #413E34",
"3  c #413F3B",
"4  c #5F4E0C",
"5  c #55420D",
"6  c #5C4C13",
"7  c #5A4E1D",
"8  c #5E501C",
"9  c #7B420E",
"0  c #65530A",
"q  c #69560A",
"w  c #6D5A0D",
"e  c #6B5707",
"r  c #715B07",
"t  c #715E0E",
"y  c #7D5E0E",
"u  c #694714",
"i  c #645312",
"p  c #6B5414",
"a  c #6B5913",
"s  c #62541D",
"d  c #6C5C1E",
"f  c #66581F",
"g  c #715E13",
"h  c #705E1D",
"j  c #7B6407",
"k  c #766109",
"l  c #7B650C",
"z  c #766213",
"x  c #74621E",
"c  c #79661B",
"v  c #7D691C",
"b  c #7C6712",
"n  c #474127",
"m  c #4B4427",
"M  c #464028",
"N  c #4D462C",
"B  c #4F482B",
"V  c #504726",
"C  c #544A25",
"Z  c #594E23",
"A  c #544D2F",
"S  c #5D5223",
"D  c #5C522D",
"F  c #454233",
"G  c #4A4632",
"H  c #4E4933",
"J  c #44423E",
"K  c #49463C",
"L  c #4C493C",
"P  c #524C32",
"I  c #524D3A",
"U  c #575034",
"Y  c #5B5334",
"T  c #57523C",
"R  c #5A553D",
"E  c #5F583C",
"W  c #625522",
"Q  c #675921",
"!  c #6B5C22",
"~  c #61562B",
"^  c #655A2C",
"/  c #6A5D2B",
"(  c #615731",
")  c #635A33",
"_  c #695E32",
"`  c #6B5F32",
"'  c #625A3B",
"]  c #665D3A",
"[  c #61593C",
"{  c #635B3C",
"}  c #685F39",
"|  c #695F39",
" . c #6F6126",
".. c #6E602B",
"X. c #736426",
"o. c #786725",
"O. c #7B6A24",
"+. c #73652B",
"@. c #75662B",
"#. c #71632C",
"$. c #72642E",
"%. c #73652D",
"&. c #77682E",
"*. c #7B6B2A",
"=. c #6B6031",
"-. c #6E6230",
";. c #6D6031",
":. c #6D6232",
">. c #6B6139",
",. c #716533",
"<. c #776933",
"1. c #7A6C33",
"2. c #73673B",
"3. c #766A39",
"4. c #796C38",
"5. c #7F7030",
"6. c #474745",
"7. c #424241",
"8. c #4D4B43",
"9. c #4F4C43",
"0. c #494845",
"q. c #484845",
"w. c #4A4944",
"e. c #4B4A44",
"r. c #4C4A44",
"t. c #4A4944",
"y. c #4D4D4A",
"u. c #4E4D4A",
"i. c #4D4D4A",
"p. c #524E42",
"a. c #524E42",
"s. c #514F49",
"d. c #555141",
"f. c #585446",
"g. c #5C5744",
"h. c #5F5943",
"j. c #5E5943",
"k. c #515048",
"l. c #515048",
"z. c #645D41",
"x. c #8C4D11",
"c. c #8C5F15",
"v. c #944609",
"b. c #A75B15",
"n. c #836B0B",
"m. c #836D13",
"M. c #826E1B",
"N. c #866311",
"B. c #9C6818",
"V. c #8C7416",
"C. c #8C761D",
"Z. c #8E781C",
"A. c #87721A",
"S. c #907711",
"D. c #917914",
"F. c #937B1C",
"G. c #987B1B",
"H. c #A46C19",
"J. c #B87316",
"K. c #99592A",
"L. c #816E24",
"P. c #806F2A",
"I. c #857123",
"U. c #8A7624",
"Y. c #8D7925",
"T. c #85732B",
"R. c #89772D",
"E. c #8D792B",
"W. c #937D22",
"Q. c #917C29",
"!. c #837331",
"~. c #8A7931",
"^. c #B5662A",
"/. c #C46E2D",
"(. c #CA712E",
"). c #D37931",
"_. c #E17F2A",
"`. c #9C821C",
"'. c #AA8A0F",
"]. c #A98B14",
"[. c #A18619",
"{. c #A38715",
"}. c #B8801A",
"|. c #988024",
" X c #CC8A1B",
".X c #DF8316",
"XX c #DB9A18",
"oX c #D0931B",
"OX c #E09A1B",
"+X c #E7A91D",
"@X c #E0A01D",
"#X c #F28C26",
"$X c #EAA120",
"%X c #EAB520",
"&X c #F0BC24",
"*X c #FDB93C",
"=X c #F5A72A",
"-X c #FBC52B",
";X c #F7D72A",
":X c #FCDD28",
">X c #F4D024",
",X c #FFD43B",
"<X c #FEE82E",
/* pixels */
"% % % % % % y.y.0.0.0.0.0.r.J K K K 2 F $ $ F F G G G G g.g.T T d.d.T T I I I I F F $ $ F F 2 & & & l.s.0.0.0.0.J J J J % % O O ",
"% % % % % % y.y.0.0.0.0.r.r.K K K K F F $ $ G G G G G G h.h.R R R R R R I I I I G G $ $ F F 2 2 2 2 l.l.0.0.0.0.J J J J % % O O ",
"% % y.y.0.0.0.0.0.0.J J J J K L K K K H 1 1 G G h.z.E E E E E E T T T T T T P P P P 1 1 F F g.f.a.9.8.8.r.0.J J J J * * * * O O ",
"% % y.y.0.0.0.0.0.0.J K J K L L K K H H 1 1 H H z.z.E { { { { { Y Y Y Y Y Y P P P P 1 1 G G g.g.a.9.9.8.r.r.J J J J * * * * O O ",
"6.6.0.0.0.0.J J J J J K K L L L H H H P M M E { ' ' ] ] ) ) ) ) ) ) ) ) ) ) Y Y Y Y n M R R d.d.a.a.L K K J J J J J * * * * + + ",
"6.0.0.0.0.0.J J J J J K L L L L H H P P m m { { ] ] ] | ) ) ) ) ) ) ) ) ) ) Y Y Y Y n n E R T T d.a.L K K K J J J J * * * * @ @ ",
"0.0.J J J J J J J J J J K K H H P P P P m m ] | ) _ ` ` ` =.=.=./ / / / ^ ^ ) ) D D V m E E T I I I L L L K J J J 3 * * % % @ @ ",
"0.0.J J J J J J J J J J K K H H P P P A m V | >.` ` -.-.-.-.-.-./ / / / / / ^ ^ D D V V ' { T T I I L L L K J J J 3 * * % % @ @ ",
"J J J J J J J J J J K K K H G G P A A D C C ` =.-.-.$.$.#.#.$.$.$.$.#.#./ / / ^ ^ ~ Z C ) Y Y T T I H H K K J J & & % % % % O + ",
"J J J J J J J J J J K K H H G H P A D D Z Z -.-.,.$.%.%.+.+.%.%.@.@.+.+.! ! / / / ^ S Z ) ) Y Y T I H H K K J J & & & % % % O O ",
"7.J % % % & & & 2 2 F F G G H P A D D ~ S S $.$. .! ! Q Q ! ! ! X.X.X.o.o.X.X. ./ / W S ` _ D A A P G G F F F 2 2 & & % % % O O ",
"J J % % % & & 2 2 2 F F G G P A A D D ~ S W $.%.X.! s > < 8 s 8 7 d X.O.o.o.X.X. ./ W W ` ` D D A P G G F F F 2 2 & & & % % + O ",
"% % % % % & & 2 2 F F G G H A A D D S W W Q #.X.o.! u v.H.> 9 : > 6 h O.O.O.O.o. .! Q Q / ^ ~ D A A H G G F F 2 2 2 & & % % + + ",
"% % % % % & & 2 F F F G G H A A D D W W Q Q #.o.o.! p  X%XB.}.J.B.; i v v O.O.O.X.X.Q Q / ^ ~ D D A P H G F F 2 2 2 & & % % + O ",
"+ + @ @ @ @ @ # # $ $ 1 1 n m V C Z W W Q Q d x c a u oX,X@X%X>XXXJ.5 z z c c c x x ! Q Q W S Z V m n n 1 1 $ # # @ @ @ @ @ + O ",
"O + @ @ @ @ @ # # $ $ 1 M n m V Z S W W Q ! x x c a 9 &X:X;X+X:X<X+X= i a z c c x x d d Q W S Z C V n n 1 1 $ # # @ @ @ @ @ + O ",
"0.0.J J J J 2 2 # $ G G H A D D 2.3.<.<.1.5.T.R.Y.v x.-X,X-X*X,X,XOXN.4 a z U.E.R.R.T.1.1.<.-.=.) ) A P 1 1 F F F 2 & & 0.0.J J ",
"0.0.J J J J 2 2 # $ G G H A D D 2.3.<.1.1.!.R.E.W.M.c.$X=X)./._.XX+Xy b 6 g I.Q.E.E.T.5.1.1.-.-._ ) A P 1 1 F F F 2 & & 0.0.J J ",
"J J J J J J J K $ $ G P z.z.] >.:.,.<.1.*.*.T.Y.W.W.G.. (.^.K.^.#X.X. b m.F.W.|.Q.E.T.*.&.%.,.-.) ( Y U 1 1 F F a.a.K J J 7.J J ",
"J J J J J J K K $ $ A D >.] ] >.:.,.<.1.*.*.T.Y.W.W.F..   , - , b.  . l m.F.W.|.Q.Q.T.*.*.%.,.-.) ( Y U 1 1 G F a.9.K J J J J J ",
"7.J J J 3 J J J @ @ d.E { { ] >.` -.,.%.*.*.T.Y.W.W.G.      . .   .   l m.D.F.W.W.Y.T.P.*.&.,.-.) ) Y U 1 1 d.d.L L K K J J J J ",
"7.7.7.7.* * * * O O 6.6.a.E | >.` -.,.%.*.*.T.Y.W.W.`..   .         . w z V.F.`.W.Y.T.P.*.&.,.-.) ) Y Y 1 1 d.d.L L K J J J J J ",
"* * * * * * % % O O 6.6.L T ) ) ` -.$.%.*.*.I.U.W.W.`.m..   . .   . q w z V.F.`.W.Y.I.*.@.@.../ ^ ~ A A M 1 d.d.L K J J J J J J ",
"* * * * 3 J & & @ @ d.E Y Y ) ) ` -.$.%.*.*.I.U.W.W.`.[.S.        4 e k n.S.F.F.W.Y.I.*.@.@.../ ^ ~ A A M 1 d.d.L K J J J J J J ",
"* * & & 2 2 F F $ $ Y ) ) Y Y ) ^ / ..+.*.*.I.U.F.F.`.`.].'.o o 0 0 r j n.S.F.F.Y.U.L.*.@.+./ ^ ~ D A A 1 1 I L L L K K J J * * ",
"* * % & & 2 2 F $ $ T Y Y Y ) ) / / #.+.*.*.I.U.F.F.`.[.].'.. . q r j n.m.D.F.F.Y.U.L.O.@.+./ ^ ~ D A P 1 1 I L L K K K J 3 * * ",
"% % % & & & 2 F # $ I I P A D D ~ ^ /  .o.o.L.I.Z.F.`.`.].].    t k j l m.V.Z.Z.I.I.O.o. ./ / ^ D D A P 1 1 L L F F & & & % % % ",
"% % % & & 2 2 F # $ I I P A D D ~ ^ / / X.o.O.L.U.Z.F.`.[.{.. . l l l m.V.Z.C.C.I.L.O.o. ./ / ^ D D A P 1 1 L L 2 2 & & & % % % ",
"% % % % & & & $ # $ G G P P A D ~ ~ / / X.o.O.O.I.I.C.F.F.D.X X z t z m.V.C.I.I.O.O.o.X./ / ^ ~ D D B N 1 1 F F 2 2 & & & & % % ",
"% % % % & & & $ # $ G G P P A D D ~ / / X.X.o.O.L.L.U.C.F.Z.. . z g z m.A.C.I.L.O.O.o.X./ / ^ ~ D D B N 1 1 F F 2 2 & & & & % % ",
"O + + @ @ @ @ @ # # $ 1 1 m m m C C S W Q f ! d x x v v M.M.    i i a z c v c x d d Q Q W S Z C V m n M 1 $ $ # # @ @ @ @ @ + O ",
"O O + @ @ @ @ @ # # $ 1 1 M n m C C S S Q Q ! d x x c v v v . . i i a g c c x x d ! Q Q W S Z C V m n 1 1 $ $ # # @ @ @ @ @ + + ",
"% % % % & & l.l.9.a.a.d.T R T Y ) ) ~ ~ W W  . .X.o.o.O.~.T.. . f s d o.O.*.*.*. . .W W ^ ~ D D A A h.h.d.d.a.9.K J J J % % + O ",
"% % % % y.s.l.l.9.a.a.d.T R T Y Y ) D ~ S W / / X.X.o.o.!.!.. . s s f X.o.*.*.&. ./ W S ~ ~ D D P P h.j.d.a.a.9.J J J J % % O O ",
"% % y.y.0.0.r.r.9.9.L L I I I T U Y Y ( Z S ^ / 4.4.1.1.1.1.. . 7 7 8 Q  .$.#.#.../ S Z D D ] z.E E T d.a.a.L K J J J 3 * * @ + ",
"y.y.y.y.0.0.0.r.8.9.L L L I I I P Y Y Y C Z ^ ^ 3.4.<.1.1.<.#./ S 7 S Q  .$...../ / Z C D D z.z.E R T d.a.a.K K J J J 3 3 * @ + ",
"0.0.0.0.0.0.J J J K K L L L I I P P Y Y V C >.>.>.:.,.<.,.../ ~ S Z S ^ / -./ / ^ ) C V ' { E E R T I L K K K K J J J 3 * * O + ",
"0.0.0.0.0.0.J J J J K L L L I I P P P Y m V | | >.>.,.,.-.-./ ^ S S ~ ^ / =.^ ^ ) ) V V { E E R T d.L L K K K K J J J 3 * * O O ",
"0.0.J J J J J J J J J J K K K H H H H H n m ] ] ) ) ) _ _ _ ) ) S S D D ~ ) ( Y D D m n E E I I I L L K K K J J 3 3 * 3 % % O O ",
"0.0.J J J J J J J J J J J K K K H H G G n n { { Y Y ) ) ) ) ) ) D D D Y Y Y Y Y A A n n E R I I L L L K K J J J 3 * * * % % O O ",
"J J J J J J 3 * 3 J J J J J F F F F G G 1 1 T T Y Y Y Y Y Y Y Y Y Y Y Y A A A A P P 1 1 I I I L L L K K J J J 3 % % % % % % O O ",
"J J J J J J * * 3 3 J J J J 2 2 F F F G 1 1 I T T T T Y U Y Y Y Y Y Y U P P P P H G 1 1 I I L L L L K J J J J 3 % % % % % % O O ",
"7.J % % % % % % % & & & & & 2 2 2 2 F F $ $ I I G G G G H H H H H H H H G G G G G G $ $ L L F 2 2 2 & & & & & % % % % % % % O O ",
"7.J % % % % % % % % & & & & & 2 2 2 F F $ $ I I G G G G G G G G G G G G G G G G G F $ $ L L 2 2 & & & & & & % % % % % % % % O O ",
"% % % % % % % % % % % % % & & & 2 2 $ $ # # F F F F F F F G G G G G F F F F F F 1 1 # # 2 2 2 2 & & & & & % % % % % % % % % O O ",
"% % % % % % % % % % % % % % & & & & & & # # 2 F F F F F F F F F F F F F F F F F $ $ # # 2 2 2 & & & & & % % % % % % % % % % O O ",
"O O O O + + + O O O + + @ @ @ @ @ @ @ @ @ @ @ # # # # # # # # # # # # # # # # # # @ @ @ @ @ @ @ @ @ + + + O @ @ @ + + + O O O O ",
"O O O O + + + O O O @ @ @ @ @ @ @ @ @ @ @ @ @ @ @ @ @ @ @ @ @ # # @ @ @ # @ @ @ @ @ @ @ @ @ @ @ @ @ @ O O O @ @ + + + + O O O O ",
"6.6.7.7.7.J % % O O % % % % % % y.y.0.r.r.r.r.r.J J J J 2 2 @ @ 2 2 2 2 2 2 l.l.r.r.r.r.r.0.J J J J % % O O % % % % % % 6.6.7.7.",
"6.6.7.7.7.7.% % O O % % % % % % y.y.0.0.0.0.0.0.J J J J & & @ @ & & & & & & s.s.0.0.0.0.0.0.J J J J % % O O % % % % % % 6.6.7.7.",
"7.7.7.7.* * * * O O % % y.y.0.0.0.0.0.0.J J J J J J J J J J @ @ & & s.s.0.0.r.r.0.0.J J J J J J * * * * @ + % % 6.6.7.7.7.7.7.7.",
"7.7.7.7.* * * * O O % % y.y.0.0.0.0.0.0.J J J J J J 3 3 J J @ @ & & y.s.0.0.0.0.0.0.7.J J J J J * * * * @ + % % 6.6.7.7.7.7.7.7.",
"7.7.7.7.* * * * O O 6.6.6.6.6.0.J J J J J J J J J J 3 * * * + + 0.0.0.0.0.0.J J J J J J J J J J * * * * + + 0.q.7.7.7.7.7.7.7.7.",
"7.7.7.7.* * * * O O 6.6.6.6.6.0.J J J J J J J J J J * * * * O O q.q.q.0.0.0.J J J J J J J J J J * * * * O O q.q.J 7.7.7.7.7.7.7.",
"* * * * * * % % O O 6.6.7.J J J J J J J * * * * * * * * % % O O q.q.J J J J J J J J * * * * * * * * % % O O 6.6.J * 7.7.7.7.7.7.",
"* * * * * * % % O O 6.6.7.7.7.7.7.7.J J * * * * * * * * % % O O 6.6.J J J J J J J J * * * * * * * * % % O O 6.6.7.7.7.7.7.7.7.7.",
"* * % % % % % % O O 7.7.7.7.7.7.* * * * * * * * % % % % % % O O J J J J J J * * * * * * * * % % % % % % O O 7.7.7.7.7.7.* * * * ",
"* * % % % % % % O O 7.7.7.7.7.7.* * * * * * * * % % % % % % O O 7.7.7.7.7.7.* * * * * * * * % % % % % % O O 7.7.7.7.7.7.* * * * ",
"% % % % % % % % O O 7.7.% % % % % % % % % % % % % % % % % % O O 7.7.% % % % % % % % % % % % % % % % % % O O 7.7.% % % % % % % % ",
"% % % % % % % % O O 7.7.% % % % % % % % % % % % % % % % % % O O 7.7.% % % % % % % % % % % % % % % % % % O O 7.7.% % % % % % % % ",
"% % % % % % % % O O % % % % % % % % % % % % % % % % % % % % O O % % % % % % % % % % % % % % % % % % % % O O % % % % % % % % % % ",
"% % % % % % % % O O % % % % % % % % % % % % % % % % % % % % O O % % % % % % % % % % % % % % % % % % % % O O % % % % % % % % % % ",
"O O O O O O O O O O O O O O O O O O O O O O O O O O O O O O O O O O O O O O O O O O O O O O O O O O O O O O O O O O O O O O O O ",
"O O O O O O O O O O O O O O O O O O O O O O O O O O O O O O O O O O O O O O O O O O O O O O O O O O O O O O O O O O O O O O O O "
};
