/* XPM */
static char *_6444b48c9ea4b5edeb1a2939d51311feFbCS6ogJk0IdsAV[] = {
/* columns rows colors chars-per-pixel */
"64 64 7 1 ",
"  c #2D2D2D",
". c #323232",
"X c #373737",
"o c #3C3C3C",
"O c gray25",
"+ c #464646",
"@ c #4B4B4B",
/* pixels */
"XXXXXX@@++++++OOOOXX  XXXXXX@@++++++OOOOXX  XXXXXX@@++++OOOOXX  ",
"XXXXXX@@++++++OOOOXX  XXXXXX@@++++++OOOOXX  XXXXXX@@++++OOOOXX  ",
"XX@@++++++OOOOOOoooo  XX@@++++++OOOOOOoooo  XX@@++++++OOOOoooo  ",
"XX@@++++++OOOOOOoooo  XX@@++++++OOOOOOoooo  XX@@++++++OOOOoooo  ",
"++++++OOOOOOOOOOoooo  ++++++OOOOOOOOOOoooo  ++++++OOOOOOOOoooo  ",
"++++++OOOOOOOOOOoooo  ++++++OOOOOOOOOOoooo  ++++++OOOOOOOOoooo  ",
"++OOOOOOOOooooooooXX  ++OOOOOOOOooooooooXX  ++OOOOOOOOooooooXX  ",
"++OOOOOOOOooooooooXX  ++OOOOOOOOooooooooXX  ++OOOOOOOOooooooXX  ",
"OOOOOOooooooooXXXXXX  OOOOOOooooooooXXXXXX  OOOOOOooooooXXXXXX  ",
"OOOOOOooooooooXXXXXX  OOOOOOooooooooXXXXXX  OOOOOOooooooXXXXXX  ",
"OOXXXXXXXXXXXXXXXXXX  OOXXXXXXXXXXXXXXXXXX  OOXXXXXXXXXXXXXXXX  ",
"OOXXXXXXXXXXXXXXXXXX  OOXXXXXXXXXXXXXXXXXX  OOXXXXXXXXXXXXXXXX  ",
"XXXXXXXXXXXXXXXXXX..  XXXXXXXXXXXXXXXXXX..  XXXXXXXXXXXXXXXX..  ",
"XXXXXXXXXXXXXXXXXX..  XXXXXXXXXXXXXXXXXX..  XXXXXXXXXXXXXXXX..  ",
"                                                                ",
"                                                                ",
"++OOOOXX  XXXXXX@@++++++OOOOXX  XXXXXX@@++++++OOOOXX  XXXXXX++OO",
"++OOOOXX  XXXXXX@@++++++OOOOXX  XXXXXX@@++++++OOOOXX  XXXXXX++OO",
"OOOOoooo  XX@@++++++OOOOOOoooo  XX@@++++++OOOOOOoooo  XX++OOOOOO",
"OOOOoooo  XX@@++++++OOOOOOoooo  XX@@++++++OOOOOOoooo  XX++OOOOOO",
"OOOOoooo  ++++++OOOOOOOOOOoooo  ++++++OOOOOOOOOOoooo  ++OOOOOOOO",
"OOOOoooo  ++++++OOOOOOOOOOoooo  ++++++OOOOOOOOOOoooo  ++OOOOOOOO",
"ooooooXX  ++OOOOOOOOooooooooXX  ++OOOOOOOOooooooooXX  ++OOOOOOOO",
"ooooooXX  ++OOOOOOOOooooooooXX  ++OOOOOOOOooooooooXX  ++OOOOOOOO",
"ooXXXXXX  OOOOOOooooooooXXXXXX  OOOOOOooooooooXXXXXX  OOOOOOoooo",
"ooXXXXXX  OOOOOOooooooooXXXXXX  OOOOOOooooooooXXXXXX  OOOOOOoooo",
"XXXXXXXX  OOXXXXXXXXXXXXXXXXXX  OOXXXXXXXXXXXXXXXXXX  OOXXXXXXXX",
"XXXXXXXX  OOXXXXXXXXXXXXXXXXXX  OOXXXXXXXXXXXXXXXXXX  OOXXXXXXXX",
"XXXXXX..  XXXXXXXXXXXXXXXXXX..  XXXXXXXXXXXXXXXXXX..  XXXXXXXXXX",
"XXXXXX..  XXXXXXXXXXXXXXXXXX..  XXXXXXXXXXXXXXXXXX..  XXXXXXXXXX",
"                                                                ",
"                                                                ",
"XXXXXX@@++++++OOOOXX  XXXXXX@@++++++OOOOXX  XXXXXX@@++++OOOOXX  ",
"XXXX@@@@++++++OOOOXX  XXXXXX@@++++++OOOOXX  XXXXXX@@++++OOOOXX  ",
"XX@@++++++OOOOOOoooo  XX@@++++++OOOOOOoooo  XX@@++++++OOOOoooo  ",
"@@@@++++++OOOOOOoooo  XX@@++++++OOOOOOoooo  XX@@++++++OOOOoooo  ",
"++++++OOOOOOOOOOoooo  ++++++OOOOOOOOOOoooo  ++++++OOOOOOOOoooo  ",
"++++++OOOOOOOOOOoooo  ++++++OOOOOOOOOOoooo  ++++++OOOOOOOOoooo  ",
"++OOOOOOOOooooooooXX  ++OOOOOOOOooooooooXX  ++OOOOOOOOooooooXX  ",
"++OOOOOOOOooooooooXX  ++OOOOOOOOooooooooXX  ++OOOOOOOOooooooXX  ",
"OOOOOOooooooooXXXXXX  OOOOOOooooooooXXXXXX  OOOOOOooooooXXXXXX  ",
"OOOOOOooooooooXXXXXX  OOOOOOooooooooXXXXXX  OOOOOOooooooXXXXXX  ",
"OOXXXXXXXXXXXXXXXXXX  OOXXXXXXXXXXXXXXXXXX  OOXXXXXXXXXXXXXXXX  ",
"OOXXXXXXXXXXXXXXXXXX  OOXXXXXXXXXXXXXXXXXX  OOXXXXXXXXXXXXXXXX  ",
"XXXXXXXXXXXXXXXXXX..  XXXXXXXXXXXXXXXXXX..  XXXXXXXXXXXXXXXX..  ",
"XXXXXXXXXXXXXXXXXX..  XXXXXXXXXXXXXXXXXX..  XXXXXXXXXXXXXXXX..  ",
"                                                                ",
"                                                                ",
"++OOOOXX  XXXXXX@@++++++OOOOXX  XXXXXX@@++++++OOOOXX  XXXXXX++OO",
"++OOOOXX  XXXXXX@@++++++OOOOXX  XXXXXX@@++++++OOOOXX  XXXXXX++OO",
"OOOOoooo  XX@@++++++OOOOOOoooo  XX@@++++++OOOOOOoooo  XX++OOOOOO",
"OOOOoooo  XX@@++++++OOOOOOoooo  XX@@++++++OOOOOOoooo  XX++OOOOOO",
"OOOOoooo  ++++++OOOOOOOOOOoooo  ++++++OOOOOOOOOOoooo  ++OOOOOOOO",
"OOOOoooo  ++++++OOOOOOOOOOoooo  ++++++OOOOOOOOOOoooo  ++OOOOOOOO",
"ooooooXX  ++OOOOOOOOooooooooXX  ++OOOOOOOOooooooooXX  ++OOOOOOOO",
"ooooooXX  ++OOOOOOOOooooooooXX  ++OOOOOOOOooooooooXX  ++OOOOOOOO",
"ooXXXXXX  OOOOOOooooooooXXXXXX  OOOOOOooooooooXXXXXX  OOOOOOoooo",
"ooXXXXXX  OOOOOOooooooooXXXXXX  OOOOOOooooooooXXXXXX  OOOOOOoooo",
"XXXXXXXX  OOXXXXXXXXXXXXXXXXXX  OOXXXXXXXXXXXXXXXXXX  OOXXXXXXXX",
"XXXXXXXX  OOXXXXXXXXXXXXXXXXXX  OOXXXXXXXXXXXXXXXXXX  OOXXXXXXXX",
"XXXXXX..  XXXXXXXXXXXXXXXXXX..  XXXXXXXXXXXXXXXXXX..  XXXXXXXXXX",
"XXXXXX..  XXXXXXXXXXXXXXXXXX..  XXXXXXXXXXXXXXXXXX..  XXXXXXXXXX",
"                                                                ",
"                                                                "
};
