/* XPM */
static char *b859e1f4e50c43d9fc3968307943c7975q4gHzMqvSG4R2QE[] = {
/* columns rows colors chars-per-pixel */
"64 65 181 2 ",
"   c #1E1E1E",
".  c #1E1E20",
"X  c #2B2A25",
"o  c #262628",
"O  c #2D2C2A",
"+  c #302F2D",
"@  c #33322E",
"#  c #3A332D",
"$  c #312F30",
"%  c #353534",
"&  c #393536",
"*  c #373834",
"=  c #3A3A36",
"-  c #35363D",
";  c #373938",
":  c #3C3C3B",
">  c #413F3B",
",  c #3E403E",
"<  c #42423E",
"1  c #49423A",
"2  c #3C3D42",
"3  c #3B3F48",
"4  c #413F40",
"5  c #3E4144",
"6  c #3E4149",
"7  c #444444",
"8  c #4B4644",
"9  c #464847",
"0  c #4A4945",
"q  c #43454B",
"w  c #494748",
"e  c #46494C",
"r  c #4B4C4C",
"t  c #544D47",
"y  c #504F4D",
"u  c #4E504E",
"i  c #52514E",
"p  c #59524C",
"a  c #424651",
"s  c #464A52",
"d  c #4B4D52",
"f  c #474E58",
"g  c #4B4F59",
"h  c #4E5154",
"j  c #4E525B",
"k  c #525354",
"l  c #595754",
"z  c #575855",
"x  c #5A5955",
"c  c #52555B",
"v  c #55595D",
"b  c #5A5B5D",
"n  c #615E5B",
"m  c #5E605E",
"M  c #63615E",
"N  c #4F5560",
"B  c #525661",
"V  c #555A63",
"C  c #5A5D63",
"Z  c #565D68",
"A  c #5A5F69",
"S  c #605F65",
"D  c #5D6165",
"F  c #576069",
"G  c #5D636B",
"H  c #5F686F",
"J  c #5F6671",
"K  c #5F6871",
"L  c #636465",
"P  c #6B6965",
"I  c #61656C",
"U  c #64696E",
"Y  c #6A6B6C",
"T  c #706B67",
"R  c #6C716D",
"E  c #626771",
"W  c #626971",
"Q  c #646871",
"!  c #666970",
"~  c #656A70",
"^  c #666B71",
"/  c #646B73",
"(  c #666A73",
")  c #676C70",
"_  c #656C72",
"`  c #676C72",
"'  c #656974",
"]  c #666D75",
"[  c #676E74",
"{  c #676E76",
"}  c #646B73",
"|  c #686B70",
" . c #696C71",
".. c #6A6E71",
"X. c #696C73",
"o. c #6B6F73",
"O. c #686C75",
"+. c #686F75",
"@. c #6A6F75",
"#. c #686C77",
"$. c #686F77",
"%. c #6A6E77",
"&. c #696E74",
"*. c #676E78",
"=. c #666E78",
"-. c #686F79",
";. c #696F79",
":. c #716F70",
">. c #677077",
",. c #6A7275",
"<. c #697076",
"1. c #6B7076",
"2. c #6C7177",
"3. c #6D7276",
"4. c #6B7176",
"5. c #677079",
"6. c #697078",
"7. c #6A7179",
"8. c #6B7278",
"9. c #6B727A",
"0. c #697279",
"q. c #6C7079",
"w. c #6E7379",
"e. c #6C737B",
"r. c #6D717A",
"t. c #6B747B",
"y. c #6C757A",
"u. c #6F737C",
"i. c #6D747C",
"p. c #6E757D",
"a. c #6D757E",
"s. c #6E757F",
"d. c #6B737B",
"f. c #6F787F",
"g. c #6F787F",
"h. c #727374",
"j. c #787471",
"k. c #70747D",
"l. c #71767C",
"z. c #71757C",
"x. c #71787E",
"c. c #74797F",
"v. c #757A7D",
"b. c #74797E",
"n. c #7C7C7A",
"m. c #6E7681",
"M. c #6F7882",
"N. c #6E7788",
"B. c #717781",
"V. c #717980",
"C. c #727981",
"Z. c #747B83",
"A. c #767A83",
"S. c #737A84",
"D. c #737B83",
"F. c #797D83",
"G. c #767E89",
"H. c #797F89",
"J. c #778086",
"K. c #7B8087",
"L. c #77808B",
"P. c #798088",
"I. c #7A8189",
"U. c #7C838B",
"Y. c #7B8594",
"T. c #7E8892",
"R. c #7B869A",
"E. c #7F8B99",
"W. c #808185",
"Q. c #80898E",
"!. c #838892",
"~. c #858E9A",
"^. c #86919D",
"/. c #8A939D",
"(. c #828DA1",
"). c #8C96A5",
"_. c #8F98A7",
"`. c #9099A2",
"'. c #919EAF",
"]. c #95A3B3",
"[. c #9AA5B4",
/* pixels */
"              .                             .                                         .     .                     .             ",
"z z r d h h d r e r k r e w w d r k d d w r 9 r d d w r w r 7 U 2.6 h c 7 k z q 7 V D F U C b 7 r c D w D c C j c c I I C I j D ",
"; d + 9 7 @ 7 k k w r h : u w 9 9 c w d * r 9 9 2 L r k 7 7 h % q : 7 7 7 = ; D v : 9 7 7 7 : e X.% 9 : 7 r : w L m = 7 9 7 7 O ",
"e b c c z c 7 q b v b b b b z r h L h h k v U w I V L w b b c k - L ^ U ^ v Z r C ^ 2.8.1.X.D 7 L U U G O.^ C.Z I X.L C U I C 7 ",
"d U X.^ | U V ^ h C s.8.x.u.) c c I ^ U ^ 1.S =.I I c.D D I D V q 2.8.X.I ( U 9 D ^ g.7.2.X.v d X.C O.I s.C I j v v P.U U D D q ",
"v U l.V.X.F l.w C D 8.7.8.1.U d V L I ^ ) 7.Z V g w h P.X.U G Z 6 8.C.X.J b r c I ] O.O.O.^ v r ^ G ^ ) s.G Z c 8.% Z c.U U I s ",
"e U V.V.O.G 0 7 D G s.O.7.s.^ d v I ] ^ 7.s.D j I ^ & c c.^ ^ D a 8.y.-.G b k v L -.7.7.s.7.D s U O.1.0.D.^ F v ] c , P.1.O.W s ",
"V I 7.8.G U k v I D 7.1.7.s.7.j V I s.7.m.M.) V F I V : K.y.7.W f / 7.H D r Z Z G ) 0.) ) 7.v j U U 7.7.a.] / V O.I 7 D c.7.O.s ",
"D ^ >.W d.u D h ) D s.7.I ^ ^ d D W U ^ -.Q I V ( U 5.w c P.7.I h ] H D k 1.G d I s.s.] ^ U C f I G ] ] W H H j U ] u.% z.x.W e ",
"d U H F r I m.D e U Z.s.X.] ^ c f b W =.] / ] F s D s.D.: c z.I q V / k I u.] j L Z.M.( ) ^ Z j L I 7.>.] ] J g b ] V.] + z.O.s ",
"=.G F ] k d.] F ^ U U.7.O.1.] j I 1.W 7.=.( ( V G U 7.s.( ; K.I s F W d =.( =.V U Z.V.7.s.7.I c V.W ] d.=.] G V O.] s.a.7 b C.a ",
"H G d.u H ) d.F Q U P.V.V.V.8.c I O.=.=.7.7.] V D U d.l.5.7 d Z.j a.w / I d.H F U V.C.m.V.s.I B z.) 7.s.=.7./ B 8.] 8.s.] O O.-.",
"D F z b W ( ] c H I Z.s.s.M.a.Z I O.d.d.a.] 7.V H 7.] s.s.) % c l.7 C I ) / A V W V.V.s.s.7.-.V z.s.7.m.] 5.K V x.W 0.7.X.V O 8.",
"V O.w X.W u.] B ^ I V.s.d.7.s.F H 8.Z.W 7.=.W V -.s.] 7.X.U V % W d =.I 8.] H V ] O.Z.7.-.a.=.j ,.U.( W ] W F c l.W 7.2.O.D 7 h ",
"V.c ] O.W 7.] B h U D.V.7.a.d.E q U !.7.] / J V h I ) 7.s.) A w e 7.a.O.s.^ H 6 D 7.P.s.m.m.=.q k b.Q.P.W G V s b U -.g.O.D F : ",
"] X.s.7.d.u.W j =.I a.V.a.G.V.B E I 1.P.P.H A q H O.) 1.y.U F V f m.D.-.V.d.V Y./.I V.m.U.G.^ / [.b y.F.s.J V K ].L s.s.y.F V G ",
"7.s.L.Z.D.G.G.j ).U.V.G.M.G.Z.] G.~.1.x.H.Z.m.E Y.~.X.H.s.s.] H 7.=.V./ s.G.J f I Y.L.D.C O.Z.f X.z.V.=.l.Z.m.j ) s.P.s.D s.F b ",
"I h r e ; d d 2 = h C z d : w s ; k z z , c d q 2 d v v 7 9 d % 9 * * * * : O : h : 7 9 : : * % k ; 7 < : : + ; c : 7 w 7 5 ; % ",
"G.D k h k k k ; Z k h V b v c 7 r b r v C k r % v C b I U L D k s I W U ^ ^ V Z U V ^ ) 2.I D e 7.C D O.I A j j Z.O.V.J.H.m.( f ",
"B.D U -.Q u.W c H C J O.I O.C c C 2.C D 7.G I e u.O.V.V.Z.Z.a.H j U u.( d.7.A V D W 7.L O.C Z d 8.D D ] ] ) B Z l.y.B.V.l.s.=.f ",
"l.V ] s.=.s.5.B =.D 5.] W W L v I ^ I ^ ] s.D s d.) l.s.u.8.7./ s I d.a.d.s.J B U I ) ^ 7.G W f z.C ^ ^ a.O.j V 8.O.8.s.8.s./ s ",
"v b / s.a.a.-.J k D / ] ^ 7.H D d Y D Q -.s.O.j c U s.7.s.s.d.K a D s.a.u.d.5.c b I 7.^ -.C G s X.L D ] d.O.V g D 7.7.d.y.m.] j ",
"O.b D s.-.s.7.F H c 7.u.=.Q C c D X.D I ] ( Z f / I 7.^ ] u.7./ f U -.( d.u.F V D I d.7.7.L D j X.D I ] W H j V / W I W ^ =.W s ",
"-.C V.W / d.U j Z c ] 0.7.u.^ c V C U U 7.H Z q G C ( D I G ] V f O.I W W H f V ) I O.>.V.=.A e 8.D W 5.I v d v 8.D D H G W F 3 ",
"( b D G W H C q (.V.X.] 7.B.u.c m.P.L W 7.I Z f E.P.I K =.W H / f O.D W 7.D Z M.~.X.^ W V.D.^ / ].U 1.d.D.^ Q m.].G / 7.] W / H ",
"C ] F.>.I 1.1.Q D U m.U G O.L.( F c.H.U.I U.l.=.H y.=.5.H C B.v D b I d k c v : u F c h 9 U v : r D U r k b D 6 D d j g = v 7 9 ",
"I 7 9 9 = < : % 7 w 9 < 7 9 w = = 7 : 7 : 7 7 % d d : 7 % * : ; q 9 w w w 7 ; 9 z w r r V r 7 ; b < r k h r 7 d U w b r w h r : ",
"Y b I I D I D d C D D ^ G O.I k c I U ^ I U ^ j Q ] ^ 8.Z I I V e I O.W 8.X.G j Y D ^ ^ U U ( g 8.U ^ W H ] H V Z.^ s.] I U L e ",
"D D ) O.O.s.] V V D D 3.U W ) J Z ^ ] W U H =.V H 1.8.V.] ^ U F s ^ 7.7.V.] J c U C ] 7./ ] d.V a.^ B.H G J Z V s.] D.l.) ^ U s ",
"O.I ^ ] 7.u.] V Z L C l.] O.5.W G X.z.u.D D C j / 2.7.Z.8.O.) H s ] I O.7.] I s D b ] 8.^ ] 8.s ) O.M.I G Z Z g y.] Z.x.) X.( a ",
"d I O.U =.d.] V h D b y.X.^ W ( 6 L 8.7.( I Z F d y.d.P.7.( ) W q 7.-.7.V.7.F c U C U 8.) / 7.e C ) s.d.H F ] B s.] D.s.I O.O.s ",
"Q L O.>.s.V.^ V F D D 8.O.2.] H c C O.s.] D K V F 1.] C.] U -.I s ^ -./ B./ G c D D I -.7.^ =.s Z D ^ =.H / / e W I O.7.I O.^ q ",
"D D I 7.c O.] j Q ^ V C X.] D V c D V ( ] ] ] B s U V I ^ ^ ^ F 6 D s.k I u.C =.^.U C O.d.^ G F Y.D O.) ( ] F B ~.L Z d.7.I W a ",
"U I X.-.v V.7.v ~.T.U I V.G.m.W Y.T.Y O.) O.7.V Y.^.D I V.u.O./ D X.I U H ^ 7.A Z.h.1.-.P.D.H.=.Z.U D.W a.M.D.G !.( l.G.Q Z./ X.",
"k w k k r w v V w U D b c b C D s C v ] c D I F d v ^ X.j z U d k = r 9 = 9 w : z r w 9 : 9 9 ; r k r r 7 w w 5 9 9 h r < r 7 ; ",
"2.c k c k r k : c b r z c w 7 ; s b r r d 9 9 % d h : r h k u r q H I ] C ^ Z c U C V.8.D z c d l.C I D D Z j f g.h U ] Q O.^ e ",
"Q I W ^ / I O.f Z D U l.^ C v h Z 2.D W W Q H s -.7.Z 5./ W u.] e I -.] W W V j ) I ) D D C Z s l.D W W I H V c J.V 7.W Q ] 7.s ",
"D D / 7.W W ] V I v ^ I C D D c Z U W / W G H s W ^ H 7.W D ^ / s ^ >.] / d./ ] c I I z D Z F V 7.) =.5.U W Z j J.F O.] G K ] s ",
"I G W ] =.] W G W U C U v D C G V X.7.] d.W K j F 1.H ] U H W K q G O.W / V k Z R I h.7.Z D d.s D =.] 5.W H Z s ) F ] W H W W s ",
"r k =.W G G d 7 g b ^ s.d.D d.F s C / W / H F j v G H ] I I W J s / 7.D H V 2 w d 2.C U D s.Q s D F I W H H V d s.F O.W F U W s ",
"L D 7.7.( G F 2 h D L v C ^ V.j d b G W ( W H f C I ) 7.^ H ^ H f ^ 8.,.O.F V j 7.C D Z W s.V s O.C / ] ] Q V j 0.Q =.( D H D 7 ",
"W D X.2.8.O.U V G.G.I ] ] s.] s N.P.F ] 8.B.U N D.P.] 7.>.H Z V q 7.7.s.V.y.O.M._.I s.s.Z.] I -.'.I 7.7.D.1.W / [.G 7.u.7.D J N ",
"Z U s.V.7.G.U.=.m.C.I G.d.7.d.^ =.Z.7.Z.d.V.G./ =.U.^ G.( ] m.K G h b h z G V d D h V C d Z v q D c I c C I W q C C ^ G d O.V v ",
") 9 7 7 : 7 7 = w w 9 9 9 7 : @ w k 7 9 ; 9 9 2 - r r k e 9 k : e 9 d h r e 7 9 v 9 k k c 7 = q O.9 r 7 r 9 ; % v r r h r w 9 % ",
"/ c V I D D F h A C Z ] 8.W U s I X.G H G ^ H s A W 8.G U I C c q c I H I H Z V 1.C W M.( s.Q j V.Z =./ O.7.I V Z.B.X.1.X.U I q ",
"8.v F I W Q H h ] U D ] 7.W g.V I O.L ] O.^ a.B W 7.c.U ^ X.U G s V H J O.H V B d.L ) d.I >.=.B V.F ] O.^ 7./ B l.z.I ^ ) ^ U q ",
"-.V Z F / -.H j G ^ U 7.7.H 7.F H 7.I W ^ I / F G 7.z.D ^ O.( G j V F H d./ Z g y.I O.7.Q =.=.g 8.I I U W F 7.e 7.x.L I O.-.W q ",
"C U F F H 7.D c j 1.^ O.( W 5.G f I U I U W H W 2 X.z.L U O.7.G 6 F F F >.F C f 7.I ^ I D ] ( g I C U U ) D K f I 8.I U ^ 7.W a ",
"l.m V Z G ] F g Q O.I I G Z ] V Z U C I U W A N H X.O.I I ^ -.H f V V Z / J c c s.D D I D W H j ] v L W ^ H V j 7.X.U ( U =.W s ",
"u.D j c Z ] Z 6 D U Z C I H I j v I c C W W D j c I | G W W W F s v j V O.G s A T.c A D ] W V V U.k V D ^ F V B U.U D L U G D a ",
"O.U I V I 7.H f R.Z.V H D =.G j L.D.D D U ^ G e G.T.L D U D F C j 8.] J 7.d.=.G D.D =.I ( U D J B.Y ) U X.5.G V ~.I 7.O.U I L Z ",
"D c b H c D I Z g C Z D V c I h s c b ) c L ^ V f D ^ ^ z C G V j * e w 7 d e : h w r r : d 7 % 9 0 d 9 7 r d : d c h w 7 r 6 7 ",
"V.d 4 7 w w r : w g 7 9 r 9 w : 9 d r 9 r 7 9 : w k u r h 9 : * q z c C D F V d ^ c L I D D Z j ^ b G D C C c s U L U U C h d ; ",
"-.C D D D D I c W I I 7.I I 7.C / U | 7.U ) ^ B G O.2.k.X.C V c 7 D D D G I F c 1.D u.I G 7./ V V.L 1.^ 1.] Q j Z.O.z.8.D V V 7 ",
"( V U I I I I V F G ] ] H ] u.Z ^ ^ U 1.1.7.>.V Z X.y.2.X.D C c q I U Q I I G c 1.U 7.G ^ u.=.Z M.L 8.X.O.7.W j 7.2.| %.G Z V 6 ",
"X.b I X.^ ^ I V V U ( 5.U O.u.A I U U X.D O.7.Z V X.2.| ( L Z c 2 I 7.7.7.^ D g L U ^ 1.8.d.( f I L ) k L O.d.s I 8.O.) U D C 2 ",
"I Y z.V.B.u.^ c D I I W -.8.O.Z h L Y U i U 7.^ d Y 7.^ U ] D c 2 F.V.G.V.s.H Z Z.C ^ ) 2.) L k U L l.b ^ d.7.c 2.O.U ^ O.^ A 6 ",
"!.X.K.V.G.G.V.V ] X.C O.O.X.^ c C C U 8.Y s.d.D C I X.O.%.^ Q V s h.U.s.G.H.d.c l.x ] O.^ ( F d U b X.4.| V.| d I ) G.Z.8.-.J 6 ",
"%.P V.U.V.H.c.c l.h.| 7.Y | U w -.4.x P Y b 4.v V z.x.F.K.c.8.Z e C.F.c.K.h.T O./.4.s.h.4.) l I _.M Y ..U M Y G `.h.h.W.H.2.| j ",
"I U v.P Y h.M Y V.F.X.:.Y h.Y i B.c.Y h.l...L %.u.!.Y j.H.F.l.G.A D p b y t Y c l.n P C n L Y r L C h.C M Y K.B 2.x.n.Z.U K.z.X.",
"z k < 7 7 # 1 > w x 8 t w 0 r v @ i 7 b 7 0 L U w b ..Y c y U k c < : 7 : = @ * 7 = * < , : = = > * > < = > 7 7 0 z 8 r < 7 7 @ ",
"L y r k d h w % w r : < < 9 : X w 7 = = < > * O d k < 0 r w 9 7 : k c b c c 9 9 L r b 0 w w = 7 k 7 0 < 7 7 ; s ..r z b i r D % ",
"z 7 k u z r z % r r 7 k 7 < 7 o z 9 : < < > : % h r w r k 9 9 r 2 r i r k k r e L : r r 7 w % e k 7 7 k 9 9 7 2 0 r r k k 0 z - ",
"b b k b L x z d Y m d k k z k 7 k y d z L v z w 9 k b b M b z z D z z U x z k L Y z z b b z k r k u b L b z l k z k b b x k i I ",
"r x z b L b x M P z.M M P P M m P P x L L x b Y Y Y b P L P n L L 7 9 9 w 0 r r k u r i r r w w r 0 0 9 0 w r d r r r r r r r w "
};
