/* XPM */
static char *_2b212a674164368a9bca008d3edef8e9llSyMGY8lrqFHqA[] = {
/* columns rows colors chars-per-pixel */
"64 64 92 1 ",
"  c gray7",
". c #131313",
"X c gray8",
"o c #151515",
"O c #161616",
"+ c gray9",
"@ c #181818",
"# c #191919",
"$ c gray10",
"% c #1B1B1B",
"& c gray11",
"* c #1D1D1D",
"= c #1E1E1E",
"- c gray12",
"; c #202020",
": c gray13",
"> c #222222",
", c #232323",
"< c gray14",
"1 c #252525",
"2 c gray15",
"3 c #272727",
"4 c #282828",
"5 c gray16",
"6 c #2A2A2A",
"7 c gray17",
"8 c #2C2C2C",
"9 c #2D2D2D",
"0 c gray18",
"q c #2F2F2F",
"w c gray19",
"e c #313131",
"r c #323232",
"t c gray20",
"y c #343434",
"u c #353535",
"i c gray21",
"p c #373737",
"a c gray22",
"s c #393939",
"d c #3A3A3A",
"f c gray23",
"g c #3C3C3C",
"h c gray24",
"j c #3E3E3E",
"k c #3F3F3F",
"l c gray25",
"z c #414141",
"x c gray26",
"c c #434343",
"v c #444444",
"b c gray27",
"n c #464646",
"m c gray28",
"M c #484848",
"N c #494949",
"B c gray29",
"V c #4B4B4B",
"C c #4C4C4C",
"Z c gray30",
"A c #4E4E4E",
"S c gray31",
"D c #505050",
"F c #515151",
"G c gray32",
"H c #535353",
"J c gray33",
"K c #555555",
"L c #565656",
"P c gray34",
"I c #585858",
"U c gray35",
"Y c #5A5A5A",
"T c #5B5B5B",
"R c gray36",
"E c #5D5D5D",
"W c gray37",
"Q c #5F5F5F",
"! c #606060",
"~ c gray38",
"^ c #626262",
"/ c gray39",
"( c #646464",
") c #656565",
"_ c gray40",
"` c #676767",
"' c #686868",
"] c DimGray",
"[ c #6A6A6A",
"{ c gray42",
"} c #6D6D6D",
"| c gray45",
/* pixels */
"@@OOOO@@,<444<,,44444444444444@=yy<<<4444<<4<,4444<,,44,<44444==",
"@@OO O@@,<44444499444<44444444==yw<499<4444944w4<444ww9<44<<<<==",
"==OOO@==<499ww9ww9449w99999999==yy99ww9999ww49944y99wyw49999ww,,",
",,====,<9wyyydyyw9wwyyyyyyyydd4<mmdddyyyydyywwyydlywydyydydddd<<",
"44,,,,<4wdkkdddkddkmlllllkkkkl99ZFmmlkddllkkklllmmlllllklklmll99",
"w9==,<4wdkMMmZZZMMFFFFFZMmmMmMw9JUMMZmlmZZmMMMMMZMmlMZMlllMZmmww",
"w9,<<49ykmZFZFJFMMZMZMMMMmZFZFywW~ZZZMMFJFMZMmMZFFmlZFMlmMFJZZyy",
"9w<4499ykmZFMMZMmmMMmlklMZFFMFdw~_ZZMZZFFFZFZMFFJMklJJmmFJJJZFdd",
"yy<<<9wykMFJZMZZZFFJMmmMFFZMlMyy''ZZZZFZZZZZMMFFZddmWUmMJJFZZZdd",
"ww<<49wylMMFFFFFFFJJFFUWWJZZFFdy~~ZZZZFZZZZZZZJMMkkZWUMZFZMFJJdy",
"ww<4499wkmMFMZFFFZFFZFUUFZFJUUdy~~ZZZZFFZZFFFJJMZZZWWJlMZZZFFJdy",
"wy<<499wdlFJFZFZZFJFZZFFMFUJFZyy''FZZFFZMZFFZZZZZJFW~UZFFFJJZZyw",
"wy99494wklMFZFJZMMMMMMFFFJWFmkwy_~WUZFFZZZFZZZZFZZFFFmZUFZJJmMyw",
"wyww994wkmZFZZFFMMZZZZZFFFFZmlyyWJJWFFMZFFFMZFFFZZUJZlmFZMJFmmw9",
"@@@@===<9wyddyyyyykkkkddwwyyyyyy99wdkyyydywyddydyyddwwdlyyddyy99",
"@@@@@=,<9wdkddyyyyddddyy9wdddddywykkkyyddywdkdydyydyyydkddddyywy",
"  OOOO@@=<44<4@@49444<,<<4944<<<<4994<<44<<44<@@ww4<444<<44<<444",
"OOOOOO@=,<4449=@wy9944<<49944<,,<494<444449444==yy44444494444944",
"OOOOOO=,<4949w,,klww94<49w9494=4www99ww99ww99w,,dd99999wwww99ww9",
"@@@=@=,<9wywyd<<klyywwydkdywyw4kmddwwdyydywwyy<<mmddyyyyyyyywyyw",
"==,,,,<4wdlldm94ZZlkkkmMmmllmkkMMklddmmklkklml99FZkllllkkkllklkk",
"<<<<<449dlmmmZdwUUZMMMZZMmmmMmFZmmmmMJZmmMMFFZw9FFmMMMMmMZMMmMZZ",
"<<<<<<4wlMMZZFdwUUZZZZMZMZZZFFZMlMFFZFMmkMZMZZw9WWZFZFZMZFMMZFMm",
"<<<44,<ylZZZFZwwU~FZmmMFZMZZFJZMMFUFZZMMMFJmml9w''FJJFZZZFZZFFMM",
"44444<9klMMMZZyy_'FZZFJJFlMZZZmMJUUZmZZZJUUZMMyd'~FJJFZZZZZZFMll",
"<,<44<9klMMMFJdd''FZFFJJZlJWFFZmFJFMmFZMZFFZZFdk'_JJFZZZZFZZFMmZ",
",,,,<<4dmMMZFJdy~WZZZZFFZMJUZFFMFJZMFJFZFJFFFFdk''JJFZMZFFFFFZZJ",
"4<<<<49dlmMZFFddW~FFFFJJZZFFZFZMJUZMFJFFJJFFFFdk'~ZMMMMFFFZZZFZZ",
"4449999klmZMkmddW~'_FFFZMFFFFFFMJUZZFFMMFJFFmmdd~WJZlMZZZZZFFZMM",
"4444949klmmmkMdyWW~~FJFMMFFFFFFMFUZZFFZMJFZFmmyy~W~~FJFFMmMFFZMM",
"@@@@@@=49wwydkkywyyyddywwyyyyyyyydyyddyykdwyyyyyyyddkkdywwwywwwy",
"@@@@=@,449ydkkdwyyyydywwwyddyydyyywwyyyydyyyyyyyyyyyywywwwwwwyyy",
"@@OOOOO@=,<44<<<<<<<44<4449944==ww444<<<44<<,,<<,4<,<<<4<4<<99==",
"@=OOOOO@,<494444944444<44444<<==wy494449444<<444494<449w99949w==",
"==OOO O,499w9999wwww9w99944944=,dk99999ww999wwywwww9wwwww99<9w==",
",,@@=@=49wyyyyyyddddydddddyddy<<mmddwydkyydddddyddyydwyddywwyk,,",
"<4,=,,<9ykllllmmllllkkllmmlmml99ZZkddkllkdllllllmmklkkkmlklkll44",
"99<<<<<9lMmmMmmmMMMmmmmMMmlllk9wUUMmlMMlkdkmmmMMZZmMlmZFMmMmmMww",
"ww<<<49wlmlMMMMMMZZMMZZZFMmlllwy~~ZMmZFFZkkZFFFZFZMZlMFZFZZMZFww",
"ww<<<49ykmZZMZFFZZFZZZZZZZZFJJkd__FMmZJJJlmUUFFZZZMZMZJZFFFZZZww",
"ww44<49dkZJJMZJFMZFFZZFZZFFJUJkd__ZMZJJFMmM~WFMmMZFFZFJFFJZZFZww",
"ww,,<49yklZZmFUFmMFFZMFFZJJJFZyd_~ZZZFJFMlMWWUFZZFFFZZFFJJZZFZyd",
"yw,,<49ylmZFZJUFMZJFZMFFMFZZmmyd~~FFZZFFZMZJJFZZJJMMMZZZZMMZZZyd",
"ww<<444wlZFFFJJFmmFFZMFZMZZMmMdyW~FFZZZMMMJJFMmMZFZMZFFMlkMFMmyd",
"ww9949wymZZZZFFZmMUJZZFFZZMmlMdyW~~WMFFFFFFJFZZZFFZMFZZMMZJJkdyy",
"w99w44wdmZZZFJFMMFUJZFFFZFMMMMdd____ZMmmZFFFFZFJJFMMFFZFFUUJklkk",
"@=@@@@=<4wydddw9wddyyyyyydydkdddwwyyyww9wyyydddddwwydkdddddddkkk",
"=@@@@=,<<<9www9wyddyyyyyyddddydywwyyyydklkdydddyywydddyyddydyyyy",
"O  OOO@===<<<<@=yy4<<444<<<<<<44<<44<449<44444@@9w444<<4<<<<4<<<",
"  OOOOO=,<ww99==yy4<4444444<,<9944944444,<9444=@ww44499944<44499",
"OO@OOOO=<9www9,=dd99999999999wyw99ww9w944wy999==yy4499w944999999",
"@==@@==<wwwywy,,lmdddddyyyyddkkdyydyyddyydkyyy,<llyyyyyywyddddyy",
"=,,,,,,9kklmll99FJlkkkllllkkllkkkkkdkmlllmmlml99JFlmmmllkkmmmlll",
"<<<,<<<wklMMmmwyWUmmmmMZZZmmMMmMmmmlmZMMmmMMMmwy~UmmZZMZlkmMmmmm",
"4<<<<44ylmFZmMwy_WZFFFFFZZmMFFFMMmMMFFZZMMZZZMwwWJmMFFMZMMFFZMMM",
"<<<<449ylMZFZZyy~~FUJJZZFZMZFFFZmmMZZFJFMZJJZMyyWJMJJFMFFZJFFZZZ",
"4<<<449ymMMZFFw9JWZJFMMZFZZFJJFMmMJFZJJFZZJFZMyy~WJUZFFFJZZZFFZF",
"4<<<449dlZZFFZww'}JFZZFJJFFFFFFmmZUJZFFFZZMmMZdd'~FJMZFFJJFZFFFF",
"44<<449dkmMZZZdd||JFFFFJFFJFFFZMZJUFmZZMMMMmZFyd'WMZMFJFFFMmFFZZ",
"44<<499ylmMZZZdk'_FFZmMZFMZFZFFMFUJZmJFZMMZFJUdy~UMFZZZZFFZMJJZZ",
"4<<<499ylZFJmkddUU~'MlZJFMZFZZFZJJFMZJJFJFFJmmdd'~U~ZFMMFZZZZFFF",
"4<<4449wlMMFmkddFJU~MMUUFMZJmMZZFFMMFJFFFFFFmmyy_~JUFFFJJFZZMFJF",
"@=====,<499yywddwwwydykdwwydyddyyywwyyyyyyyyyyyy9yddkdyddyyyydky",
"@==@@=,<4wydywddyywykddywydddkkyyyyyddddwydddyddwykddyydyyyyyydy"
};
