/* XPM */
static char *_80c2f589d154f6ebbfcf6f402816b307r0iVncBuf0MTLCO[] = {
/* columns rows colors chars-per-pixel */
"64 64 161 2 ",
"   c #2B2A25",
".  c #2C2C2B",
"X  c #31302E",
"o  c #3A332B",
"O  c #363635",
"+  c #383735",
"@  c #373835",
"#  c #3A3A36",
"$  c #323639",
"%  c #39373A",
"&  c #3C3C3B",
"*  c #423E3B",
"=  c #41413E",
"-  c #49453F",
";  c #3D3E44",
":  c #3E4144",
">  c #3F424A",
",  c #434443",
"<  c #4A4641",
"1  c #464847",
"2  c #494946",
"3  c #43454B",
"4  c #46494C",
"5  c #4B4B4C",
"6  c #524F46",
"7  c #504E4A",
"8  c #4F514E",
"9  c #51504C",
"0  c #434650",
"q  c #464A53",
"w  c #4B4D53",
"e  c #4B4E58",
"r  c #4E5154",
"t  c #4E525A",
"y  c #525354",
"u  c #5B5A56",
"i  c #52555B",
"p  c #56595D",
"a  c #5A5C5C",
"s  c #635F5C",
"d  c #61615E",
"f  c #525761",
"g  c #555B63",
"h  c #5A5E64",
"j  c #575D68",
"k  c #5A5E69",
"l  c #576067",
"z  c #5D6165",
"x  c #5D636B",
"c  c #5F686F",
"v  c #5F6670",
"b  c #5F6972",
"n  c #626464",
"m  c #696764",
"M  c #686866",
"N  c #61666C",
"B  c #64696E",
"V  c #6A6B6C",
"C  c #73736B",
"Z  c #616671",
"A  c #676E76",
"S  c #666E75",
"D  c #646B73",
"F  c #686B70",
"G  c #686B72",
"H  c #686D71",
"J  c #686D73",
"K  c #696C73",
"L  c #686C75",
"P  c #686F75",
"I  c #6A6F75",
"U  c #696D76",
"Y  c #686F77",
"T  c #6A6E77",
"R  c #6C6F74",
"E  c #6C6F76",
"W  c #696E74",
"Q  c #666F78",
"!  c #666F79",
"~  c #6B6F78",
"^  c #696F79",
"/  c #677077",
"(  c #677077",
")  c #687073",
"_  c #6B7074",
"`  c #697076",
"'  c #6B7076",
"]  c #697277",
"[  c #6C7177",
"{  c #6E7377",
"}  c #6F7477",
"|  c #6C7176",
" . c #677079",
".. c #677079",
"X. c #697178",
"o. c #6A7179",
"O. c #697279",
"+. c #68717A",
"@. c #69727B",
"#. c #6B737A",
"$. c #6D7278",
"%. c #6C737B",
"&. c #6D747A",
"*. c #6B717D",
"=. c #6B737C",
"-. c #6C737D",
";. c #6B747D",
":. c #6D757C",
">. c #6E757D",
",. c #6D767D",
"<. c #6F767C",
"1. c #6C757E",
"2. c #6F767E",
"3. c #6C737B",
"4. c #6F787F",
"5. c #717374",
"6. c #70757B",
"7. c #72777D",
"8. c #74777C",
"9. c #71767D",
"0. c #72797F",
"q. c #74797D",
"w. c #72787D",
"e. c #787B7D",
"r. c #6E7681",
"t. c #6F7881",
"y. c #6F7881",
"u. c #717781",
"i. c #717A81",
"p. c #747B83",
"a. c #777C82",
"s. c #727B84",
"d. c #737B83",
"f. c #787D83",
"g. c #787C82",
"h. c #757D8A",
"j. c #7A7E89",
"k. c #798086",
"l. c #7B8086",
"z. c #788389",
"x. c #78808B",
"c. c #7B838C",
"v. c #748090",
"b. c #7D8693",
"n. c #7F8992",
"m. c #81868C",
"M. c #828993",
"N. c #858E9A",
"B. c #8B929C",
"V. c #828FA0",
"C. c #8491A2",
"Z. c #8B96A4",
"A. c #8F99A5",
"S. c #919BA7",
"D. c #929FAE",
"F. c #FFFFFD",
"G. c #FEFEFE",
"H. c #FFFEFF",
"J. c #FEFFFF",
"K. c white",
"L. c #FFFFFF",
/* pixels */
"; h , i r 4 i p , 5 x x x B h h : i g x w N i h i p i N N z B t N H.H.H.H.H.H.H.H.H.H.H.H.H.H.H.H.H.H.H.H.H.H.H.H.H.H.H.H.H.H.H.",
"e y & , , & @ : N y & 1 = , , & i N # < # , 5 # 5 N p & , < , = . H.H.H.H.H.H.H.H.H.H.H.H.H.H.H.H.H.H.H.H.H.H.H.H.H.H.H.H.H.H.H.",
"; n N B B B i p y a ' ) 6.E G h , B B N N I J ,.z z E z z B N h , H.H.H.H.H.H.H.H.H.H.H.H.H.H.H.H.H.H.H.H.H.H.H.H.H.H.H.H.H.H.H.",
"g B $.#.I N D z 5 z [ ,.6.[ G i i B z J N ,.h N i p z f.N B z z , H.H.H.H.H.H.H.H.H.H.H.H.H.H.H.H.H.H.H.H.H.H.H.H.H.H.H.H.H.H.H.",
"w H ,.p.G x z = z z I I ' #.B t r B N D A $.x g t J O N q.B B N 0 H.H.H.H.H.H.H.H.H.H.H.H.H.H.H.H.H.H.H.H.H.H.H.H.H.H.H.H.H.H.H.",
"g N ,.,.A N y w h z *.' $.,.I g r N I A >.i.N g g J w , k.^ I D e H.H.H.H.H.H.H.H.H.H.H.H.H.H.H.H.H.H.H.H.H.H.H.H.H.H.H.H.H.H.H.",
"x N A  .z z 5 i N z ' $.D ' #.i p B J #.#.,.I Z g H x % B 8.' I w H.H.H.H.H.H.H.H.H.H.H.H.H.H.H.H.H.H.H.H.H.H.H.H.H.H.H.H.H.H.H.",
"t B A h N 8 *.i i N y.#.D D N i t B x A I N x x f B A #.X a.0.D q H.H.H.H.H.H.H.H.H.H.H.H.H.H.H.H.H.H.H.H.H.H.H.H.H.H.H.H.H.H.H.",
"N N g D 2 I *.v r N x.,.A H D f t z D #. .A A x q a A s.x O } I q H.H.H.H.H.H.H.H.H.H.H.H.H.H.H.H.H.H.H.H.H.H.H.H.H.H.H.H.H.H.H.",
"D h D h i A A x x B x.y.#.;.A g g &.D  .#.! D z g ' A ,.,.& B 7.0 H.H.H.H.H.H.H.H.H.H.H.H.H.H.H.H.H.H.H.H.H.H.H.H.H.H.H.H.H.H.H.",
"! Z ^ 5 D D *.j v B h.i.y.i.>.h h [ !  .>.#.^ v g #.A ,.$.D   u.D H.H.H.H.H.H.H.H.H.H.H.H.H.H.H.H.H.H.H.H.H.H.H.H.H.H.H.H.H.H.H.",
"i k < N N I D t z B h.i.,.,.#.Z g &.;.*.y.S  .x g ,.D ;.$.J i . $.H.H.H.H.H.H.H.H.H.H.H.H.H.H.H.H.H.H.H.H.H.H.H.H.H.H.H.H.H.H.H.",
"#.N i D D $.A f D N ,.i.#.^ ;.D g } x.v A A D k g i.D >.' D x & p H.H.H.H.H.H.H.H.H.H.H.H.H.H.H.H.H.H.H.H.H.H.H.H.H.H.H.H.H.H.H.",
"i.z ,.;.A *.D g 4 z s.h.*.;.,.D > u l.c.s.v x g q a D ^ ,.I z z @ H.H.H.H.H.H.H.H.H.H.H.H.H.H.H.H.H.H.H.H.H.H.H.H.H.H.H.H.H.H.H.",
"^ J y.,.#.,. .t C.s.D i.r.c.h.h r.N.z 7.l.! x t D Z.N ,.,.#.x g g H.H.H.H.H.H.H.H.H.H.H.H.H.H.H.H.H.H.H.H.H.H.H.H.H.H.H.H.H.H.H.",
"N A h.h.*.c.c.j Z ,.b.b.r.D i.h.g a.p.x.,.x.h.s.k f.0.c.s.D s.v N H.H.H.H.H.H.H.H.H.H.H.H.H.H.H.H.H.H.H.H.H.H.H.H.H.H.H.H.H.H.H.",
",.5 & # X # & . : 5 , < , + & O O r = , & & & X & r , , 1 & = + O H.H.H.H.H.H.H.H.H.H.H.H.H.H.H.H.H.H.H.H.H.H.H.H.H.H.H.H.H.H.H.",
"i.z N N x B x e N h h D D J N p w B h N I N h w i ,.H 0.h.p.,.D w H.H.H.H.H.H.H.H.H.H.H.H.H.H.H.H.H.H.H.H.H.H.H.H.H.H.H.H.H.H.H.",
">.h D #.D ,.A g k h D #.x J h p i [ n n I D D t x ,.&.7.s.0.,.A e H.H.H.H.H.H.H.H.H.H.H.H.H.H.H.H.H.H.H.H.H.H.H.H.H.H.H.H.H.H.H.",
"A a D 3. .,.#.g x x A A A A x z i &.z D D ;.B e z ,.' $.,.$.,.A q H.H.H.H.H.H.H.H.H.H.H.H.H.H.H.H.H.H.H.H.H.H.H.H.H.H.H.H.H.H.H.",
"p a N r.3.,.^ D r a D ! D  .z x 4 V z N ! *.#.f e z ;.#.,.,.,.D t H.H.H.H.H.H.H.H.H.H.H.H.H.H.H.H.H.H.H.H.H.H.H.H.H.H.H.H.H.H.H.",
"^ a B #.A ,.#.j z p D 3./ A h g g H N N A D x e l D A D D I #.D q H.H.H.H.H.H.H.H.H.H.H.H.H.H.H.H.H.H.H.H.H.H.H.H.H.H.H.H.H.H.H.",
"^ p i.N D ! x r x a D #.$.i.A g r B z D #.x g 4 p N x x x x D z > H.H.H.H.H.H.H.H.H.H.H.H.H.H.H.H.H.H.H.H.H.H.H.H.H.H.H.H.H.H.H.",
"^ B z z A D x w V.b.J D H s.,.h r.Z.n B ,.;.N g h.D.z D #.^ N A g H.H.H.H.H.H.H.H.H.H.H.H.H.H.H.H.H.H.H.H.H.H.H.H.H.H.H.H.H.H.H.",
"p h 0.D i N N x 4 a A h g a ,.N 4 z $.s.i J H A 4 B g h g 4 N w i H.H.H.H.H.H.H.H.H.H.H.H.H.H.H.H.H.H.H.H.H.H.H.H.H.H.H.H.H.H.H.",
"E 5 , , = = # . 5 5 , , , r < @ & 5 + * , , , O 5 h & 5 & & , , $ H.H.H.H.H.H.H.H.H.H.H.H.H.H.H.H.H.H.H.H.H.H.H.H.H.H.H.H.H.H.H.",
"B a D J B ^ B i p n N I N H D x t I G J Z B A z g i.D 7.B N D x 3 H.H.H.H.H.H.H.H.H.H.H.H.H.H.H.H.H.H.H.H.H.H.H.H.H.H.H.H.H.H.H.",
"h z H #.*.r.D k p z h #.D D D ! g I A #.N N D k g #.A i.$.D D N q H.H.H.H.H.H.H.H.H.H.H.H.H.H.H.H.H.H.H.H.H.H.H.H.H.H.H.H.H.H.H.",
"N n D D #.#.A k i n p &.I I ! ^ i ' ' r.x x h p f ,.A h.p.J J D 0 H.H.H.H.H.H.H.H.H.H.H.H.H.H.H.H.H.H.H.H.H.H.H.H.H.H.H.H.H.H.H.",
"r N #.A A ,.A g i z g ' $.D D  .> h I *.#.N h b e ' A h.u.N J A e H.H.H.H.H.H.H.H.H.H.H.H.H.H.H.H.H.H.H.H.H.H.H.H.H.H.H.H.H.H.H.",
"N n I I ,.i.D h g z x I ^ $.A D e h D #.! x D Z r I D &.#.N I A 0 H.H.H.H.H.H.H.H.H.H.H.H.H.H.H.H.H.H.H.H.H.H.H.H.H.H.H.H.H.H.H.",
"z z x r.5 #.A t ! i.h p I A x g g #.z D A D A k q ,.z h A H N D ; H.H.H.H.H.H.H.H.H.H.H.H.H.H.H.H.H.H.H.H.H.H.H.H.H.H.H.H.H.H.H.",
"N z [ B B #.#.x h.n.J J r.c.s.7.s.N.B ,.D *.>.A ^ D.N I s.*.,.D A H.H.H.H.H.H.H.H.H.H.H.H.H.H.H.H.H.H.H.H.H.H.H.H.H.H.H.H.H.H.H.",
"u , 2 5 , , w w , a i y w 5 r i , y i h e w i p 3 5 p z r , p 4 , H.H.H.H.H.H.H.H.H.H.H.H.H.H.H.H.H.H.H.H.H.H.H.H.H.H.H.H.H.H.H.",
"' z g h z i h 4 p z p x N i 5 4 w N i p i i r , 4 x , p h h a p , H.H.H.H.H.H.H.H.H.H.H.H.H.H.H.H.H.H.H.H.H.H.H.H.H.H.H.H.H.H.H.",
"B z D A D N D t g N N [ B h p p r r.z D Z v x t h h.g  .D D $.$.q H.H.H.H.H.H.H.H.H.H.H.H.H.H.H.H.H.H.H.H.H.H.H.H.H.H.H.H.H.H.H.",
"N z D  .D D #.g A r D N p z z g g D D A A x D i g ,.z ^ D x N A q H.H.H.H.H.H.H.H.H.H.H.H.H.H.H.H.H.H.H.H.H.H.H.H.H.H.H.H.H.H.H.",
"h h B A A A z x k 5.h E h h h D e H #.A *.D x g e $.z A D x D D q H.H.H.H.H.H.H.H.H.H.H.H.H.H.H.H.H.H.H.H.H.H.H.H.H.H.H.H.H.H.H.",
"r 8 #.D x x t @ r y J G $.x *.N w h N Z D v x f r A k #.B x B D e H.H.H.H.H.H.H.H.H.H.H.H.H.H.H.H.H.H.H.H.H.H.H.H.H.H.H.H.H.H.H.",
"n N ' #.A N h 3 r x z g h D i.f q z z D A D N f e D N #.D x Z N 4 H.H.H.H.H.H.H.H.H.H.H.H.H.H.H.H.H.H.H.H.H.H.H.H.H.H.H.H.H.H.H.",
"I N J ^ &.#.D h h.c.N #.I r.A t r.N.z ! I 7.G z ! A.D #.*.A h z 3 H.H.H.H.H.H.H.H.H.H.H.H.H.H.H.H.H.H.H.H.H.H.H.H.H.H.H.H.H.H.H.",
"a z H &.x 7.h.D Z ,.z ,.! B #.D g ,.A h.D ;.r.r.g h.D 7.^ z r.D c H.H.H.H.H.H.H.H.H.H.H.H.H.H.H.H.H.H.H.H.H.H.H.H.H.H.H.H.H.H.H.",
"I 4 , , , , & O 4 5 , , , < & . , i , , & = , & O 5 , 5 w , 5 , & H.H.H.H.H.H.H.H.H.H.H.H.H.H.H.H.H.H.H.H.H.H.H.H.H.H.H.H.H.H.H.",
"D i g N z x x i z N h I 4.A I g g &.x A N I A g f ,.7.B A D N z ; H.H.H.H.H.H.H.H.H.H.H.H.H.H.H.H.H.H.H.H.H.H.H.H.H.H.H.H.H.H.H.",
"#.p z x D D x t v I x D #.N ,.x h &.h A I D ,.x g 7.7.B D J B D 3 H.H.H.H.H.H.H.H.H.H.H.H.H.H.H.H.H.H.H.H.H.H.H.H.H.H.H.H.H.H.H.",
"^ h g x b #.v t z I B $.#.x ! b g u.N D D D x D i i.0.n N H D B 4 H.H.H.H.H.H.H.H.H.H.H.H.H.H.H.H.H.H.H.H.H.H.H.H.H.H.H.H.H.H.H.",
"h B z x x I x f t [ B A D D A Z q N N N D D z A : n 7.z B D #.D 0 H.H.H.H.H.H.H.H.H.H.H.H.H.H.H.H.H.H.H.H.H.H.H.H.H.H.H.H.H.H.H.",
"p.h g h x A x t x $.x x x h D x i A g N D H z g g 6.J N B N #.D q H.H.H.H.H.H.H.H.H.H.H.H.H.H.H.H.H.H.H.H.H.H.H.H.H.H.H.H.H.H.H.",
">.z r i h A k 3 h H h g x v x g t J i h N D z f e D B N B D B x 3 H.H.H.H.H.H.H.H.H.H.H.H.H.H.H.H.H.H.H.H.H.H.H.H.H.H.H.H.H.H.H.",
"^ J D h N $.b t v.x.p v n #.N f r.b.z x N J x r D S.n N B N h z t H.H.H.H.H.H.H.H.H.H.H.H.H.H.H.H.H.H.H.H.H.H.H.H.H.H.H.H.H.H.H.",
"N r i z t p z g 5 p p h g e z r 3 y a n i p x x 3 h x N i i z i i H.H.H.H.H.H.H.H.H.H.H.H.H.H.H.H.H.H.H.H.H.H.H.H.H.H.H.H.H.H.H.",
"i.r , , 5 5 5 : 2 i , 4 r 5 5 , , y 5 5 5 1 , , , p y y i 5 = # O H.H.H.H.H.H.H.H.H.H.H.H.H.H.H.H.H.H.H.H.H.H.H.H.H.H.H.H.H.H.H.",
"^ h z z x z N i x B z $.N x #.x x #.N #.B J H x f i.J >.$.z g g ; H.H.H.H.H.H.H.H.H.H.H.H.H.H.H.H.H.H.H.H.H.H.H.H.H.H.H.H.H.H.H.",
"G p B N N N N g h N D A x A >.v x ' m $.I #.#.x t [ [ [ ' x h g 3 H.H.H.H.H.H.H.H.H.H.H.H.H.H.H.H.H.H.H.H.H.H.H.H.H.H.H.H.H.H.H.",
"H a N J D D N g p B D #.B I >.N k I m J z D ^ D e I [ G I N h g : H.H.H.H.H.H.H.H.H.H.H.H.H.H.H.H.H.H.H.H.H.H.H.H.H.H.H.H.H.H.H.",
"B V 7.u.i.,.D p h N N D ' $.I x w n B E y N ^ #.e N [ J B D N h ; H.H.H.H.H.H.H.H.H.H.H.H.H.H.H.H.H.H.H.H.H.H.H.H.H.H.H.H.H.H.H.",
"M.V l.p.h.p.s.z N _ h I I J L h p n n >.J #.,.A i G D I $.D D x 3 H.H.H.H.H.H.H.H.H.H.H.H.H.H.H.H.H.H.H.H.H.H.H.H.H.H.H.H.H.H.H.",
"E m i.m.i.j.e.p E e.V >.V G D 5 N e.u m V a V n t p.&.f.m.p.6.x 3 H.H.H.H.H.H.H.H.H.H.H.H.H.H.H.H.H.H.H.H.H.H.H.H.H.H.H.H.H.H.H.",
"B m g.m B &.s R ,.k.J 5.V 5.V u D k.V 5.5.5.m 8.D B.V C f.f.5.8.D H.H.H.H.H.H.H.H.H.H.H.H.H.H.H.H.H.H.H.H.H.H.H.H.H.H.H.H.H.H.H.",
"i y = < , o = * , u < 6 5 - 5 a + 7 < u , < a B 4 y J m z 2 n a y H.H.H.H.H.H.H.H.H.H.H.H.H.H.H.H.H.H.H.H.H.H.H.H.H.H.H.H.H.H.H.",
"x 7 w y r r 5 O , 9 = = - 1 =   , 5 & # = = # X , a - < 9 5 , 5   H.H.H.H.H.H.H.H.H.H.H.H.H.H.H.H.H.H.H.H.H.H.H.H.H.H.H.H.H.H.H.",
"i < y r i 5 u % 5 9 = u < = ,   w 5 & , , & = O 5 a 2 y y 5 = p . H.H.H.H.H.H.H.H.H.H.H.H.H.H.H.H.H.H.H.H.H.H.H.H.H.H.H.H.H.H.H.",
"a a y a n u i w B n w u y i y 3 w y w y n p y 5 , y i a n u i u g H.H.H.H.H.H.H.H.H.H.H.H.H.H.H.H.H.H.H.H.H.H.H.H.H.H.H.H.H.H.H.",
"5 u y a n a u s n 5.n s m n s a n m u n d a a M V V a n n m a s n H.H.H.H.H.H.H.H.H.H.H.H.H.H.H.H.H.H.H.H.H.H.H.H.H.H.H.H.H.H.H."
};
