/* XPM */
static char *_65d5be8890440b8f1b7fa76b5a303c2nsR8GRXWxxIm4yXP[] = {
/* columns rows colors chars-per-pixel */
"64 64 2 1 ",
"  c red",
". c blue",
/* pixels */
". . . . . . . . . . . . . . . . . . . . . . . . . . . . . . . . ",
" . . . . . . . . . . . . . . . . . . . . . . . . . . . . . . . .",
". . . . . . . . . . . . . . . . . . . . . . . . . . . . . . . . ",
" . . . . . . . . . . . . . . . . . . . . . . . . . . . . . . . .",
". . . . . . . . . . . . . . . . . . . . . . . . . . . . . . . . ",
" . . . . . . . . . . . . . . . . . . . . . . . . . . . . . . . .",
". . . . . . . . . . . . . . . . . . . . . . . . . . . . . . . . ",
" . . . . . . . . . . . . . . . . . . . . . . . . . . . . . . . .",
". . . . . . . . . . . . . . . . . . . . . . . . . . . . . . . . ",
" . . . . . . . . . . . . . . . . . . . . . . . . . . . . . . . .",
". . . . . . . . . . . . . . . . . . . . . . . . . . . . . . . . ",
" . . . . . . . . . . . . . . . . . . . . . . . . . . . . . . . .",
". . . . . . . . . . . . . . . . . . . . . . . . . . . . . . . . ",
" . . . . . . . . . . . . . . . . . . . . . . . . . . . . . . . .",
". . . . . . . . . . . . . . . . . . . . . . . . . . . . . . . . ",
" . . . . . . . . . . . . . . . . . . . . . . . . . . . . . . . .",
". . . . . . . . . . . . . . . . . . . . . . . . . . . . . . . . ",
" . . . . . . . . . . . . . . . . . . . . . . . . . . . . . . . .",
". . . . . . . . . . . . . . . . . . . . . . . . . . . . . . . . ",
" . . . . . . . . . . . . . . . . . . . . . . . . . . . . . . . .",
". . . . . . . . . . . . . . . . . . . . . . . . . . . . . . . . ",
" . . . . . . . . . . . . . . . . . . . . . . . . . . . . . . . .",
". . . . . . . . . . . . . . . . . . . . . . . . . . . . . . . . ",
" . . . . . . . . . . . . . . . . . . . . . . . . . . . . . . . .",
". . . . . . . . . . . . . . . . . . . . . . . . . . . . . . . . ",
" . . . . . . . . . . . . . . . . . . . . . . . . . . . . . . . .",
". . . . . . . . . . . . . . . . . . . . . . . . . . . . . . . . ",
" . . . . . . . . . . . . . . . . . . . . . . . . . . . . . . . .",
". . . . . . . . . . . . . . . . . . . . . . . . . . . . . . . . ",
" . . . . . . . . . . . . . . . . . . . . . . . . . . . . . . . .",
". . . . . . . . . . . . . . . . . . . . . . . . . . . . . . . . ",
" . . . . . . . . . . . . . . . . . . . . . . . . . . . . . . . .",
". . . . . . . . . . . . . . . . . . . . . . . . . . . . . . . . ",
" . . . . . . . . . . . . . . . . . . . . . . . . . . . . . . . .",
". . . . . . . . . . . . . . . . . . . . . . . . . . . . . . . . ",
" . . . . . . . . . . . . . . . . . . . . . . . . . . . . . . . .",
". . . . . . . . . . . . . . . . . . . . . . . . . . . . . . . . ",
" . . . . . . . . . . . . . . . . . . . . . . . . . . . . . . . .",
". . . . . . . . . . . . . . . . . . . . . . . . . . . . . . . . ",
" . . . . . . . . . . . . . . . . . . . . . . . . . . . . . . . .",
". . . . . . . . . . . . . . . . . . . . . . . . . . . . . . . . ",
" . . . . . . . . . . . . . . . . . . . . . . . . . . . . . . . .",
". . . . . . . . . . . . . . . . . . . . . . . . . . . . . . . . ",
" . . . . . . . . . . . . . . . . . . . . . . . . . . . . . . . .",
". . . . . . . . . . . . . . . . . . . . . . . . . . . . . . . . ",
" . . . . . . . . . . . . . . . . . . . . . . . . . . . . . . . .",
". . . . . . . . . . . . . . . . . . . . . . . . . . . . . . . . ",
" . . . . . . . . . . . . . . . . . . . . . . . . . . . . . . . .",
". . . . . . . . . . . . . . . . . . . . . . . . . . . . . . . . ",
" . . . . . . . . . . . . . . . . . . . . . . . . . . . . . . . .",
". . . . . . . . . . . . . . . . . . . . . . . . . . . . . . . . ",
" . . . . . . . . . . . . . . . . . . . . . . . . . . . . . . . .",
". . . . . . . . . . . . . . . . . . . . . . . . . . . . . . . . ",
" . . . . . . . . . . . . . . . . . . . . . . . . . . . . . . . .",
". . . . . . . . . . . . . . . . . . . . . . . . . . . . . . . . ",
" . . . . . . . . . . . . . . . . . . . . . . . . . . . . . . . .",
". . . . . . . . . . . . . . . . . . . . . . . . . . . . . . . . ",
" . . . . . . . . . . . . . . . . . . . . . . . . . . . . . . . .",
". . . . . . . . . . . . . . . . . . . . . . . . . . . . . . . . ",
" . . . . . . . . . . . . . . . . . . . . . . . . . . . . . . . .",
". . . . . . . . . . . . . . . . . . . . . . . . . . . . . . . . ",
" . . . . . . . . . . . . . . . . . . . . . . . . . . . . . . . .",
". . . . . . . . . . . . . . . . . . . . . . . . . . . . . . . . ",
" . . . . . . . . . . . . . . . . . . . . . . . . . . . . . . . ."
};
