/* XPM */
static char *e38b256bf1644edcfaf3d2eff8cc3c8ewL3p8gp2q5re9yKv[] = {
/* columns rows colors chars-per-pixel */
"64 64 150 2 ",
"   c #000203",
".  c #010609",
"X  c #02090D",
"o  c #030D13",
"O  c #040F18",
"+  c #05121C",
"@  c #1C1C1C",
"#  c #061622",
"$  c #071927",
"%  c #081927",
"&  c #071A29",
"*  c #091C2D",
"=  c #0A1E31",
"-  c #0B2235",
";  c #0D253D",
":  c #0E283F",
">  c #232323",
",  c #2D2D2D",
"<  c #373737",
"1  c #3C3C3C",
"2  c #7C733B",
"3  c #0E2740",
"4  c #0F2A44",
"5  c #102C47",
"6  c #122E4A",
"7  c #13314F",
"8  c #153454",
"9  c #16375A",
"0  c #17395D",
"q  c #183B5F",
"w  c #1A3D64",
"e  c #1C416B",
"r  c #1F4673",
"t  c #1F4874",
"y  c #20436C",
"u  c #204774",
"i  c #204977",
"p  c #234C7B",
"a  c #27507F",
"s  c #424242",
"d  c #4B4B4B",
"f  c #575E5B",
"g  c #585E59",
"h  c #615E47",
"j  c #776A40",
"k  c #776D4D",
"l  c #74714F",
"z  c #616551",
"x  c #6A6B50",
"c  c #606658",
"v  c #56646D",
"b  c #4A6470",
"n  c #4B697C",
"m  c #44637C",
"M  c #576E72",
"N  c #526A7B",
"B  c #626E6E",
"V  c #637166",
"C  c #6C7360",
"Z  c #607072",
"A  c #647874",
"S  c #BD7500",
"D  c #BE7900",
"F  c #B97E0D",
"G  c #81723A",
"H  c #9D7D33",
"J  c #A47B2A",
"K  c #B17E21",
"L  c #C37506",
"P  c #C57C00",
"I  c #C87D03",
"U  c #857143",
"Y  c #8F7B49",
"T  c #857950",
"R  c #BC8418",
"E  c #9C8133",
"W  c #9F8238",
"Q  c #A5872C",
"!  c #B58524",
"~  c #A38433",
"^  c #AC8831",
"/  c #B38F31",
"(  c #BC8E36",
")  c #C48203",
"_  c #CC8400",
"`  c #CB8A00",
"'  c #C1830B",
"]  c #D18301",
"[  c #D08C03",
"{  c #CE9206",
"}  c #C2911C",
"|  c #C4A03F",
" . c #9E824A",
".. c #978151",
"X. c #A68F52",
"o. c #275180",
"O. c #295483",
"+. c #2E5986",
"@. c #2E5A88",
"#. c #335C85",
"$. c #395F83",
"%. c #325E8B",
"&. c #385F88",
"*. c #3D6285",
"=. c #36618D",
"-. c #3B658D",
";. c #396490",
":. c #3E6995",
">. c #446784",
",. c #4E6B83",
"<. c #40678D",
"1. c #446A8D",
"2. c #536D83",
"3. c #547287",
"4. c #54758E",
"5. c #5E798D",
"6. c #406C95",
"7. c #496F93",
"8. c #436F98",
"9. c #4C7293",
"0. c #457199",
"q. c #4A769E",
"w. c #4E799F",
"e. c #537794",
"r. c #547D9E",
"t. c #587B99",
"y. c #617C8D",
"u. c #4E79A0",
"i. c #537EA4",
"p. c #7C8B93",
"a. c #5683A6",
"s. c #5A83A6",
"d. c #5C86A9",
"f. c #5E88AB",
"g. c #5F89AC",
"h. c #608AAC",
"j. c #608AAD",
"k. c #638DAE",
"l. c #608AAC",
"z. c #658FB1",
"x. c #6C95B3",
"c. c #6D96B4",
"v. c #6E96B7",
"b. c #6D96B4",
"n. c #7199B8",
"m. c #739AB9",
"M. c #729AB8",
"N. c #799FBC",
"B. c #789DBA",
"V. c #7DA3BF",
/* pixels */
"< < < < < < d d s s s s s s s s s s < < , , < < < < < < d d s s s s s s s s s s < < , , < < < < < < d d s s s s s s s s < < , , ",
"< < < < < < d d s s s s s s s s s s < < , , < < < < < < d d s s s s s s s s s s < < , , < < < < < < d d s s s s s s s s < < , , ",
"< < d d s s s s s s s s s s s s 1 1 1 1 , , < < d d s s s s s s 1 1 s s s s 1 1 1 1 , , < < d d s s s s s s s s s s 1 1 < < , , ",
"< < d d s s s s s s s s s s s s 1 1 1 1 , , < < d d s s s s s s s s s s s s 1 1 1 1 , , < < d d s s s s s s s s s s 1 1 < < , , ",
"s s s s s s s s s s s s s s s s 1 1 1 1 , , s s s s s s s s s s s s s s s s 1 1 1 1 , , s s s s s s s s s s s s s s 1 1 1 1 , , ",
"s s s s s s s s s s s s s s s s 1 1 1 1 , , s s s s s s s s s s s s s s s s 1 1 1 1 , , s s s s s s s s s s s s s s 1 1 1 1 , , ",
"s s s s s s s s s s 1 1 1 1 1 1 1 1 < < , , s s s s s s s s s s 1 1 1 1 1 1 1 1 < < , , s s s s s 1 s s s s 1 1 1 1 1 1 < < , , ",
"s s s s s s s s s 1 1 1 1 1 1 1 1 1 < < , , s s s s s s s s s s 1 1 1 1 1 1 1 1 < < , , s s s s s s s s s s 1 1 1 1 1 1 < < , , ",
"s s s s s s 1 1 1 1 1 1 1 1 < < < < < < , , s s s s s s 1 1 1 1 1 1 1 1 < < < < < < , , s s s s s s 1 1 1 1 1 1 < < < < < < , , ",
"s s s s s s 1 1 1 1 1 1 1 1 < < < < < < , , s s s s s s 1 1 1 1 1 1 1 1 < < < < < < , , s s s s s s 1 1 1 1 1 1 < < < < < < , , ",
"s s < < < < < < < < < < < < < < < < < < , , s s < < < < < < < < < < < < < < < < < < , , s s < < < < < < < < < < < < < < < < , , ",
"s s < < < < < < < < < < < < < < < < < < , , s s < < < < < < < < < < < < < < < < < < , , s s < < < < < < < < < < < < < < < < , , ",
"< < < < < < < < < < < < < < < < < < < < , , < < < < < < < < < < < < < < < < < < < < , , < < < < < < < < < < < < < < < < < < , , ",
"< < < < < < < < < < < < < < < < < < < < , , < < < < < < < < < < < < < < < < < < < < , , < < < < < < < < < < < < < < < < < < , , ",
", , , , , , , , , , , , , , , , , , , , , , 6.i.f.x.B.V.V.m.x.k.h.k.z.g.a.u.0.:.-., , , , , , , , , , , , , , , , , , , , , , , ",
", , , , , , , , , , , , , , , , , , , , , N.m.;.p 9 ; & + + O o o X X o + * 3 8 a ;.> , , , , , , , , , , , , , , , , , , , , , ",
"s s s s s s < < , , < < < < < < d d s s s m.w - - = * & # # + + O o o X . . .   X ;.< < 1 s 1 s s s < < , , < < < < < < s s s 1 ",
"s s s s s s < < , , < < < < < < d d s s s m.- - - = * & # # + + O o o X . . . .   =., < 1 s 1 1 s s < < , , < < < < < < s s s 1 ",
"s s s s 1 1 1 1 , , < < d d s s s s s s m.w.- - * $ * - 7 0 w q 8 5 - & O . . .   5 ;., < < 1 1 1 1 1 1 , , < < s s s s s s 1 1 ",
"s s s s 1 1 1 1 , , < < d d s s s s 8.m.f.- - - @.@.;.;.:.:.0.0.q.q.i.i.h.h.-       q 8.;.< < 1 < 1 1 1 , , < < s s s s s s 1 1 ",
"s s s s 1 1 1 1 , , s s s s s s 1 m.B.p - ; - * @.@.;.;.:.:.0.0.q.q.i.i.l.l.O..       $ e %.< < < < 1 1 , , s s s s s s s s s 1 ",
"s s s s 1 1 1 1 , , s s s s s s s m.- 5 3 ; - 0.@.@.;.;.:.:.0.{ C q.i.i.l.l.x.-           O.< < < < < 1 , , s s s s s s s s s s ",
"< < 1 1 1 1 < < , , s s s s s s s m.5 5 ; 3 i.O.@.@.;.;.:.:._ P P C i.i.l.l.v.v.8 .       +., , < < < < , , s s s s s s s s s s ",
"< < 1 1 1 1 < < , , s s s s s s 1 m.5 4 - w.O.O.@.@.;.;.:.D P P S S C i.l.l.v.v.v.O.      %.> , < < < < , , s s s s s s s s s s ",
"< 1 < < < < < < , , s s s s s s < m.5 4 - w.O.O.@.@.;.;.Y S _ P S P  .C h.h.v.v.v.o.      %.> > , < < < , , s 1 s s s s 1 1 1 1 ",
"1 1 < < < < < < , , s s s s 1 1 < m.8 4 - w.O.O.@.@.;.;.~ _ _ ` S I ^ C h.g.v.v.v.u     . %.> > , < < < , , s 1 s s s s 1 1 1 1 ",
"< < < < < < < < , , s s < < < < < m.w 4 - =.O.O.@.@.;.;.W S P ) P ` ~ C g.h.v.v.v.w     X %.> > , < < < , , s s < < < < < < < < ",
"< < < < < < < < , , s s < < < < < m.r 4 ; =.O.O.@.@.;.;.0.S ) _ P D v p.g.h.v.v.x.8     O %.> > , < < < , , s s < < < < < < < < ",
"< < < < < < < < , , < < < < < < < x.O.4 ; p O.O.@.A P 2 0.T S S _ U v X.P C x.x.x.5     # %.> > , < < < , , < < < < < < < < < < ",
"< < < < < < < < , , < < < < < < < d.;.3 ; p O.O.V P S ] j 0.P _ ' f ..] S P C x.x.-     * =.> > , < < < , , < < < < < < < < < < ",
", , , , , , , , , , , , , , , , , q.i.; 3 8 O.O.Q _ S P P c E ` H G P P L _ | C v.&     3 =.@ @ > , , , , , , , , , , , , , , , ",
", , , , , , , , , , , , , , , , , ;.v.- ; - O.O.P J O.n Q _ m F N _ / B p.( P C v.+     9 ;.@ @ > , , , , , , , , , , , , , , , ",
"< < < < < < d d s s s s s s s s 1 < m.- ; * O.O.b #.$.*.>.0.0.0.q.q.i.i.l.l.v.x.+.      p @ > > , < d d s s s s s s s s < < , , ",
"< < < < d d d d s s s s s s s s 1 1 m.: 3 - O.a O.#.*.*.1._ P S P _ C i.l.l.x.x.w     . =.@ > , , < d d s s s s s s s s < < , , ",
"< < d d s s s s s s s s s s s s 1 < z.O.; ; 5 p O.#.=.<.7.0.0.0.q.q.i.i.l.l.v.v.&     * ;.@ < < 1 s s s s s s s s s 1 1 1 1 , , ",
"d d d d s s s s s s s s s s s s 1 < ;.B.- ; * p O.+.=.,._ P 2 _ G P _ C h.h.v.v.      e :.> < 1 1 s s s s s s s s s 1 1 1 1 , , ",
"s s s s s s s s s s s s s s s s 1 < < m.8 ; - 0 O.+.M _ _ x R _ } l _ _ C h.v.&     O %.> , < < 1 s 1 s s s s s s s < 1 1 1 , , ",
"s s s s s s s s s s s s s s s s 1 < < 0.z.- - * O.O.V P h K [ _ P ! k P C h.0       w %.> , < 1 s s s s s s s s s s 1 < 1 1 , , ",
"s s s s s s s s s s < 1 1 1 1 1 1 < < < m.e - - = p +.=.-.Z ) _ I g y.i.h.h.X .   & O.@ , < < < 1 1 s s s s 1 1 1 1 1 1 < < , , ",
"s s s s s s s s s s < < 1 1 1 1 1 1 < < > m.- - * - p =.-.<.C ' z 2.5.i.p o . . X o.@ @ , < < < 1 1 1 s s s 1 1 1 1 1 1 < < , , ",
"s s s s s s 1 1 1 1 1 1 1 1 < < < < < < , q.f.* - * & 1.-.<.7.9.4.3.i.t o . . . t o.@ @ , < < 1 1 s 1 1 1 1 1 1 < < < < < < , , ",
"s s s s s s 1 1 < 1 1 1 1 1 < < < < < < , > s.6.* * & + y 6.9.e.t.e.8 X . . . e o.@ @ @ < < 1 1 1 s 1 1 1 1 1 1 < < < < < < , , ",
"s s < < < < < < < < < < < < < < < < < < , , < d.:.* * % + = &.r.+.& X X . . w O.@ > @ > < < < < < < < < < < < < < < < < < < , , ",
"s s < < < < < < < < < < < < < < < < < < , , < < i.w.* & # + O = o o o X o i O.@ @ > > > < 1 < < < < < < < < < < < < < < < < , , ",
"< < < < < < < < < < < < < < < < < < < < , , < < , :.f.8 # # + + O o X * O.O.@ @ > > > , < < < < < < < < < < < < < < < < < < , , ",
"< < < < < < < < < < < < < < < < < < < < , , < < < , %.i.=.* + + O + e @.O.@ > > > , > , < < < < < < < < < < < < < < < < < < , , ",
", , , , , , , , , , , , , , , , , , , , , , , , , > > @ =.u.p = 0 =.O.@ @ @ @ @ > > , , , , , , , , , , , , , , , , , , , , , , ",
", , , , , , , , , , , , , , , , , , , , , , , , , , > > > @ %.=.@.@ @ @ @ @ > > , , , , , , , , , , , , , , , , , , , , , , , , ",
"s s s s s s < < , , < < < < < < d d s s s s d d 1 1 1 < , , > @ > > > > , , 1 s s s s s s s s s s s < < , , < < < < < < s s s s ",
"s s s s s s < < , , < < < < < < d d s s s s d d s 1 1 1 < < > > , , , , , < s s s s s s s s s s s s < < , , < < < < < < s s s s ",
"s s s s 1 1 < < , , < < d d s s s s s s s s s s s s 1 < < < , , , , 1 s s s s s s s s s s s s s 1 1 1 1 , , < < s s s s s s s s ",
"s s s s 1 1 1 < , , < < d d s s s s s s s s s s s s 1 1 < < , , < < s s s s s s s s s s s s s s 1 1 1 1 , , < < s s s s s s s s ",
"s s s s 1 1 1 1 , , s s s s s s s s s s s s 1 1 s s 1 1 1 1 , , s s s s s s s s s s s s s s s s 1 1 1 1 , , s s s s s s s s s s ",
"s s s s 1 1 1 1 , , s s s s s s s s s s s s s 1 s s 1 1 1 1 , , s s s s s s s s s s s s s s s s 1 1 1 1 , , s s s s s s s s s s ",
"1 1 1 1 1 1 < < , , s s s s s s s s s s 1 1 1 1 1 1 1 1 < < , , s s s s s s s s s s 1 1 1 1 1 1 1 1 < < , , s s s s 1 1 s s s s ",
"1 1 1 1 1 1 < < , , s s s s s s 1 s s s 1 1 1 1 1 1 1 1 < < , , s s s s s s s s s 1 1 1 1 1 1 1 1 1 < < , , s s s 1 1 1 1 s s s ",
"1 1 < < < < < < , , s s s s s s < < < 1 1 1 1 1 < < < < < < , , s s s s s s 1 1 1 1 1 1 1 1 < < < < < < , , s s s s s s 1 1 1 1 ",
"1 1 < < < < < < , , s s s s s s < < 1 1 1 1 1 1 < < < < < < , , s s s s s s 1 1 1 1 1 1 1 1 < < < < < < , , s s s s s s 1 1 1 1 ",
"< < < < < < < < , , s s < < < < < < < < < < < < < < < < < < , , s s < < < < < < < < < < < < < < < < < < , , s s < < < < < < < < ",
"< < < < < < < < , , s s < < < < < < < < < < < < < < < < < < , , s s < < < < < < < < < < < < < < < < < < , , s s < < < < < < < < ",
"< < < < < < < < , , < < < < < < < < < < < < < < < < < < < < , , < < < < < < < < < < < < < < < < < < < < , , < < < < < < < < < < ",
"< < < < < < < < , , < < < < < < < < < < < < < < < < < < < < , , < < < < < < < < < < < < < < < < < < < < , , < < < < < < < < < < ",
", , , , , , , , , , , , , , , , , , , , , , , , , , , , , , , , , , , , , , , , , , , , , , , , , , , , , , , , , , , , , , , , ",
", , , , , , , , , , , , , , , , , , , , , , , , , , , , , , , , , , , , , , , , , , , , , , , , , , , , , , , , , , , , , , , , "
};
