/* XPM */
static char *result[] = {
/* columns rows colors chars-per-pixel */
"50 50 216 2 ",
"   c #211F30",
".  c #1F2637",
"X  c #1F2638",
"o  c #1E293B",
"O  c #1E2A3C",
"+  c #1D2D3F",
"@  c #202334",
"#  c #212635",
"$  c #202939",
"%  c #202A39",
"&  c #202C3A",
"*  c #212C3A",
"=  c #202D3A",
"-  c #212D3A",
";  c #20333F",
":  c #1D2E40",
">  c #1D3141",
",  c #1E3040",
"<  c #1C3143",
"1  c #1E3442",
"2  c #1F3442",
"3  c #1F3743",
"4  c #1B3447",
"5  c #1B3547",
"6  c #1F3744",
"7  c #1F3A45",
"8  c #1B3548",
"9  c #1A384B",
"0  c #1C3848",
"q  c #1C3949",
"w  c #193C4E",
"e  c #193C4F",
"r  c #1A3F50",
"t  c #203A44",
"y  c #203A45",
"u  c #1F4149",
"i  c #1D414C",
"p  c #1D424C",
"a  c #1E454D",
"s  c #1F454D",
"d  c #1F474E",
"f  c #1F484F",
"g  c #174356",
"h  c #174357",
"j  c #1A4050",
"k  c #1A4251",
"l  c #1B4251",
"z  c #184053",
"x  c #1B4352",
"c  c #1B4553",
"v  c #194354",
"b  c #1D4C55",
"n  c #1D4F56",
"m  c #1D4F57",
"M  c #16465A",
"N  c #16475B",
"B  c #184658",
"V  c #184758",
"C  c #17495C",
"Z  c #174A5C",
"A  c #154A5E",
"S  c #154B5F",
"D  c #164D5F",
"F  c #184959",
"G  c #194A59",
"H  c #1E5559",
"J  c #1F5559",
"K  c #1F5758",
"L  c #1B535D",
"P  c #1B565E",
"I  c #1F5E5D",
"U  c #1F5F5D",
"Y  c #1E5C5E",
"T  c #2E4242",
"R  c #264D45",
"E  c #234B48",
"W  c #224B49",
"Q  c #204A4E",
"!  c #214D4C",
"~  c #324D47",
"^  c #24524B",
"/  c #265549",
"(  c #29584A",
")  c #29584B",
"_  c #36594D",
"`  c #225750",
"'  c #235850",
"]  c #215957",
"[  c #205A57",
"{  c #215B57",
"}  c #225A5A",
"|  c #275E5A",
" . c #266353",
".. c #266453",
"X. c #276652",
"o. c #246154",
"O. c #2B6A52",
"+. c #2C6A53",
"@. c #226458",
"#. c #236458",
"$. c #226558",
"%. c #336050",
"&. c #346050",
"*. c #3A6453",
"=. c #27755C",
"-. c #3E7059",
";. c #387459",
":. c #397459",
">. c #38745A",
",. c #144E62",
"<. c #165061",
"1. c #135166",
"2. c #135266",
"3. c #195D66",
"4. c #195E66",
"5. c #12556A",
"6. c #175E68",
"7. c #11596E",
"8. c #125C6F",
"9. c #125F70",
"0. c #125F71",
"q. c #1D6263",
"w. c #1D6363",
"e. c #1E6363",
"r. c #1A6167",
"t. c #17646D",
"y. c #17656E",
"u. c #1A6468",
"i. c #1D6968",
"p. c #1D6A68",
"a. c #1D6E6C",
"s. c #1D706D",
"d. c #1D716E",
"f. c #136573",
"g. c #1D7872",
"h. c #1C7E77",
"j. c #167278",
"k. c #177579",
"l. c #17797A",
"z. c #1D7F78",
"x. c #187C7C",
"c. c #197F7D",
"v. c #206761",
"b. c #206862",
"n. c #427B5E",
"m. c #1F8376",
"M. c #1A827E",
"N. c #1A857F",
"B. c #1B857F",
"V. c #23836E",
"C. c #28936F",
"Z. c #228774",
"A. c #248C72",
"S. c #228874",
"D. c #208C7A",
"F. c #289470",
"G. c #2A9F73",
"H. c #20937F",
"J. c #21957E",
"K. c #259C7B",
"L. c #289F7D",
"P. c #35A36D",
"I. c #34A46E",
"U. c #29A577",
"Y. c #2AA577",
"T. c #2BA777",
"R. c #2BA876",
"E. c #2CA877",
"W. c #2CAA76",
"Q. c #2DAC75",
"!. c #2EAD74",
"~. c #2FAF74",
"^. c #27A079",
"/. c #29A378",
"(. c #28A279",
"). c #28A379",
"_. c #2BA07E",
"`. c #2CA17E",
"'. c #2CA27E",
"]. c #30AA7A",
"[. c #31AA7A",
"{. c #31A87E",
"}. c #30B173",
"|. c #33B374",
" X c #34B374",
".X c #37B576",
"XX c #36B676",
"oX c #37B677",
"OX c #3AB877",
"+X c #41AD74",
"@X c #42AD74",
"#X c #53A975",
"$X c #4BB479",
"%X c #4BB579",
"&X c #43BF7D",
"*X c #43C07D",
"=X c #46C17E",
"-X c #47C27F",
";X c #1D8E81",
":X c #1C8C82",
">X c #1E9080",
",X c #289C80",
"<X c #299C81",
"1X c #4ABE87",
"2X c #4BBE88",
"3X c #4CC582",
"4X c #4FC684",
"5X c #4FC784",
"6X c #5CC181",
"7X c #51C983",
"8X c #54CB84",
"9X c #54CB85",
"0X c #57CE86",
"qX c #5DD389",
"wX c #61D68B",
"eX c #64D88C",
/* pixels */
"n.eXeXeXeXeXeXeX  eXeXeXeXeXeXeXn.n.eXeXeXeXeXeXeX  6XeXeXeXeXeXeXn.*.eXeXeXeXeXeXeX  6XeXeXeXeXeXn.",
"n.8XoXoX*XqXoXoX  oXoXoXoX<X[.oX+.+.-X8XoXoXoXoXoX  I.oXoXoX`.[.oX+.) -X0XoXoXoXoXoX  I.oXoX<X[.9Xn.",
"} L.}.}.}.oXQ.>X  >X!.}.}.~.~.K.K K L. X}.}.}.Q.>X  m.!.}.}.~.~.^.K Q L.oX}.}.}.}.>X  m.!.}.~.~.L.} ",
"= { J.J.J.J.D.7 A 7 S.J.J.J.J.U x x { J.J.J.J.D.7 A p S.J.J.J.J.b.x G { J.J.J.J.J.7 A p S.J.J.J.U = ",
"/ =.7 7 7 7 6 A 7.A p 7 7 7 7 j 1.1.G 7 7 7 7 6 A 7.A p 7 7 7 7 x 1.1.G 7 7 7 7 7 A 7.A p 7 7 7 X./ ",
";.+X@.9 o g Z l.l.l.C g . w g y.l.l.t.g 9 o g Z l.l.l.C g . 5 g 6.l.l.t.g 9 @ g g l.l.l.C . w #.+X;.",
"T &.W < + 8.x.:X:X:Xx.l.1 u.l.B.:X:XN.l.r.3 l.x.:X:X:Xx.l.1 P l.M.:X:XN.l.r.% l.l.:X:X:X9.: + E %.T ",
"~ ;.o.d + 0.:X:X:X:X:XY & f g.:X:X:X:Xg.d - Y :X:X:X:X:Xw.& u g.:X:X:X:Xh.d # Y :X:X:X:X9.: f o.>.~ ",
"n.7XW.A.m v k.:X:X:XY r e e b H H H H u     # H H H H H &     u H H H H d     # H :X:Xk.v n A.W.7Xn.",
"n.7X}.R.d.@ V w.w.w.0 5.7.7.g .                                                   w.w.B @ s.T.}.7Xn.",
"n.7X}.R.d.@ 0 f     z 5.7.7.A +                                                     f 0 @ s.T.}.7Xn.",
"n.7X}.R.d.X 0.:Xt     N S S +                                                     t :X9.. s.T.}.7Xn.",
"n.8XOXR.d.X 0.:X:X                                                                :X:X9.. s.T.XX0Xn.",
"n.wX3XG.a.+ f.:X:X                                                                :X:Xf.+ w./.3XwXn.",
"-.$XF.a.< 0.:X:X:X                                                                :X:X:X9.5 w.C.%X-.",
"      + 7.0.:X:X:X                                                                :X:X:X9.7.:       ",
"n.7X(.d.+ 0.:X:X:X                                                                :X:X:X9.: s./.7Xn.",
"n.7X}.R.d.X 0.:X:X                                                                :X:X9.. s.T.}.7Xn.",
"n.1XK.R.d.X 0.:X&                                                                 & :X9.. s.T.K.2Xn.",
"n.4X~.R.d.  X &                                                                     & X   s.T.~.5Xn.",
"n.7X}.R.d.@ D s.                                                                    s.<.. s.T.}.7Xn.",
"n.7X}.R.d.X 0.:Xs.                                                                s.:X9.. s.T.}.7Xn.",
"n.7XR.V.b Z x.:X:X                                                                :X:Xx.C p S.E.7Xn.",
"T &.^ b M 0.:X:X:X                                                                :X:X:X9.A p ^ %.T ",
"~ ;.o.m h 0.:X:X:X                                                                :X:X:X9.g n o.>.~ ",
"n.7XW.A.m v k.:X:X                                                                :X:Xk.v n A.W.7Xn.",
"n.7X}.R.d.X 0.:Xw.                                                                w.:X9.. s.T.}.7Xn.",
"n.7X}.R.d.@ V w.                                                                    w.B @ s.T.}.7Xn.",
"n.7X}.R.d.  + t                                                                     t , @ s.T.}.7Xn.",
"n.8XOXR.d.X 0.:Xt                                                                 t :X9.. s.T.XX0Xn.",
"n.wX3XG.a.+ f.:X:X                                                                :X:Xf.+ w./.3XwXn.",
"-.$XF.a.< 0.:X:X:X                                                                :X:X:X9.5 w.C.%X-.",
"      + 7.0.:X:X:X                                                                :X:X:X9.7.:       ",
"n.7X(.d.+ 0.:X:X:X                                                                :X:X:X9.: s./.7Xn.",
"n.7X}.R.d.X 0.:X:X                                                                :X:X9.. s.T.}.7Xn.",
"n.7X}.R.d.X 0.:X:X                                                                :X:X9.. s.;XY.7Xn.",
"n.7X}.R.d.X 0.:X:X                                                                :X:X9.. s.U.~.7Xn.",
"n.7X}.R.d.X 0.:X7                                                     + A A M     7 :X9.. s.T.}.7Xn.",
"n.7XR.H.d.@ > 7                                                     + 1.7.7.5.M     7 :   s.T.}.7Xn.",
"n.7XQ.K.d.@ B q.q.                                                  X h 7.7.5.q q.q.q.q.# s.T.}.7Xn.",
"n.7XR.V.b Z x.:X:Xq.#     J q.q.q.q.d     ; q.q.q.q.q.#     f q.q.q.q.n 8 8 q p.:X:X:X:Xi.f S.E.7Xn.",
"~ ;.o.d + 0.:X:X:X:XY # f z.:X:X:X:Xg.u - e.:X:X:X:X:XY & f g.:X:X:X:Xg.d - Y :X:X:X:X:X:Xy f o.>.~ ",
"~ ;.` 4 + 0.:X:X:Xj.j.$ 3.j.M.:X:Xc.j.L 2 j.k.:X:X:Xk.j.1 3.j.M.:X:XM.j.4.2 j.k.:X:X:Xk.j.1 5 ' >.~ ",
":.@X$.e X Z l.l.l.h h @ 9 h y.l.l.6.h 4 X h Z l.l.l.Z h O 9 h y.l.l.t.h e X h Z l.l.l.Z h O 9 @.@X:.",
"R  .f f f a N 7.h f f f f f k 2.,.c f f f f a N 7.h s f f f f k ,.,.l f f f f a h 7.h s f f f f ..R ",
"* I J.J.J.Z.i S t J.J.J.J.J.] F k v.J.J.J.J.Z.i S t D.J.J.J.J.] k k I J.J.J.J.Z.t S t D.J.J.J.J.] * ",
"| {.~.W.}.Q.Z.  J.}.}.}.}.OX'.! [ ).~.W.}.}.Q.Z.  J.~.}.}.}.XX'.[ [ ^.~.W.}.}.Q.J.  J.~.OX|.}.}.'.| ",
"n.8X].,X.X.XP.  .X.X.X.X.X0X=X( O..X]._..X.X.XP.  .X.X.X.X.X9X=XO.O..X].,X.X.X.X.X  .X.XqX&X.X.X9Xn.",
"-.6X6X6X6X6X#X  6X6X6X6X6X6X6X_ -.6X6X6X6X6X6X#X  6X6X6X6X6X6X6X-.-.6X6X6X6X6X6X6X  6X6X6X6X6X6X6X-.",
"                                                                                                    "
};
